<?xml version="1.0" encoding="utf-8"?>
<!-- Generator: Adobe Illustrator 22.0.0, SVG Export Plug-In . SVG Version: 6.00 Build 0)  -->
<svg version="1.1" id="Livello_1" xmlns="http://www.w3.org/2000/svg" xmlns:xlink="http://www.w3.org/1999/xlink" x="0px" y="0px"
	 viewBox="0 0 245 434.5" style="enable-background:new 0 0 245 434.5;" xml:space="preserve">
<style type="text/css">
	.st0{fill:#FFFFFF;}
	.st1{fill:#F7931E;}
	.st2{fill:none;stroke:#F7931E;stroke-width:3;stroke-linecap:round;}
	.st3{font-family:'Roboto-Italic';}
	.st4{font-size:40.0658px;}
</style>
<title>Weser_UiUx</title>
<g id="Layer_1">
	<polygon class="st0" points="89.8,211.6 89.8,145.6 121.3,125.8 121.2,71.7 42.7,120.1 43.4,228.9 124.3,274.5 124.3,256.8 
		58.9,219.3 58.9,128.4 105.9,99.4 105.8,117.4 74.1,137 74.5,203.1 	"/>
	<polygon class="st0" points="159.2,211.6 159.2,145.6 127.6,125.8 127.6,72.2 206.2,120.1 205.5,228.9 124.3,274.5 124.3,256.8 
		190.1,219.3 190.1,128.4 143.1,99.4 143.1,117.4 174.8,137 174.4,203.1 	"/>
	<circle class="st1" cx="124.5" cy="175.1" r="7.5"/>
	<path id="progress" class="st2" d="M108.8,197.2c3.3-8.7,13.1-13.1,21.8-9.8c4.4,1.7,8,5.2,9.7,9.6"/>
	<path id="progress-2" class="st2" d="M113.1,200.2c2.4-6.3,9.5-9.5,15.8-7.1c3.2,1.2,5.8,3.8,7,7"/>
	<path id="progress-3" class="st2" d="M119.3,202.1c1.1-2.8,4.2-4.3,7.1-3.2c1.5,0.5,2.6,1.7,3.2,3.1"/>
	<path class="st2" d="M115.2,183.5c-1.8-2.2-3.3-5.4-3.3-8.4c0.1-7,5.9-12.5,12.8-12.3c6.8,0.1,12.2,5.6,12.3,12.3
		c0,3.6-1,6.3-3.4,8.6"/>
	<path class="st2" d="M109,188.4c-3.2-3.6-5-8.4-4.9-13.3c0.2-11.2,9.4-20.2,20.6-20c11,0.2,19.8,9,20,20c0,5.4-1.3,9.4-4.7,13.1"/>
	<path class="st2" d="M104.6,194.2c-10.6-11-10.2-28.4,0.7-39s28.4-10.2,39,0.7c10.4,10.8,10.3,27.9-0.3,38.6"/>
</g>
<g>
	<title>Weser_UiUx</title>
	<g id="Layer_1_2_">
		<path class="st0" d="M37.1,370.9l-0.2-0.1l-0.3,0.1L19.1,381v-85.5h12.5v64.7l5.2-3l0.1-0.1v0.1l5.2,3v-64.7h12.5V381L37.1,370.9z
			"/>
		<path class="st0" d="M97.7,295.4v26.5H85.2V308H74.7v17.4l12.8,7.4v13.6L74.7,339v29.5h10.5v-17l12.5,7.1V381H62.1v-47.3h3.3
			l-3.3-1.9L59,330v-13.6l3.2,1.8v-22.7h35.5V295.4z"/>
		<path class="st0" d="M139.8,295.4v26.7h-12.5V308h-10.5v17.3l23,13.3V381h-35.5v-33.5h12.5v21h10.5v-21.3h3.9l-0.2-0.1l-3.6-2.1
			l-23-13.3v-36.3L139.8,295.4L139.8,295.4z"/>
		<path class="st0" d="M182.9,295.4v26.5h-12.5V308h-10.5v17.4l12.8,7.4v13.6l-12.8-7.4v29.5h10.5v-17l12.5,7.1V381h-35.5v-47.3h3.3
			l-3.3-1.9l-3.2-1.9v-13.6l3.2,1.8v-22.7L182.9,295.4L182.9,295.4z"/>
		<path class="st0" d="M212.5,295.4H225V331l-6.1,3.4l6.1,3.5v43h-12.5v-33.7h3.9l-0.2-0.1l-3.6-2.1l-10.6-6v42h-12.5v-85.5h23
			V295.4z M212.5,331.3V308H202v17.3L212.5,331.3z"/>
		<path class="st1" d="M34,415.5L34,415.5c-0.2-1-0.4-1.9-0.5-2.7s-0.3-1.6-0.4-2.3c-0.1-0.7-0.3-1.5-0.4-2.1
			c-0.1-0.6-0.3-1.3-0.4-2c-0.2-0.9-0.4-1.7-0.5-2.4c-0.1-0.7-0.3-1.5-0.5-2.1l0,0c-0.2,0.8-0.4,1.5-0.6,2.2s-0.4,1.4-0.7,2.1
			s-0.4,1.4-0.7,2.1c-0.3,0.7-0.5,1.4-0.8,2.2c-0.3,0.8-0.6,1.5-0.9,2.3s-0.6,1.7-1,2.6l-1.4,0.1h-0.1c-0.8-4.2-1.6-7.6-2.2-10.2
			s-1.1-4.4-1.4-5.5c-0.1-0.2-0.2-0.5-0.3-0.7c-0.1-0.2-0.2-0.3-0.4-0.5c-0.1-0.1-0.3-0.2-0.5-0.3c-0.2,0-0.4-0.1-0.7-0.1
			c-0.2,0-0.4,0-0.6,0s-0.4,0-0.7,0.1l-0.1-0.7c0.8-0.2,1.5-0.3,2-0.4c0.4-0.1,0.9-0.1,1.3-0.1c0.2,0,0.5,0,0.7,0.1s0.3,0.2,0.4,0.4
			c0.1,0.2,0.2,0.4,0.3,0.6c0.1,0.2,0.2,0.6,0.3,1c0.1,0.5,0.3,1.2,0.5,2.1c0.2,0.8,0.4,1.8,0.7,3c0.2,1.2,0.5,2.4,0.8,3.9
			c0.3,1.4,0.6,3,0.9,4.8l0,0c0.2-0.7,0.5-1.5,0.8-2.2c0.3-0.8,0.6-1.6,0.9-2.4s0.6-1.7,0.9-2.6s0.6-1.8,0.8-2.6
			c0.2-0.9,0.5-1.8,0.8-2.6c0.3-0.8,0.5-1.7,0.7-2.5c0-0.1,0.1-0.1,0.2-0.2c0.2-0.1,0.4-0.1,0.6,0c0.1,0.5,0.3,1.2,0.5,1.9
			c0.2,0.7,0.3,1.5,0.5,2.3s0.4,1.7,0.6,2.7c0.2,1,0.4,1.9,0.6,2.8c0.2,1,0.4,1.9,0.6,2.8c0.2,0.9,0.3,1.9,0.5,2.7l0,0
			c0.4-0.8,0.7-1.6,1.1-2.4c0.4-0.8,0.7-1.7,1.1-2.5s0.7-1.7,1-2.5s0.5-1.6,0.8-2.3s0.4-1.4,0.5-2c0.1-0.5,0.2-1.1,0.2-1.6
			c0-0.2,0-0.5,0-0.8c0-0.2-0.1-0.5-0.2-0.7c-0.1-0.2-0.2-0.4-0.3-0.6s-0.3-0.3-0.5-0.4v-0.1h0.3c0.1,0,0.2,0,0.3,0
			c0.3,0,0.6,0,0.8,0.1s0.5,0.2,0.7,0.3c0.2,0.1,0.4,0.4,0.5,0.6c0.1,0.3,0.2,0.6,0.2,0.9s0,0.7-0.1,1.1s-0.2,0.9-0.4,1.5
			s-0.4,1.2-0.6,1.9s-0.5,1.4-0.8,2.2c-0.3,0.8-0.6,1.6-1,2.4c-0.3,0.8-0.7,1.7-1.1,2.5c-0.3,0.9-0.8,1.7-1.2,2.6s-0.8,1.7-1.2,2.6
			L34,415.5z"/>
		<path class="st1" d="M49.3,412.8L49.3,412.8c0.1,0,0.2,0,0.2,0.1c0,0,0.1,0,0.1,0.1v0.1l0,0c-0.3,0.4-0.6,0.7-0.9,1.1
			c-0.3,0.3-0.7,0.5-1.1,0.8c-0.3,0.2-0.7,0.3-1.1,0.4c-0.3,0.1-0.7,0.1-1.1,0.1c-0.6,0-1.2-0.1-1.7-0.4c-0.5-0.2-1-0.6-1.4-1.1
			s-0.7-1-0.9-1.6s-0.3-1.3-0.3-2c0-0.6,0-1.1,0.2-1.7c0.2-1.1,0.7-2.2,1.4-3c0.3-0.4,0.7-0.8,1.1-1.1c0.4-0.3,0.9-0.6,1.4-0.8
			c0.5-0.2,1.1-0.3,1.7-0.3c0.4,0,0.7,0,1.1,0.1c0.3,0.1,0.6,0.2,0.9,0.4c0.2,0.2,0.5,0.4,0.6,0.7s0.2,0.6,0.2,1
			c0,0.5-0.2,1-0.5,1.4c-0.4,0.4-0.9,0.8-1.5,1c-0.7,0.3-1.4,0.5-2.2,0.7c-0.9,0.2-1.8,0.3-2.7,0.4v0.1c0,0.6,0.1,1.2,0.2,1.9
			c0.1,0.5,0.4,1,0.7,1.4s0.6,0.7,1.1,1c0.4,0.2,0.8,0.3,1.3,0.3s1-0.1,1.5-0.3C48.4,413.6,48.9,413.2,49.3,412.8z M47.9,406.5
			c0-0.2,0-0.4-0.1-0.7c0-0.2-0.2-0.4-0.3-0.5s-0.3-0.3-0.5-0.4s-0.4-0.1-0.6-0.1c-0.3,0-0.6,0-0.9,0.2c-0.3,0.1-0.5,0.3-0.7,0.5
			s-0.4,0.4-0.6,0.7c-0.1,0.3-0.3,0.6-0.4,0.9s-0.2,0.6-0.3,1c0,0.3-0.1,0.6-0.1,1c0.7,0,1.3-0.1,2-0.3c0.5-0.1,1-0.2,1.5-0.5
			c0.3-0.1,0.7-0.4,0.9-0.7C47.8,407.2,47.9,406.8,47.9,406.5L47.9,406.5z"/>
		<path class="st1" d="M57.9,407.1c0-0.4,0-0.7-0.2-1.1c-0.2-0.5-0.7-1-1.3-1.2c-0.3-0.1-0.5-0.1-0.8-0.1s-0.6,0-0.9,0.1
			c-0.2,0-0.4,0.2-0.6,0.3c-0.1,0.1-0.3,0.3-0.3,0.5c-0.1,0.2-0.1,0.4-0.1,0.6s0,0.5,0.1,0.8c0.1,0.2,0.2,0.5,0.4,0.7v0.1
			c-0.3,0.1-0.6,0.2-0.9,0.2c-0.1,0-0.3,0-0.5-0.1c-0.1,0-0.3-0.1-0.4-0.2c-0.1-0.1-0.2-0.2-0.3-0.4c0-0.1-0.1-0.3-0.1-0.5
			c0-0.3,0.1-0.6,0.2-0.9s0.3-0.5,0.6-0.7c0.2-0.2,0.5-0.4,0.9-0.6c0.3-0.2,0.7-0.3,1-0.4s0.7-0.2,1-0.3c0.3,0,0.6-0.1,1-0.1
			c0.5,0,1,0,1.4,0.2c0.4,0.1,0.7,0.3,1,0.6s0.4,0.6,0.5,1s0.2,0.9,0.1,1.4c0,0.3,0,0.7,0,1.1s0,0.8-0.1,1.3c0,0.5,0,0.9-0.1,1.4
			c0,0.5,0,1,0,1.5c0,0.6,0.1,1.2,0.4,1.7c0.2,0.3,0.7,0.6,1.1,0.6c0.5,0,0.9-0.2,1.4-0.4l0.2,0.3c-0.3,0.3-0.7,0.6-1.1,0.8
			c-0.4,0.2-0.8,0.3-1.3,0.3c-0.3,0-0.6,0-0.9-0.2c-0.3-0.1-0.5-0.3-0.7-0.5s-0.4-0.5-0.5-0.9s-0.2-0.8-0.1-1.2c0-0.1,0-0.3,0-0.4
			s0-0.3,0-0.4l0,0c-0.2,0.4-0.5,0.9-0.8,1.3s-0.6,0.8-1,1.2c-0.3,0.3-0.7,0.6-1.1,0.8c-0.4,0.2-0.8,0.3-1.3,0.3c-0.3,0-0.7,0-1-0.2
			c-0.3-0.1-0.5-0.3-0.8-0.5c-0.2-0.2-0.4-0.5-0.5-0.8s-0.2-0.6-0.2-1s0.1-0.9,0.2-1.3c0.1-0.4,0.4-0.7,0.7-1s0.7-0.6,1.1-0.8
			c0.4-0.2,0.9-0.4,1.4-0.5s1-0.2,1.6-0.3c0.5,0,1.1-0.1,1.7-0.1c0-0.3,0-0.6,0.1-1S57.9,407.5,57.9,407.1z M53,412.5
			c0,0.2,0,0.4,0,0.6s0.1,0.3,0.2,0.5c0.1,0.1,0.2,0.2,0.4,0.3c0.1,0.1,0.3,0.1,0.5,0.1s0.5,0,0.7-0.1s0.5-0.3,0.7-0.4
			c0.2-0.2,0.5-0.4,0.7-0.7c0.2-0.3,0.4-0.6,0.6-0.9c0.2-0.3,0.3-0.7,0.4-1c0.1-0.3,0.2-0.7,0.2-1.1c-0.4,0-0.8,0-1.2,0
			s-0.7,0.1-1.1,0.2c-0.3,0.1-0.7,0.2-1,0.3c-0.3,0.1-0.5,0.3-0.8,0.5c-0.2,0.2-0.4,0.4-0.5,0.7C53.1,411.9,53,412.2,53,412.5z"/>
		<path class="st1" d="M64,415.4L64,415.4c-0.1-0.5,0-1,0-1.6s0-1.2,0.1-1.8c0-0.6,0-1.2,0.1-1.8c0-0.6,0-1.2,0-1.7s0-1,0-1.4
			s0-0.7,0-1c0-0.1,0-0.3,0-0.5c0-0.1,0-0.2-0.1-0.3c0-0.1-0.1-0.1-0.2-0.2c-0.1,0-0.3,0-0.4,0h-0.3c-0.1,0-0.2,0-0.3,0
			s-0.2,0-0.4,0.1c-0.1,0-0.3,0-0.5,0.1l-0.1-0.5c0.7-0.2,1.4-0.5,2.1-0.7c0.3-0.1,0.7-0.1,1.1-0.2c0.3,0,0.5,0.1,0.7,0.3
			c0.1,0.3,0.2,0.6,0.2,0.9c0,0,0,0.1,0,0.3s0,0.4,0,0.7c0,0.3,0,0.6,0,1s0,0.8-0.1,1.2c0,0.4,0,0.9-0.1,1.4l-0.1,1.4h0.1
			c0.2-1,0.5-1.9,0.8-2.8c0.3-0.8,0.6-1.6,1.1-2.3c0.3-0.6,0.8-1.1,1.3-1.6c0.4-0.3,1-0.6,1.6-0.5c0.2,0,0.4,0,0.5,0.1
			c0.1,0,0.3,0.1,0.4,0.2s0.2,0.2,0.3,0.4c0,0.1,0.1,0.3,0.1,0.5c0,0.5-0.2,1-0.6,1.3l0,0c-0.2-0.1-0.4-0.3-0.6-0.4
			s-0.4-0.1-0.6-0.1s-0.5,0-0.7,0.1s-0.4,0.2-0.6,0.4c-0.3,0.3-0.6,0.7-0.8,1.1c-0.3,0.5-0.5,1-0.7,1.5s-0.4,1.1-0.6,1.7
			s-0.3,1.2-0.4,1.8s-0.2,1.1-0.3,1.6c-0.1,0.5-0.1,0.9-0.1,1.3H64z"/>
		<path class="st1" d="M78.5,407.1c0-0.4,0-0.7-0.2-1.1c-0.1-0.3-0.3-0.5-0.5-0.7s-0.5-0.3-0.7-0.4c-0.3-0.1-0.5-0.1-0.8-0.1
			s-0.6,0-0.9,0.1c-0.2,0-0.4,0.2-0.6,0.3c-0.1,0.1-0.3,0.3-0.3,0.5c-0.1,0.2-0.1,0.4-0.1,0.6s0,0.5,0.1,0.8
			c0.1,0.2,0.2,0.5,0.4,0.7v0.1c-0.3,0.1-0.6,0.2-0.9,0.2c-0.1,0-0.3,0-0.5-0.1c-0.1,0-0.3-0.1-0.4-0.2s-0.2-0.2-0.3-0.4
			c0-0.1-0.1-0.3-0.1-0.5c0-0.3,0.1-0.6,0.2-0.9s0.3-0.5,0.6-0.7c0.2-0.2,0.5-0.4,0.9-0.6c0.3-0.2,0.7-0.3,1-0.4s0.7-0.2,1-0.3
			c0.3,0,0.6-0.1,1-0.1c0.5,0,1,0,1.4,0.2c0.4,0.1,0.7,0.3,1,0.6c0.2,0.3,0.4,0.6,0.5,1s0.2,0.9,0.2,1.4c0,0.3,0,0.7,0,1.1
			s0,0.8-0.1,1.3c0,0.5,0,0.9-0.1,1.4c0,0.5,0,1,0,1.5c0,0.6,0.1,1.2,0.4,1.7c0.2,0.3,0.7,0.6,1.1,0.6c0.5,0,0.9-0.2,1.4-0.4
			l0.2,0.3c-0.3,0.3-0.7,0.6-1.2,0.8c-0.4,0.2-0.9,0.3-1.3,0.3c-0.3,0-0.6,0-0.9-0.2c-0.3-0.1-0.5-0.3-0.7-0.5s-0.4-0.5-0.5-0.9
			s-0.2-0.8-0.2-1.2c0-0.1,0-0.3,0-0.4s0-0.3,0-0.4h-0.1c-0.2,0.4-0.5,0.9-0.8,1.3s-0.6,0.8-1,1.2c-0.3,0.3-0.7,0.6-1.1,0.8
			c-0.4,0.2-0.8,0.3-1.3,0.3c-0.3,0-0.7,0-1-0.2c-0.3-0.1-0.5-0.3-0.8-0.5c-0.2-0.2-0.4-0.5-0.5-0.8s-0.2-0.6-0.2-1s0.1-0.9,0.2-1.3
			c0.2-0.4,0.4-0.7,0.7-1c0.3-0.3,0.7-0.6,1.1-0.8c0.4-0.2,0.9-0.4,1.4-0.5s1-0.2,1.6-0.3c0.5,0,1.1-0.1,1.7-0.1c0-0.3,0-0.6,0.1-1
			S78.5,407.5,78.5,407.1z M73.7,412.5c0,0.2,0,0.4,0,0.6s0.1,0.3,0.2,0.5c0.1,0.1,0.2,0.2,0.4,0.3c0.1,0.1,0.3,0.1,0.5,0.1
			s0.5,0,0.7-0.1s0.5-0.3,0.7-0.4c0.2-0.2,0.5-0.4,0.7-0.7c0.2-0.3,0.4-0.6,0.6-0.9s0.3-0.7,0.4-1s0.2-0.7,0.2-1.1
			c-0.4,0-0.8,0-1.2,0c-0.4,0-0.7,0.1-1.1,0.2c-0.3,0.1-0.7,0.2-1,0.3c-0.3,0.1-0.5,0.3-0.8,0.5c-0.2,0.2-0.4,0.4-0.5,0.7
			C73.7,411.9,73.7,412.2,73.7,412.5z"/>
		<path class="st1" d="M87.4,394.1c-0.1,0.8-0.2,1.7-0.3,2.6s-0.2,1.8-0.3,2.7c-0.1,0.9-0.2,1.9-0.2,2.7c0,0.9-0.1,1.9-0.2,2.7
			c-0.1,0.9-0.1,1.8-0.2,2.6c0,0.9-0.1,1.7-0.1,2.5H86c0.4-0.9,0.8-1.8,1.3-2.7c0.4-0.7,0.9-1.4,1.5-2c0.4-0.5,0.9-0.9,1.5-1.2
			c0.4-0.2,0.9-0.4,1.4-0.4c0.3,0,0.7,0,1,0.2c0.3,0.1,0.5,0.3,0.7,0.5s0.4,0.5,0.5,0.8s0.2,0.6,0.3,0.9c0.1,0.3,0.1,0.6,0.2,1
			c0,0.3,0,0.6,0,0.9c0,0.7,0,1.5-0.2,2.2c-0.1,0.6-0.3,1.3-0.6,1.9c-0.2,0.5-0.6,1-1,1.5c-0.3,0.4-0.8,0.8-1.2,1.1
			c-0.4,0.3-0.9,0.5-1.4,0.7c-0.5,0.1-1,0.2-1.5,0.2c-0.3,0-0.6,0-1-0.1s-0.7-0.2-1-0.3c-0.3-0.1-0.6-0.3-0.9-0.6
			c-0.3-0.2-0.5-0.5-0.7-0.8c-0.1,0.4-0.3,0.8-0.5,1.1c-0.1,0.2-0.3,0.5-0.5,0.7l-0.4-0.1c0.3-0.9,0.5-1.9,0.6-2.9
			c0.1-1.1,0.2-2.4,0.3-3.8c0-0.6,0-1.3,0.1-2.1c0-0.8,0.1-1.6,0.1-2.4s0.1-1.8,0.1-2.6c0-0.9,0.1-1.8,0.1-2.6
			c0-0.9,0.1-1.7,0.1-2.4l0.1-2c0-0.1,0-0.2,0.1-0.3c0.1-0.1,0.2-0.1,0.3-0.2c0.1,0,0.2-0.1,0.4-0.1c0.1,0,0.3,0,0.4,0
			C86.7,393.8,87.1,393.9,87.4,394.1z M92.5,408.8c0-0.4,0-0.7-0.1-1.1c0-0.3-0.1-0.7-0.2-1s-0.2-0.5-0.4-0.7s-0.4-0.3-0.7-0.3
			c-0.3,0-0.6,0.1-0.9,0.2c-0.3,0.2-0.6,0.4-0.9,0.6c-0.3,0.3-0.6,0.6-0.8,0.9c-0.3,0.3-0.5,0.7-0.7,1.1s-0.4,0.8-0.6,1.2
			c-0.2,0.4-0.3,0.8-0.5,1.1c-0.1,0.3-0.2,0.6-0.3,1c-0.2,0.5-0.1,1.1,0.2,1.6c0.1,0.2,0.3,0.5,0.6,0.7c0.2,0.2,0.5,0.3,0.8,0.4
			s0.6,0.1,0.9,0.1c0.5,0,1-0.1,1.5-0.4s0.9-0.7,1.2-1.2c0.4-0.6,0.6-1.2,0.8-1.9C92.4,410.5,92.5,409.7,92.5,408.8L92.5,408.8z"/>
		<path class="st1" d="M100.2,394.1c-0.1,0.9-0.2,1.8-0.3,2.7c-0.1,0.9-0.2,1.9-0.3,2.8c-0.1,0.9-0.2,1.9-0.2,2.9s-0.1,1.9-0.2,2.8
			c0,0.9-0.1,1.9-0.1,2.7c0,0.9,0,1.8,0,2.6c0,0.5,0,1,0,1.3s0,0.7,0,0.9c0,0.2,0,0.4,0.1,0.6c0,0.1,0.1,0.2,0.2,0.3
			c0,0.1,0.1,0.1,0.2,0.2s0.2,0,0.3,0c0.3,0,0.5,0,0.8-0.1s0.6-0.2,0.9-0.3l0.1,0.4c-0.2,0.2-0.4,0.3-0.7,0.5
			c-0.3,0.1-0.6,0.3-0.9,0.4s-0.6,0.2-0.9,0.3c-0.2,0-0.5,0.1-0.8,0.1c-0.2,0-0.5,0-0.7-0.2s-0.3-0.4-0.4-0.7
			c-0.1-0.4-0.1-0.8-0.1-1.3s0-1.2,0-1.9c0-0.3,0-0.7,0-1.2s0-1.1,0-1.8s0-1.4,0.1-2.2c0-0.8,0.1-1.6,0.1-2.5s0.1-1.7,0.1-2.6
			s0.1-1.7,0.1-2.5s0.1-1.6,0.1-2.3l0.1-1.9c0-0.1,0-0.2,0.1-0.3c0-0.1,0.1-0.1,0.2-0.2c0.1,0,0.2-0.1,0.3-0.1c0.1,0,0.3,0,0.4,0
			C99.5,393.8,99.9,393.9,100.2,394.1z"/>
		<path class="st1" d="M110.6,412.8L110.6,412.8c0.1,0,0.2,0,0.2,0.1c0,0,0.1,0,0.1,0.1v0.1l0,0c-0.3,0.4-0.6,0.7-0.9,1.1
			c-0.3,0.3-0.7,0.5-1.1,0.7c-0.3,0.2-0.7,0.3-1.1,0.4c-0.3,0.1-0.7,0.1-1.1,0.1c-0.6,0-1.2-0.1-1.8-0.4c-0.5-0.2-1-0.6-1.4-1.1
			s-0.7-1-0.9-1.6c-0.2-0.6-0.3-1.3-0.3-2c0-0.6,0-1.1,0.2-1.7c0.1-0.5,0.3-1.1,0.5-1.6s0.5-1,0.9-1.4c0.3-0.4,0.7-0.8,1.1-1.1
			c0.4-0.3,0.9-0.6,1.4-0.8c0.5-0.2,1.1-0.3,1.7-0.3c0.4,0,0.7,0,1.1,0.1c0.3,0.1,0.6,0.2,0.9,0.4c0.2,0.2,0.5,0.4,0.6,0.7
			s0.2,0.6,0.2,1c0,0.5-0.2,1-0.5,1.4c-0.4,0.4-0.9,0.8-1.5,1c-0.7,0.3-1.4,0.5-2.2,0.7c-0.9,0.2-1.8,0.3-2.7,0.4v0.1
			c0,0.6,0.1,1.2,0.2,1.9c0.1,0.5,0.4,1,0.7,1.4c0.3,0.4,0.6,0.7,1.1,0.9c0.4,0.2,0.8,0.3,1.3,0.3s1-0.1,1.5-0.3
			C109.6,413.6,110.1,413.2,110.6,412.8z M109.1,406.5c0-0.2,0-0.4-0.1-0.7c-0.1-0.2-0.2-0.4-0.3-0.5c-0.1-0.1-0.3-0.3-0.5-0.4
			s-0.4-0.1-0.6-0.1c-0.3,0-0.6,0-0.9,0.2c-0.3,0.1-0.5,0.3-0.7,0.5s-0.4,0.4-0.6,0.7s-0.3,0.6-0.4,0.9s-0.2,0.6-0.3,1
			c0,0.3-0.1,0.6-0.1,1c0.7,0,1.3-0.1,2-0.3c0.5-0.1,1-0.2,1.5-0.5c0.3-0.1,0.7-0.4,0.9-0.7C109,407.2,109.1,406.8,109.1,406.5z"/>
		<path class="st1" d="M121.9,404.4h0.8h0.7h0.6h0.4c0.2,0,0.5,0,0.7,0h0.5c0,0.1,0.1,0.3,0.1,0.5s-0.1,0.4-0.3,0.4
			c-0.2,0.1-0.5,0.1-0.8,0.1s-0.8,0-1.2,0l-1.5-0.1c0,0.6,0,1.3-0.1,2.1c0,0.7,0,1.5-0.1,2.3s-0.1,1.6-0.2,2.4s-0.1,1.6-0.3,2.4
			c-0.1,0.8-0.2,1.5-0.4,2.2c-0.1,0.7-0.3,1.3-0.5,2c-0.2,0.8-0.6,1.6-1,2.2c-0.3,0.5-0.7,1-1.2,1.5c-0.4,0.3-0.9,0.6-1.4,0.8
			c-0.8,0.2-1.7,0.3-2.5,0.1c-0.3-0.1-0.6-0.2-0.9-0.3c-0.2-0.1-0.4-0.3-0.6-0.5c-0.1-0.2-0.2-0.4-0.2-0.6c0-0.1,0-0.2,0.1-0.4
			c0-0.1,0.1-0.2,0.2-0.3c0.1-0.1,0.2-0.2,0.3-0.2c0.1,0,0.3-0.1,0.4-0.1c0.1,0.2,0.3,0.5,0.5,0.7s0.4,0.3,0.6,0.5
			c0.2,0.1,0.4,0.2,0.6,0.2s0.4,0.1,0.7,0.1c0.6,0,1.1-0.2,1.5-0.6c0.5-0.5,0.8-1,1.1-1.7c0.3-0.8,0.5-1.7,0.7-2.6
			c0.1-1,0.3-2.2,0.4-3.4c0.1-1.2,0.1-2.6,0.2-4c0-1.4,0-2.9,0-4.5c-0.5,0-0.9,0-1.4,0c-0.3,0-0.7,0.1-1.1,0.2v-0.1
			c0-0.1,0.1-0.2,0.2-0.3c0.1-0.1,0.3-0.2,0.5-0.3c0.2-0.1,0.5-0.1,0.8-0.2c0.3,0,0.7-0.1,1-0.1c0-0.5,0-1,0.1-1.4
			c0-0.4,0-0.9,0.1-1.3s0.1-0.9,0.2-1.3s0.1-0.9,0.3-1.4c0.1-0.6,0.3-1.1,0.5-1.7c0.2-0.4,0.5-0.9,0.8-1.3c0.2-0.3,0.6-0.7,0.9-1
			c0.3-0.2,0.7-0.5,1-0.7c0.7-0.3,1.4-0.5,2.2-0.5c0.4,0,0.9,0,1.4,0.2c0.3,0.1,0.7,0.3,1,0.5c0.2,0.2,0.5,0.4,0.6,0.7
			c0.1,0.2,0.2,0.5,0.2,0.8c0,0.2,0,0.4-0.1,0.6c0,0.1-0.1,0.3-0.3,0.4c-0.1,0.1-0.3,0.2-0.4,0.3c-0.1,0-0.3,0.1-0.5,0.1
			s-0.5,0-0.8-0.2v-0.1c0.1-0.2,0.1-0.4,0.2-0.6c0-0.2,0.1-0.3,0-0.5c0-0.2,0-0.4-0.1-0.6s-0.2-0.3-0.4-0.4
			c-0.1-0.1-0.3-0.2-0.5-0.2s-0.4-0.1-0.6-0.1c-0.5,0-1,0.1-1.5,0.4c-0.4,0.3-0.8,0.6-1,1.1c-0.3,0.5-0.5,1.1-0.6,1.6
			c-0.1,0.7-0.3,1.3-0.3,2c-0.1,0.7-0.1,1.5-0.2,2.2C121.9,402.9,122,403.6,121.9,404.4z"/>
		<path class="st1" d="M125.4,410.7c0-0.5,0-1.1,0.1-1.6s0.3-1.1,0.5-1.6s0.5-1,0.8-1.5c0.3-0.4,0.7-0.8,1.1-1.2
			c0.4-0.3,0.9-0.6,1.4-0.8c0.5-0.2,1.1-0.3,1.7-0.3c0.6,0,1.2,0.1,1.8,0.4c0.5,0.3,1,0.7,1.3,1.1c0.3,0.5,0.6,1,0.8,1.6
			s0.3,1.2,0.3,1.8c0,0.5,0,1.1-0.1,1.6s-0.3,1.1-0.5,1.6s-0.5,1-0.8,1.5c-0.3,0.4-0.7,0.8-1.1,1.2c-0.4,0.3-0.9,0.6-1.4,0.8
			c-0.5,0.2-1.1,0.3-1.7,0.3c-0.6,0-1.2-0.1-1.8-0.4c-0.5-0.3-0.9-0.7-1.3-1.1c-0.3-0.5-0.6-1-0.8-1.6
			C125.5,411.9,125.4,411.3,125.4,410.7z M127.3,409.9c0,0.3,0,0.7,0.1,1.1c0,0.3,0.1,0.7,0.2,1.1c0.1,0.3,0.2,0.7,0.4,1
			c0.1,0.3,0.3,0.5,0.6,0.8c0.2,0.2,0.5,0.4,0.8,0.5s0.6,0.2,1,0.2c0.3,0,0.7-0.1,1-0.2s0.5-0.4,0.7-0.6c0.2-0.3,0.4-0.6,0.5-0.9
			s0.2-0.7,0.3-1.1s0.1-0.7,0.2-1.1c0-0.4,0-0.7,0-1s0-0.7-0.1-1.1c0-0.3-0.1-0.7-0.2-1.1s-0.2-0.6-0.4-1c-0.1-0.3-0.4-0.5-0.6-0.8
			c-0.2-0.2-0.5-0.4-0.8-0.5s-0.6-0.2-1-0.2c-0.3,0-0.7,0.1-1,0.2s-0.5,0.4-0.8,0.6c-0.2,0.3-0.4,0.6-0.5,0.9s-0.2,0.7-0.3,1.1
			c-0.1,0.4-0.1,0.7-0.2,1.1C127.3,409.3,127.3,409.6,127.3,409.9z"/>
		<path class="st1" d="M138.2,415.4H138c0-0.5,0.1-1,0.1-1.6s0-1.2,0.1-1.8c0-0.6,0-1.2,0.1-1.8c0-0.6,0-1.2,0-1.7s0-1,0-1.4
			s0-0.7,0-1c0-0.1,0-0.3,0-0.5c0-0.1,0-0.2-0.1-0.3c0-0.1-0.1-0.1-0.2-0.2c-0.1,0-0.3,0-0.4,0h-0.3c-0.1,0-0.2,0-0.3,0l-0.4,0.1
			l-0.5,0.1l-0.1-0.5c0.7-0.2,1.4-0.5,2.1-0.7c0.3-0.1,0.7-0.1,1.1-0.2c0.3,0,0.6,0.1,0.7,0.3c0.1,0.3,0.2,0.6,0.2,0.9
			c0,0,0,0.1,0,0.3s0,0.4,0,0.7c0,0.3,0,0.6,0,1s0,0.8-0.1,1.2c0,0.4-0.1,0.9-0.1,1.4s-0.1,0.9-0.1,1.4h0.1c0.2-1,0.5-2,0.8-2.9
			c0.3-0.8,0.6-1.6,1.1-2.3c0.3-0.6,0.8-1.1,1.3-1.6c0.4-0.3,1-0.5,1.6-0.5c0.2,0,0.4,0,0.5,0.1c0.1,0,0.3,0.1,0.4,0.2
			c0.1,0.1,0.2,0.2,0.3,0.4c0,0.1,0.1,0.3,0.1,0.5c0,0.5-0.2,1-0.6,1.3l0,0c-0.2-0.1-0.4-0.3-0.6-0.4c-0.2-0.1-0.4-0.1-0.6-0.1
			s-0.5,0-0.7,0.1s-0.4,0.2-0.6,0.4c-0.3,0.3-0.6,0.7-0.8,1.1c-0.3,0.5-0.5,1-0.7,1.5s-0.4,1.1-0.6,1.7s-0.3,1.2-0.4,1.8
			c-0.1,0.6-0.2,1.1-0.3,1.6s-0.1,0.9-0.1,1.3L138.2,415.4z"/>
		<path class="st1" d="M152.7,410.6c0,0.1,0,0.2,0,0.3s0,0.2,0,0.3c0,0.5,0,1,0.2,1.5c0.1,0.4,0.4,0.7,0.7,1s0.7,0.5,1.1,0.6
			c0.4,0.1,0.9,0.2,1.4,0.2s1,0,1.5-0.2c0.4-0.1,0.9-0.3,1.2-0.6s0.6-0.6,0.8-1.1s0.3-1,0.3-1.5c0-0.3,0-0.7-0.1-1s-0.2-0.6-0.4-0.8
			c-0.2-0.2-0.4-0.5-0.6-0.7c-0.2-0.2-0.5-0.4-0.8-0.6s-0.6-0.4-0.9-0.5l-0.9-0.5c-0.3-0.2-0.7-0.3-1-0.5s-0.6-0.4-0.9-0.6
			c-0.3-0.2-0.6-0.4-0.8-0.7s-0.5-0.5-0.7-0.8s-0.3-0.6-0.4-1c-0.1-0.4-0.1-0.8-0.1-1.2c0-0.5,0-1,0.2-1.6c0.1-0.5,0.3-0.9,0.6-1.3
			c0.2-0.4,0.5-0.8,0.9-1.1c0.3-0.3,0.7-0.6,1.2-0.8s0.9-0.4,1.4-0.5s1-0.1,1.5-0.1c0.2,0,0.5,0,0.7,0s0.5,0.1,0.8,0.1
			s0.5,0.1,0.7,0.2c0.2,0,0.4,0.1,0.6,0.3c0.1,0.1,0.3,0.2,0.4,0.3c0.1,0.1,0.1,0.2,0.1,0.4c0,0.1,0,0.3,0,0.6s0,0.5,0,0.8
			s0,0.6,0,1s0,0.7,0,1.1h-0.8c0-0.2,0-0.4,0-0.5c0-0.5,0-0.9-0.2-1.4c-0.3-0.8-0.9-1.4-1.7-1.6c-0.4-0.1-0.9-0.2-1.3-0.2
			c-0.4,0-0.9,0.1-1.4,0.2c-0.4,0.1-0.8,0.4-1.1,0.7s-0.5,0.6-0.7,1s-0.2,0.8-0.2,1.3c0,0.3,0,0.7,0.1,1s0.2,0.6,0.4,0.9
			c0.2,0.2,0.4,0.5,0.6,0.7c0.2,0.2,0.5,0.4,0.8,0.6s0.6,0.4,0.9,0.5l1,0.5c0.3,0.2,0.7,0.3,1,0.5s0.6,0.4,0.9,0.6
			c0.3,0.2,0.6,0.4,0.8,0.7s0.5,0.5,0.7,0.8c0.4,0.6,0.6,1.4,0.6,2.2c0,0.6-0.1,1.3-0.3,1.9c-0.2,0.5-0.4,1-0.8,1.5
			c-0.3,0.4-0.7,0.7-1.1,1c-0.4,0.3-0.9,0.5-1.3,0.7c-0.4,0.1-0.9,0.3-1.4,0.4c-0.4,0-0.8,0.1-1.3,0.1s-1,0-1.5-0.1
			c-0.4,0-0.8-0.1-1.2-0.3c-0.3-0.1-0.6-0.2-0.8-0.4c-0.2-0.1-0.3-0.3-0.3-0.5c0-0.3,0-0.9,0-1.5s0-1.4,0.1-2.3H152.7z"/>
		<path class="st1" d="M171.5,412.8h0.1c0,0,0.1,0,0.1,0.1c0,0,0.1,0,0.1,0.1v0.1l0,0c-0.3,0.4-0.6,0.7-0.9,1.1
			c-0.3,0.3-0.7,0.5-1.1,0.7c-0.3,0.2-0.7,0.3-1.1,0.4c-0.3,0.1-0.7,0.1-1.1,0.1c-0.6,0-1.2-0.1-1.7-0.4c-0.5-0.2-1-0.6-1.4-1.1
			s-0.7-1-0.9-1.6s-0.3-1.3-0.3-2c0-0.6,0-1.1,0.2-1.7c0.1-0.5,0.3-1.1,0.5-1.6s0.5-1,0.8-1.4s0.7-0.8,1.2-1.1
			c0.4-0.3,0.9-0.6,1.4-0.8c0.5-0.2,1.1-0.3,1.7-0.3c0.4,0,0.7,0,1.1,0.1c0.3,0.1,0.6,0.2,0.9,0.4c0.2,0.2,0.5,0.4,0.6,0.7
			c0.1,0.3,0.2,0.6,0.2,1c0,0.5-0.2,1-0.5,1.4c-0.4,0.4-0.9,0.8-1.5,1c-0.7,0.3-1.4,0.5-2.2,0.7c-0.9,0.2-1.8,0.3-2.7,0.4v0.1
			c0,0.6,0.1,1.2,0.2,1.9c0.1,0.5,0.4,1,0.7,1.4s0.6,0.7,1.1,0.9c0.4,0.2,0.8,0.3,1.3,0.3s1-0.1,1.5-0.3S171.1,413.2,171.5,412.8z
			 M170,406.5c0-0.2,0-0.4-0.1-0.7c0-0.2-0.2-0.4-0.3-0.5s-0.3-0.3-0.5-0.4s-0.4-0.1-0.6-0.1c-0.3,0-0.6,0-0.9,0.2
			c-0.3,0.1-0.5,0.3-0.7,0.5s-0.4,0.4-0.6,0.7s-0.3,0.6-0.4,0.9s-0.2,0.6-0.3,1c0,0.3-0.1,0.6-0.1,1c0.7,0,1.3-0.1,2-0.3
			c0.5-0.1,1-0.2,1.5-0.5c0.3-0.1,0.7-0.4,0.9-0.7C169.9,407.2,170,406.8,170,406.5L170,406.5z"/>
		<path class="st1" d="M174.6,415.4h-0.1c0-0.5,0.1-1,0.1-1.6s0-1.2,0.1-1.8c0-0.6,0-1.2,0.1-1.8s0-1.2,0-1.7s0-1,0-1.4s0-0.7,0-1
			c0-0.1,0-0.3,0-0.5c0-0.1,0-0.2-0.1-0.3c0-0.1-0.1-0.1-0.2-0.2c-0.1,0-0.3,0-0.4,0h-0.3c-0.1,0-0.2,0-0.3,0s-0.2,0-0.4,0.1
			l-0.5,0.1l-0.1-0.5c0.7-0.2,1.4-0.5,2.1-0.7c0.3-0.1,0.7-0.1,1.1-0.2c0.3,0,0.5,0.1,0.7,0.3c0.1,0.2,0.2,0.6,0.2,0.9
			c0,0,0,0.1,0,0.3s0,0.4,0,0.7c0,0.3,0,0.6,0,1s0,0.8-0.1,1.2c0,0.4,0,0.9-0.1,1.4s-0.1,0.9-0.1,1.4h0.1c0.2-1,0.5-2,0.9-2.9
			c0.3-0.8,0.6-1.6,1.1-2.3c0.3-0.6,0.8-1.1,1.3-1.6c0.4-0.3,1-0.6,1.6-0.5c0.2,0,0.4,0,0.5,0.1c0.1,0,0.3,0.1,0.4,0.2
			c0.1,0.1,0.2,0.2,0.3,0.4c0,0.1,0.1,0.3,0.1,0.5s0,0.5-0.1,0.7s-0.3,0.4-0.5,0.6l0,0c-0.2-0.1-0.4-0.3-0.6-0.4
			c-0.2-0.1-0.4-0.1-0.6-0.1c-0.2,0-0.5,0-0.7,0.1s-0.4,0.2-0.6,0.4c-0.3,0.3-0.6,0.7-0.8,1.1c-0.3,0.5-0.5,1-0.7,1.5
			s-0.4,1.1-0.6,1.7c-0.2,0.6-0.3,1.2-0.4,1.8s-0.2,1.1-0.3,1.6c0,0.5-0.1,0.9-0.1,1.3L174.6,415.4z"/>
		<path class="st1" d="M190.6,412.8h0.1c0,0,0.1,0,0.1,0.1c0,0,0.1,0,0.1,0.1v0.1l0,0c-0.3,0.4-0.6,0.7-0.9,1.1
			c-0.3,0.3-0.7,0.5-1.1,0.7c-0.3,0.2-0.7,0.3-1.1,0.4c-0.3,0.1-0.7,0.1-1.1,0.1c-0.6,0-1.2-0.1-1.7-0.4s-1-0.6-1.4-1.1
			s-0.7-1-0.9-1.6s-0.3-1.3-0.3-2c0-0.6,0-1.1,0.2-1.7c0.1-0.5,0.3-1.1,0.5-1.6s0.5-1,0.8-1.4s0.7-0.8,1.2-1.1
			c0.4-0.3,0.9-0.6,1.4-0.8c0.5-0.2,1.1-0.3,1.7-0.3c0.4,0,0.7,0,1.1,0.1c0.3,0.1,0.6,0.2,0.9,0.4c0.2,0.2,0.5,0.4,0.6,0.7
			c0.1,0.3,0.2,0.6,0.2,1c0,0.5-0.2,1-0.5,1.4c-0.4,0.4-0.9,0.8-1.5,1c-0.7,0.3-1.4,0.5-2.2,0.7c-0.9,0.2-1.8,0.3-2.7,0.4v0.1
			c0,0.6,0.1,1.2,0.2,1.9c0.1,0.5,0.4,1,0.7,1.4s0.6,0.7,1.1,0.9c0.4,0.2,0.8,0.3,1.3,0.3s1-0.1,1.5-0.3
			C189.7,413.6,190.2,413.2,190.6,412.8z M189.1,406.5c0-0.2,0-0.4-0.1-0.7c0-0.2-0.2-0.4-0.3-0.5s-0.3-0.3-0.5-0.4
			s-0.4-0.1-0.6-0.1c-0.3,0-0.6,0-0.9,0.2c-0.3,0.1-0.5,0.3-0.7,0.5s-0.4,0.4-0.6,0.7c-0.1,0.3-0.3,0.6-0.4,0.9
			c-0.1,0.3-0.2,0.6-0.3,1c0,0.3-0.1,0.6-0.1,1c0.7,0,1.3-0.1,2-0.3c0.5-0.1,1-0.2,1.5-0.5c0.3-0.1,0.7-0.4,0.9-0.7
			C189,407.2,189.1,406.8,189.1,406.5L189.1,406.5z"/>
		<path class="st1" d="M194,406.2c0-0.2,0-0.3,0-0.5c0-0.1-0.1-0.2-0.1-0.3c0-0.1-0.1-0.1-0.2-0.2c-0.1,0-0.2,0-0.3,0
			c-0.2,0-0.4,0-0.7,0.1c-0.2,0-0.5,0.1-0.9,0.2l-0.1-0.6c0.4-0.1,0.7-0.2,1.1-0.3c0.3-0.1,0.7-0.2,0.9-0.3c0.2-0.1,0.5-0.1,0.8-0.2
			c0.1,0,0.3,0,0.5,0s0.5,0.1,0.7,0.3c0.2,0.2,0.3,0.6,0.2,0.9c0,0,0,0.2,0,0.4c0,0.2,0,0.4,0,0.7s0,0.6,0,1s0,0.8-0.1,1.2
			s0,0.9-0.1,1.3c0,0.4-0.1,0.9-0.1,1.4l0,0c0.3-1.2,0.8-2.3,1.3-3.4c0.4-0.8,0.8-1.6,1.4-2.2c0.4-0.5,0.9-0.9,1.4-1.3
			c0.4-0.2,0.9-0.4,1.3-0.4c0.3,0,0.6,0,0.8,0.1c0.3,0.1,0.5,0.3,0.7,0.5c0.2,0.3,0.4,0.6,0.5,0.9c0.1,0.4,0.2,0.9,0.2,1.4
			c0,0.1,0,0.4,0,0.6s0,0.5,0,0.9c0,0.3,0,0.7-0.1,1c0,0.3,0,0.7-0.1,1.1s0,0.7,0,1s0,0.6,0,0.8c0,0.3,0,0.6,0,1
			c0,0.2,0.1,0.4,0.1,0.6c0,0.1,0.2,0.2,0.3,0.3c0.1,0,0.3,0.1,0.5,0.1c0.3,0,0.6,0,0.8-0.1c0.3-0.1,0.6-0.2,0.9-0.3l0.1,0.4
			c-0.2,0.2-0.4,0.3-0.7,0.5c-0.3,0.1-0.6,0.3-0.9,0.4c-0.3,0.1-0.6,0.2-0.9,0.3c-0.3,0.1-0.5,0.1-0.8,0.1c-0.2,0-0.5,0-0.7-0.2
			s-0.3-0.4-0.4-0.6c-0.1-0.3-0.1-0.6-0.1-0.9s0-0.7,0-1.1c0-0.5,0-1,0-1.5s0-1,0.1-1.5c0-0.4,0.1-0.9,0.1-1.3s0-0.7,0-0.9
			c0-0.5-0.1-1-0.3-1.4c-0.2-0.3-0.6-0.4-0.9-0.4c-0.3,0-0.7,0.1-1,0.4c-0.4,0.3-0.7,0.6-1,1.1c-0.4,0.5-0.7,1-1,1.6s-0.6,1.3-0.8,2
			s-0.4,1.5-0.6,2.2c-0.1,0.8-0.2,1.6-0.3,2.3l-1.7,0.2h-0.1c0-0.5,0.1-1,0.1-1.6s0-1.2,0.1-1.8c0-0.6,0-1.2,0.1-1.8s0-1.2,0-1.7
			s0-1,0-1.4C193.7,406.9,194,406.4,194,406.2z"/>
		<path class="st1" d="M209.5,404.2c-0.1,0.6-0.1,1.2-0.2,1.8c-0.1,0.6-0.1,1.2-0.1,1.8s0,1.1-0.1,1.6s0,1,0,1.4c0,0.5,0,1,0,1.4
			s0,0.7,0.1,1c0,0.2,0,0.4,0.1,0.6c0,0.1,0.1,0.2,0.2,0.4c0.1,0.1,0.2,0.1,0.3,0.2c0.1,0,0.2,0,0.4,0c0.3,0,0.5,0,0.8-0.1
			s0.6-0.2,0.9-0.3l0.1,0.4c-0.2,0.2-0.4,0.3-0.7,0.5c-0.3,0.1-0.6,0.3-0.9,0.4c-0.3,0.1-0.6,0.2-0.9,0.3c-0.2,0-0.5,0.1-0.8,0.1
			c-0.1,0-0.2,0-0.4,0c-0.1,0-0.2-0.1-0.3-0.2s-0.2-0.2-0.2-0.4c-0.1-0.2-0.1-0.5-0.2-0.7c0-0.4-0.1-0.8-0.1-1.2c0-0.5,0-1,0-1.7
			c0-0.4,0-0.8,0-1.3s0-1,0-1.6s0-1.2,0-1.8c0-0.6,0-1.3,0.1-2c0-0.1,0-0.2,0.1-0.3c0-0.1,0.1-0.1,0.2-0.2c0.1,0,0.2-0.1,0.3-0.1
			s0.2,0,0.3,0C208.8,403.9,209.2,404,209.5,404.2z M208.8,400.6c-0.1,0-0.3,0-0.5-0.1c-0.1,0-0.2-0.2-0.3-0.3
			c-0.1-0.1-0.2-0.3-0.2-0.4s-0.1-0.3-0.1-0.5s0-0.4,0.1-0.6c0-0.1,0.2-0.3,0.3-0.4s0.2-0.2,0.4-0.3c0.1,0,0.3-0.1,0.4-0.1
			c0.1,0,0.3,0,0.5,0.1c0.1,0,0.2,0.1,0.4,0.3c0.1,0.1,0.2,0.2,0.2,0.4c0,0.1,0.1,0.3,0.1,0.5s0,0.4-0.1,0.5c0,0.2-0.1,0.3-0.2,0.5
			c-0.1,0.1-0.2,0.2-0.4,0.3C209.2,400.5,209,400.6,208.8,400.6L208.8,400.6z"/>
		<path class="st1" d="M216.7,398.2c-0.2,1-0.4,2-0.5,3.1s-0.3,2.1-0.4,3.1h0.7h0.6h0.5h0.4c0.4,0,0.8,0,1.2-0.1c0,0.1,0,0.2,0,0.2
			s0,0.1,0,0.2c0,0.2-0.1,0.4-0.3,0.4c-0.3,0.1-0.5,0.1-0.8,0.1c-0.4,0-0.8,0-1.2,0s-0.9-0.1-1.4-0.1c0,0.5-0.1,1.1-0.1,1.7
			c0,0.5,0,1-0.1,1.5c0,0.5,0,0.9,0,1.3s0,0.7,0,1.1c0,0.5,0,1,0.1,1.5c0,0.4,0.1,0.8,0.3,1.1c0.1,0.3,0.3,0.5,0.6,0.7
			s0.6,0.2,1,0.2s0.6,0,0.9-0.1c0.4-0.1,0.8-0.3,1.2-0.5c0.1,0.1,0.2,0.3,0.2,0.5c-0.3,0.2-0.6,0.4-1,0.6c-0.3,0.1-0.6,0.3-1,0.4
			c-0.3,0.1-0.6,0.2-0.9,0.3c-0.3,0-0.6,0.1-0.8,0.1c-0.3,0-0.7,0-1-0.2c-0.3-0.1-0.6-0.4-0.7-0.7c-0.2-0.4-0.4-0.9-0.5-1.3
			c-0.1-0.7-0.2-1.4-0.2-2.1c0-0.5,0-1,0-1.5s0-1,0-1.5s0-1,0.1-1.6s0.1-1,0.1-1.5c-0.4,0-0.8,0-1.2,0c-0.3,0-0.6,0-0.9,0.1v-0.1
			c0-0.1,0-0.2,0.1-0.3c0.1-0.1,0.3-0.2,0.4-0.2c0.2-0.1,0.4-0.1,0.7-0.2c0.3,0,0.6-0.1,0.9-0.1c0.1-1.1,0.2-2.2,0.4-3.1
			c0.1-1,0.3-1.9,0.4-2.6c0-0.1,0-0.2,0.1-0.3c0-0.1,0.1-0.1,0.2-0.2c0.1,0,0.2-0.1,0.3-0.1s0.2,0,0.3,0s0.3,0,0.5,0
			C216.4,398,216.6,398.1,216.7,398.2z"/>
		<path class="st1" d="M222.2,404.2c0.1,0.2,0.2,0.4,0.3,0.7c0.1,0.3,0.2,0.6,0.3,0.9s0.2,0.7,0.4,1.1c0.1,0.4,0.2,0.7,0.3,1.1
			l0.3,1.1c0.1,0.4,0.2,0.8,0.4,1.3c0.1,0.4,0.2,0.9,0.4,1.3c0.1,0.4,0.2,0.9,0.3,1.2c0.2-0.7,0.5-1.4,0.8-2.2
			c0.3-0.7,0.5-1.5,0.8-2.2s0.6-1.5,0.9-2.2c0.3-0.7,0.6-1.4,0.8-2.1c0-0.1,0.1-0.2,0.2-0.3c0.1,0,0.2-0.1,0.3-0.2
			c0.1,0,0.2-0.1,0.3-0.1c0.3,0,0.5,0,0.8,0c0.1,0,0.3,0.1,0.5,0.2c-0.2,0.4-0.5,0.8-0.7,1.3s-0.5,1-0.8,1.5s-0.5,1.1-0.8,1.7
			c-0.2,0.6-0.5,1.2-0.8,1.8s-0.5,1.2-0.8,1.8c-0.2,0.6-0.5,1.2-0.7,1.8c-0.2,0.6-0.5,1.2-0.7,1.8c-0.2,0.6-0.4,1.1-0.6,1.7
			c-0.2,0.6-0.4,1.1-0.6,1.6c-0.2,0.5-0.4,1-0.6,1.4c-0.2,0.4-0.4,0.7-0.6,1.1c-0.2,0.3-0.4,0.6-0.7,0.9c-0.2,0.2-0.6,0.4-0.9,0.6
			c-0.3,0.1-0.7,0.2-1.1,0.2c-0.2,0-0.4,0-0.7-0.1c-0.2,0-0.3-0.1-0.5-0.2c-0.1-0.1-0.2-0.2-0.3-0.4c0-0.1-0.1-0.3-0.1-0.4
			c0-0.2,0-0.4,0.1-0.5c0.1-0.2,0.2-0.3,0.4-0.4c0.4,0.2,0.8,0.4,1.3,0.4c0.4,0,0.8-0.1,1.1-0.3c0.4-0.3,0.7-0.6,0.9-1
			c0.3-0.5,0.6-1.1,0.9-1.8c0.3-0.7,0.6-1.5,1-2.4l0.1-0.4h-0.3c-0.2-1-0.5-2.1-0.8-3c-0.3-1-0.6-2-0.9-2.9
			c-0.2-0.8-0.5-1.6-0.8-2.3c-0.2-0.7-0.5-1.5-0.8-2.2c0-0.1,0-0.1,0-0.2s0-0.1,0-0.1c0-0.1,0-0.3,0.2-0.4s0.4-0.2,0.6-0.1
			c0.1,0,0.3,0,0.5,0C221.8,404.1,222,404.1,222.2,404.2z"/>
	</g>
</g>
<text transform="matrix(1 0 0 1 20.4727 46.2031)" class="st1 st3 st4">Welcome to</text>
</svg>
