<svg xmlns="http://www.w3.org/2000/svg" viewBox="0 0 500 500"><defs><style>.cls-1{fill:#4d4199;}.cls-2{fill:#f7931e;}.cls-3{fill:none;stroke:#f7931e;stroke-linecap:round;stroke-width:3px;}</style></defs><title>Weser_UiUx</title><g id="Layer_1" data-name="Layer 1"><polygon class="cls-1" points="186.56 313.04 186.56 178.13 251.07 137.69 250.78 26.99 90.39 125.95 91.87 348.36 257.07 441.61 257.07 405.36 123.44 328.78 123.44 142.96 219.51 83.67 219.41 120.59 154.57 160.6 155.43 295.64 186.56 313.04"/><polygon class="cls-1" points="328.43 313.04 328.43 178.13 263.92 137.69 263.92 28.2 424.61 125.95 423.12 348.36 257.07 441.61 257.07 405.36 391.56 328.78 391.56 142.96 295.48 83.67 295.58 120.59 360.42 160.6 359.56 295.64 328.43 313.04"/><circle class="cls-2" cx="257.5" cy="238.46" r="15.38"/><path id="progress" class="cls-3" d="M225.4,283.7a34.48,34.48,0,0,1,64.33-.33"/><path id="progress-2" data-name="progress" class="cls-3" d="M234.24,289.7a25.07,25.07,0,0,1,46.76-.24"/><path id="progress-3" data-name="progress" class="cls-3" d="M247,293.66a11.21,11.21,0,0,1,20.93-.11"/><path class="cls-3" d="M238.49,255.69c-3.73-4.46-6.73-11-6.73-17.23a25.74,25.74,0,0,1,51.47,0c0,7.38-2,12.91-7,17.6"/><path class="cls-3" d="M225.93,265.55a39.65,39.65,0,0,1-10-27.09,41.56,41.56,0,0,1,83.11,0c0,11-2.59,19.3-9.55,26.73"/><path class="cls-3" d="M216.91,277.51a56.33,56.33,0,1,1,80.49.69"/></g></svg>