<svg xmlns="http://www.w3.org/2000/svg" viewBox="0 0 500 500"><defs><style>.cls-1{fill:#fff;}.cls-2{fill:#f7931e;}</style></defs><title>Weser_UiUx</title><g id="Layer_1" data-name="Layer 1"><path class="cls-1" d="M63.64,327.61l-.45-.23-.68.23L26.75,348.3v-175H52.39V305.57L63,299.49l.23-.22v.22l10.57,6.08V173.32H99.4v175Z"/><path class="cls-1" d="M187.56,173.32v54.2H161.92V199H140.56V234.5l26.09,15.06v27.89l-26.09-15.07v60.28h21.36V288l25.64,14.62V348.3H114.92V251.59h6.74l-6.74-3.83-6.53-3.82V216.05l6.53,3.6V173.32h72.64Z"/><path class="cls-1" d="M273.7,173.32V228H248.06V199H226.7v35.31l47,27.21V348.3H201.06V279.7H226.7v43h21.36V279.25h7.88l-.46-.22-7.42-4.28-47-27.21V173.32H273.7Z"/><path class="cls-1" d="M361.87,173.32v54.2H336.23V199H314.86V234.5L341,249.56v27.89l-26.09-15.07v60.28h21.37V288l25.64,14.62V348.3H289.22V251.59H296l-6.75-3.83-6.52-3.82V216.05l6.52,3.6V173.32h72.65Z"/><path class="cls-1" d="M422.37,173.32H448v72.87l-12.37,7,12.37,7.2V348.3H422.37V279.25h7.87l-.45-.22-7.42-4.28L401,262.38V348.3H375.36v-175h47Zm0,73.32V199H401v35.31Z"/><path class="cls-2" d="M57.36,418.94l-.34-.05q-.47-3-.93-5.52c-.3-1.71-.61-3.32-.92-4.83s-.6-3-.9-4.32-.58-2.68-.86-4c-.4-1.78-.75-3.43-1.06-4.94s-.64-2.95-1-4.34h-.11c-.43,1.56-.86,3.06-1.3,4.5s-.9,2.87-1.36,4.29-.94,2.83-1.45,4.26-1,2.92-1.59,4.46-1.15,3.14-1.78,4.83-1.3,3.48-2,5.4l-2.77.22-.33-.05Q36.11,406,34.28,398t-2.9-11.2a10.17,10.17,0,0,0-.62-1.48,3.49,3.49,0,0,0-.75-1,2.78,2.78,0,0,0-1-.56,4.83,4.83,0,0,0-1.41-.18,10,10,0,0,0-1.16.08c-.43,0-.9.11-1.41.2l-.18-1.44c1.66-.4,3.05-.72,4.15-.94a14.44,14.44,0,0,1,2.73-.33,3.78,3.78,0,0,1,1.41.23,2.34,2.34,0,0,1,.94.75,5.22,5.22,0,0,1,.68,1.34c.19.55.39,1.21.61,2,.31,1.11.68,2.53,1.12,4.24s.91,3.74,1.44,6.07,1.09,5,1.71,7.92,1.25,6.23,1.91,9.84h.12c.53-1.46,1.09-3,1.66-4.64s1.16-3.31,1.75-5,1.18-3.49,1.77-5.28S48,395,48.56,393.23s1.12-3.56,1.65-5.31,1-3.45,1.51-5.09a.63.63,0,0,1,.38-.42,1.93,1.93,0,0,1,1.31,0c.28,1.07.6,2.35,1,3.82s.72,3.08,1.11,4.8.79,3.54,1.2,5.45.82,3.83,1.23,5.79.79,3.9,1.16,5.83.73,3.78,1,5.54h.08q1.16-2.42,2.31-5c.77-1.73,1.5-3.46,2.21-5.19s1.36-3.43,2-5.11,1.14-3.26,1.58-4.75.8-2.87,1-4.12a17.09,17.09,0,0,0,.38-3.24,9.49,9.49,0,0,0-.14-1.59,7.88,7.88,0,0,0-.41-1.52,5.72,5.72,0,0,0-.7-1.29,3.52,3.52,0,0,0-1-.92l.07-.3.64-.08c.22,0,.43,0,.65,0a6.49,6.49,0,0,1,1.72.22,4.18,4.18,0,0,1,1.45.71,3.4,3.4,0,0,1,1,1.26,4.33,4.33,0,0,1,.37,1.85,11.1,11.1,0,0,1-.29,2.17c-.2.89-.47,1.93-.83,3.1s-.79,2.45-1.3,3.85-1.06,2.89-1.68,4.46-1.29,3.2-2,4.9-1.46,3.43-2.24,5.19-1.58,3.52-2.4,5.3-1.65,3.53-2.49,5.26Z"/><path class="cls-2" d="M88.73,413.34l.25.13a2,2,0,0,1,.28.2,1.61,1.61,0,0,1,.23.22.42.42,0,0,1,.1.24.21.21,0,0,1,0,.12,13.41,13.41,0,0,1-1.94,2.19A12.63,12.63,0,0,1,85.44,418a9.56,9.56,0,0,1-2.28.92,9.12,9.12,0,0,1-2.29.3,7.86,7.86,0,0,1-3.54-.79,8.48,8.48,0,0,1-2.77-2.16A9.88,9.88,0,0,1,72.75,413a11.67,11.67,0,0,1-.66-4,16.18,16.18,0,0,1,.38-3.44,15.89,15.89,0,0,1,2.84-6.2,12.34,12.34,0,0,1,2.35-2.33,11,11,0,0,1,2.88-1.56,10.07,10.07,0,0,1,3.38-.56,8.09,8.09,0,0,1,2.27.32,6.18,6.18,0,0,1,1.89.93,4.66,4.66,0,0,1,1.3,1.49,4.15,4.15,0,0,1,.48,2,4.24,4.24,0,0,1-1.07,2.87,8.54,8.54,0,0,1-3,2.08,20.32,20.32,0,0,1-4.43,1.37,50.52,50.52,0,0,1-5.52.79v.27a12.82,12.82,0,0,0,.52,3.77,9.37,9.37,0,0,0,1.44,2.92A6.78,6.78,0,0,0,80,415.7a5.53,5.53,0,0,0,2.68.68,7,7,0,0,0,3-.72A10.77,10.77,0,0,0,88.73,413.34Zm-3-12.94a3.72,3.72,0,0,0-.25-1.38,3.2,3.2,0,0,0-.69-1.12,3.15,3.15,0,0,0-1.05-.75,3.25,3.25,0,0,0-1.32-.27,4.72,4.72,0,0,0-1.91.37,5.46,5.46,0,0,0-1.53,1,7.57,7.57,0,0,0-1.19,1.48,11.49,11.49,0,0,0-.87,1.8,12.91,12.91,0,0,0-.59,2,15.22,15.22,0,0,0-.32,1.95,28.09,28.09,0,0,0,4.09-.56,13.47,13.47,0,0,0,3.07-1,5.44,5.44,0,0,0,1.9-1.48A3.19,3.19,0,0,0,85.7,400.4Z"/><path class="cls-2" d="M106.19,401.77a5.38,5.38,0,0,0-.42-2.21,4.27,4.27,0,0,0-2.62-2.41,5.39,5.39,0,0,0-1.71-.29,6.68,6.68,0,0,0-1.93.24,3.43,3.43,0,0,0-1.28.66,2.37,2.37,0,0,0-.71,1A3.32,3.32,0,0,0,97.3,400a4.51,4.51,0,0,0,.28,1.56,6.14,6.14,0,0,0,.83,1.52l-.06.18a4.16,4.16,0,0,1-1.85.45,3.13,3.13,0,0,1-1-.17,2.42,2.42,0,0,1-.82-.49,2.49,2.49,0,0,1-.55-.79,2.69,2.69,0,0,1-.2-1.05,3.75,3.75,0,0,1,.46-1.79,6.22,6.22,0,0,1,1.22-1.53,9.26,9.26,0,0,1,1.75-1.24,15.08,15.08,0,0,1,2.06-.92,13.86,13.86,0,0,1,2.14-.58,10.32,10.32,0,0,1,2-.2,8.24,8.24,0,0,1,2.89.45,4.77,4.77,0,0,1,2,1.31,5.28,5.28,0,0,1,1.09,2.09,10.18,10.18,0,0,1,.35,2.77c0,.7,0,1.48-.09,2.33s-.13,1.74-.2,2.67-.14,1.88-.2,2.87-.09,2-.09,2.95a5.89,5.89,0,0,0,.86,3.49,2.68,2.68,0,0,0,2.26,1.16,5.5,5.5,0,0,0,2.77-.91l.47.69a7.64,7.64,0,0,1-2.35,1.64,6.47,6.47,0,0,1-2.67.57,5.11,5.11,0,0,1-1.94-.36,4.27,4.27,0,0,1-1.53-1,4.9,4.9,0,0,1-1-1.77,8,8,0,0,1-.35-2.46q0-.42,0-.84a7.19,7.19,0,0,1,.1-.88h-.1a23.94,23.94,0,0,1-1.6,2.73,15.72,15.72,0,0,1-2,2.4,9.8,9.8,0,0,1-2.32,1.7,5.37,5.37,0,0,1-2.58.65,5.14,5.14,0,0,1-2-.38,4.68,4.68,0,0,1-1.57-1.06,5,5,0,0,1-1-1.61,5.5,5.5,0,0,1-.36-2,6.23,6.23,0,0,1,.53-2.58,6.69,6.69,0,0,1,1.45-2.07,8.75,8.75,0,0,1,2.21-1.59,14.85,14.85,0,0,1,2.8-1.11,19.82,19.82,0,0,1,3.21-.66,25.93,25.93,0,0,1,3.44-.22c.08-.68.14-1.33.19-2S106.19,402.53,106.19,401.77ZM96.3,412.84a5.19,5.19,0,0,0,.14,1.2,3.12,3.12,0,0,0,.43,1,2.28,2.28,0,0,0,.76.69,2.35,2.35,0,0,0,1.1.25,3.79,3.79,0,0,0,1.5-.34,7,7,0,0,0,1.52-.93,10.21,10.21,0,0,0,1.44-1.43,12.24,12.24,0,0,0,1.23-1.81,12.74,12.74,0,0,0,.91-2.07,10.07,10.07,0,0,0,.47-2.23c-.79,0-1.58.07-2.36.15a16.44,16.44,0,0,0-2.23.38,10.27,10.27,0,0,0-2,.68,5.52,5.52,0,0,0-1.55,1,4.6,4.6,0,0,0-1,1.47A4.79,4.79,0,0,0,96.3,412.84Z"/><path class="cls-2" d="M118.75,418.75l-.25,0q.12-1.53.24-3.33c.07-1.2.14-2.43.21-3.67s.12-2.47.17-3.68.09-2.36.13-3.42.06-2,.08-2.84,0-1.5,0-2a10,10,0,0,0,0-1,1.85,1.85,0,0,0-.21-.73,1.11,1.11,0,0,0-.5-.43,2.28,2.28,0,0,0-.87-.13l-.56,0a6,6,0,0,0-.64.1c-.24,0-.51.1-.8.17s-.64.15-1,.24l-.25-1.15a43.13,43.13,0,0,1,4.34-1.37,12.08,12.08,0,0,1,2.24-.39,1.79,1.79,0,0,1,1.52.62,3.12,3.12,0,0,1,.46,1.84c0,.08,0,.3,0,.66s0,.84-.08,1.43-.09,1.26-.14,2-.12,1.6-.19,2.49-.14,1.81-.23,2.77l-.27,2.87.16,0A58,58,0,0,1,124,404a25.55,25.55,0,0,1,2.19-4.74,11.59,11.59,0,0,1,2.67-3.17,5,5,0,0,1,3.2-1.15,3.25,3.25,0,0,1,1.14.19,2.9,2.9,0,0,1,.92.54,2.59,2.59,0,0,1,.61.82,2.43,2.43,0,0,1,.23,1,3.17,3.17,0,0,1-1.31,2.58h-.13a4.65,4.65,0,0,0-1.28-.81,3.25,3.25,0,0,0-1.28-.25,3.75,3.75,0,0,0-1.4.27,4.21,4.21,0,0,0-1.24.79,9.4,9.4,0,0,0-1.71,2.21,24.2,24.2,0,0,0-1.44,3.06c-.43,1.11-.83,2.29-1.17,3.52s-.65,2.42-.91,3.59-.45,2.26-.61,3.28-.26,1.89-.33,2.59Z"/><path class="cls-2" d="M148.44,401.77a5.38,5.38,0,0,0-.42-2.21,4.47,4.47,0,0,0-1.09-1.53,4.59,4.59,0,0,0-1.53-.88,5.39,5.39,0,0,0-1.71-.29,6.68,6.68,0,0,0-1.93.24,3.43,3.43,0,0,0-1.28.66,2.37,2.37,0,0,0-.71,1,3.32,3.32,0,0,0-.22,1.23,4.51,4.51,0,0,0,.28,1.56,6.14,6.14,0,0,0,.83,1.52l-.06.18a4.21,4.21,0,0,1-1.86.45,3.12,3.12,0,0,1-1-.17,2.33,2.33,0,0,1-.82-.49,2.49,2.49,0,0,1-.55-.79,2.69,2.69,0,0,1-.2-1.05,3.64,3.64,0,0,1,.46-1.79,6.22,6.22,0,0,1,1.22-1.53,9,9,0,0,1,1.75-1.24,14.55,14.55,0,0,1,2.06-.92,13.86,13.86,0,0,1,2.14-.58,10.24,10.24,0,0,1,2-.2,8.28,8.28,0,0,1,2.89.45,4.77,4.77,0,0,1,2,1.31,5.28,5.28,0,0,1,1.09,2.09,10.18,10.18,0,0,1,.35,2.77c0,.7,0,1.48-.09,2.33s-.13,1.74-.2,2.67-.14,1.88-.2,2.87-.09,2-.09,2.95a5.81,5.81,0,0,0,.86,3.49,2.67,2.67,0,0,0,2.26,1.16,5.5,5.5,0,0,0,2.77-.91l.47.69a7.64,7.64,0,0,1-2.35,1.64,6.48,6.48,0,0,1-2.68.57,5.1,5.1,0,0,1-1.93-.36,4.27,4.27,0,0,1-1.53-1,4.9,4.9,0,0,1-1-1.77,8,8,0,0,1-.35-2.46c0-.28,0-.56,0-.84a7.29,7.29,0,0,1,.11-.88H148a23.94,23.94,0,0,1-1.6,2.73,15.72,15.72,0,0,1-2,2.4,10,10,0,0,1-2.32,1.7,5.37,5.37,0,0,1-2.58.65,5.14,5.14,0,0,1-2-.38,4.68,4.68,0,0,1-1.57-1.06,4.8,4.8,0,0,1-1-1.61,5.5,5.5,0,0,1-.36-2,6.23,6.23,0,0,1,.52-2.58,7,7,0,0,1,1.45-2.07,9,9,0,0,1,2.22-1.59,14.85,14.85,0,0,1,2.8-1.11,19.82,19.82,0,0,1,3.21-.66,25.93,25.93,0,0,1,3.44-.22c.08-.68.14-1.33.19-2S148.44,402.53,148.44,401.77Zm-9.89,11.07a5.19,5.19,0,0,0,.14,1.2,2.91,2.91,0,0,0,.43,1,2.19,2.19,0,0,0,.76.69,2.35,2.35,0,0,0,1.1.25,3.83,3.83,0,0,0,1.5-.34,7.23,7.23,0,0,0,1.52-.93,10.21,10.21,0,0,0,1.44-1.43,13.07,13.07,0,0,0,1.23-1.81,12.74,12.74,0,0,0,.91-2.07,10.07,10.07,0,0,0,.47-2.23c-.79,0-1.58.07-2.36.15a16.44,16.44,0,0,0-2.23.38,10.27,10.27,0,0,0-2,.68,5.72,5.72,0,0,0-1.56,1,4.73,4.73,0,0,0-1,1.47A4.79,4.79,0,0,0,138.55,412.84Z"/><path class="cls-2" d="M166.54,375.1c-.2,1.72-.4,3.49-.61,5.31s-.4,3.68-.59,5.54-.37,3.75-.54,5.64-.34,3.76-.49,5.6-.27,3.64-.38,5.41-.19,3.46-.25,5.08l.17,0a38.74,38.74,0,0,1,2.74-5.51,24.64,24.64,0,0,1,3-4,12.37,12.37,0,0,1,3-2.44,5.92,5.92,0,0,1,2.81-.82,4.52,4.52,0,0,1,2,.41,4.89,4.89,0,0,1,1.48,1.1,6,6,0,0,1,1,1.58,10.68,10.68,0,0,1,.68,1.87,12.9,12.9,0,0,1,.36,2,17.8,17.8,0,0,1,.1,1.87,19.93,19.93,0,0,1-.47,4.48,18.06,18.06,0,0,1-1.31,3.8,14.27,14.27,0,0,1-2,3.06,12.45,12.45,0,0,1-2.48,2.25,10.67,10.67,0,0,1-2.81,1.39,9.67,9.67,0,0,1-3,.48,9.18,9.18,0,0,1-2-.23,8.8,8.8,0,0,1-2-.69,8.42,8.42,0,0,1-1.82-1.2,8.54,8.54,0,0,1-1.53-1.73,13.2,13.2,0,0,1-1.14,2.32,12.12,12.12,0,0,1-1.08,1.45l-.84-.21a27.46,27.46,0,0,0,1.31-5.92q.42-3.45.64-7.82c.06-1.25.12-2.66.2-4.25s.17-3.27.25-5,.18-3.56.28-5.4.19-3.63.29-5.37.18-3.39.27-4.95l.24-4.14a1.14,1.14,0,0,1,.24-.67,1.84,1.84,0,0,1,.57-.45,3.23,3.23,0,0,1,.76-.25,5,5,0,0,1,.85-.08A4.71,4.71,0,0,1,166.54,375.1Zm10.55,30.2a16.13,16.13,0,0,0-.16-2.26,9.77,9.77,0,0,0-.54-2.1,4.43,4.43,0,0,0-.95-1.54,1.88,1.88,0,0,0-1.42-.61,4.29,4.29,0,0,0-1.94.49,8.59,8.59,0,0,0-1.86,1.32,16.18,16.18,0,0,0-1.71,1.92c-.55.73-1.06,1.49-1.54,2.28a25.54,25.54,0,0,0-1.29,2.41c-.38.81-.71,1.58-1,2.31a19.52,19.52,0,0,0-.64,2,3.17,3.17,0,0,0,.53,3.24,5.4,5.4,0,0,0,1.22,1.38,5.54,5.54,0,0,0,1.6.88,5.67,5.67,0,0,0,1.86.3,6,6,0,0,0,3-.81,7.62,7.62,0,0,0,2.49-2.36,12.42,12.42,0,0,0,1.68-3.78A18.6,18.6,0,0,0,177.09,405.3Z"/><path class="cls-2" d="M192.8,375.1c-.22,1.82-.43,3.7-.64,5.61s-.41,3.86-.59,5.82-.37,3.92-.53,5.9-.3,3.92-.42,5.84-.21,3.8-.27,5.64-.1,3.62-.1,5.32c0,1.06,0,2,0,2.74s.07,1.4.13,1.93a7,7,0,0,0,.24,1.27,2.21,2.21,0,0,0,.38.74,1.08,1.08,0,0,0,.53.35,2.65,2.65,0,0,0,.73.09,6.53,6.53,0,0,0,1.67-.24,10.68,10.68,0,0,0,1.81-.65l.3.84a9.86,9.86,0,0,1-1.45.95,19.78,19.78,0,0,1-1.85.89,17,17,0,0,1-1.89.65,6.6,6.6,0,0,1-1.6.25,2.06,2.06,0,0,1-1.38-.44,2.8,2.8,0,0,1-.77-1.45,12.47,12.47,0,0,1-.34-2.6c-.05-1.07-.07-2.37-.07-3.9,0-.56,0-1.36,0-2.4s.08-2.24.14-3.61.13-2.88.2-4.51.16-3.32.24-5.07.18-3.5.28-5.28.19-3.5.29-5.15.19-3.23.27-4.7l.24-3.9a1.2,1.2,0,0,1,.23-.67,1.71,1.71,0,0,1,.54-.45,3.22,3.22,0,0,1,.74-.25,4.58,4.58,0,0,1,.83-.08A4.74,4.74,0,0,1,192.8,375.1Z"/><path class="cls-2" d="M214,413.34l.25.13a2.83,2.83,0,0,1,.28.2,1.52,1.52,0,0,1,.22.22.36.36,0,0,1,.1.24.21.21,0,0,1,0,.12,13.41,13.41,0,0,1-1.94,2.19,11.9,11.9,0,0,1-2.16,1.54,9.24,9.24,0,0,1-2.28.92,9,9,0,0,1-2.28.3,7.93,7.93,0,0,1-3.55-.79,8.69,8.69,0,0,1-2.77-2.16A10.26,10.26,0,0,1,198,413a11.92,11.92,0,0,1-.65-4,15.56,15.56,0,0,1,.38-3.44,15.88,15.88,0,0,1,1.09-3.29,15.29,15.29,0,0,1,1.75-2.91,12.59,12.59,0,0,1,2.34-2.33,11.05,11.05,0,0,1,2.89-1.56,10,10,0,0,1,3.37-.56,8,8,0,0,1,2.27.32,6.35,6.35,0,0,1,1.9.93,4.51,4.51,0,0,1,1.29,1.49,4.15,4.15,0,0,1,.48,2,4.19,4.19,0,0,1-1.07,2.87,8.49,8.49,0,0,1-3,2.08,20.59,20.59,0,0,1-4.44,1.37,49.82,49.82,0,0,1-5.52.79v.27a12.82,12.82,0,0,0,.53,3.77,9.37,9.37,0,0,0,1.44,2.92,6.68,6.68,0,0,0,2.16,1.89,5.46,5.46,0,0,0,2.67.68,6.89,6.89,0,0,0,3-.72A10.67,10.67,0,0,0,214,413.34Zm-3-12.94a3.72,3.72,0,0,0-.25-1.38,3.52,3.52,0,0,0-.69-1.12,3.19,3.19,0,0,0-1.06-.75,3.25,3.25,0,0,0-1.32-.27,4.67,4.67,0,0,0-1.9.37,5.19,5.19,0,0,0-1.53,1,7.22,7.22,0,0,0-1.19,1.48,10.71,10.71,0,0,0-.88,1.8,14.18,14.18,0,0,0-.59,2,15.22,15.22,0,0,0-.32,1.95,28.43,28.43,0,0,0,4.1-.56,13.21,13.21,0,0,0,3.06-1,5.49,5.49,0,0,0,1.91-1.48A3.19,3.19,0,0,0,211,400.4Z"/><path class="cls-2" d="M237.22,396.23l1.56,0,1.4,0,1.17,0h.9c.49,0,1,0,1.4-.05l1.12-.1a3.67,3.67,0,0,1,.18,1,.89.89,0,0,1-.59.93,4.91,4.91,0,0,1-1.7.23c-.74,0-1.56,0-2.48-.12l-3-.24c0,1.28-.09,2.67-.16,4.18s-.15,3.06-.25,4.67-.23,3.24-.38,4.9-.33,3.28-.55,4.86-.48,3.08-.78,4.52A33.1,33.1,0,0,1,234,425a21.29,21.29,0,0,1-2.14,4.6,12.87,12.87,0,0,1-2.54,3,8.52,8.52,0,0,1-2.79,1.6,9.39,9.39,0,0,1-5.17.2,6.72,6.72,0,0,1-1.82-.74,4.07,4.07,0,0,1-1.22-1.09,2.17,2.17,0,0,1-.44-1.31,2,2,0,0,1,.17-.77,2.14,2.14,0,0,1,.5-.66,2.25,2.25,0,0,1,.74-.48,2.33,2.33,0,0,1,.92-.19,7,7,0,0,0,1,1.43,6.06,6.06,0,0,0,1.21,1,5.34,5.34,0,0,0,1.34.55,5.54,5.54,0,0,0,1.4.18,4.49,4.49,0,0,0,3.15-1.2,9.15,9.15,0,0,0,2.17-3.4,24.56,24.56,0,0,0,1.38-5.31q.5-3.1.77-6.91c.17-2.54.29-5.29.35-8.23s.1-6,.12-9.27c-1,0-1.94,0-2.8.11a7.65,7.65,0,0,0-2.16.42.82.82,0,0,1-.07-.31,1,1,0,0,1,.37-.72,3.47,3.47,0,0,1,1-.58,9.12,9.12,0,0,1,1.61-.42,15.87,15.87,0,0,1,2.09-.21c0-1,.1-2,.16-2.89s.15-1.83.25-2.72.23-1.8.38-2.7.34-1.84.56-2.81a18,18,0,0,1,1.13-3.39,14.9,14.9,0,0,1,1.57-2.67,11.37,11.37,0,0,1,1.9-2,11.16,11.16,0,0,1,2.1-1.38,9.77,9.77,0,0,1,4.37-1,8.79,8.79,0,0,1,2.78.41,6.58,6.58,0,0,1,2.06,1.08,4.93,4.93,0,0,1,1.29,1.51,3.62,3.62,0,0,1,.44,1.7,3.07,3.07,0,0,1-.22,1.21,2.52,2.52,0,0,1-.59.89,2.64,2.64,0,0,1-.88.56,2.89,2.89,0,0,1-1.06.19,3.77,3.77,0,0,1-1.57-.37l-.06-.17a11.93,11.93,0,0,0,.46-1.24,4.06,4.06,0,0,0,.15-1.1,2.64,2.64,0,0,0-.31-1.33,2.87,2.87,0,0,0-.82-.91,3.51,3.51,0,0,0-1.13-.51,4.86,4.86,0,0,0-1.23-.17,5.52,5.52,0,0,0-3.06.81,6.57,6.57,0,0,0-2.07,2.21,12.71,12.71,0,0,0-1.32,3.32,32.28,32.28,0,0,0-.73,4.12c-.17,1.47-.28,3-.35,4.61S237.27,394.63,237.22,396.23Z"/><path class="cls-2" d="M244.34,409.07a16.22,16.22,0,0,1,.34-3.3,16.74,16.74,0,0,1,1-3.25,15.4,15.4,0,0,1,1.63-2.95,12,12,0,0,1,2.25-2.41,10.57,10.57,0,0,1,2.83-1.62,9.42,9.42,0,0,1,3.4-.6,7.46,7.46,0,0,1,3.65.87,8.34,8.34,0,0,1,2.67,2.3,10.5,10.5,0,0,1,1.63,3.24,12.76,12.76,0,0,1,.56,3.72,17.14,17.14,0,0,1-.34,3.31,16.89,16.89,0,0,1-1,3.24,15.44,15.44,0,0,1-1.64,2.95,12,12,0,0,1-2.25,2.41,10.31,10.31,0,0,1-2.83,1.62,9.42,9.42,0,0,1-3.4.6,7.46,7.46,0,0,1-3.65-.87,8.3,8.3,0,0,1-2.66-2.3,10.48,10.48,0,0,1-1.62-3.24A12.66,12.66,0,0,1,244.34,409.07Zm3.85-1.53a15.3,15.3,0,0,0,.17,2.22,12.72,12.72,0,0,0,.52,2.17,10.91,10.91,0,0,0,.88,2,6.78,6.78,0,0,0,1.24,1.59,5.69,5.69,0,0,0,1.61,1.06,4.88,4.88,0,0,0,2,.39,4.07,4.07,0,0,0,2.07-.51,5.23,5.23,0,0,0,1.55-1.34,7.77,7.77,0,0,0,1.08-1.92,15.15,15.15,0,0,0,.68-2.23,18.64,18.64,0,0,0,.37-2.28c.07-.75.1-1.44.1-2.08a15.33,15.33,0,0,0-.17-2.23,12.61,12.61,0,0,0-.52-2.16,11.48,11.48,0,0,0-.88-1.95,6.94,6.94,0,0,0-1.24-1.58,5.73,5.73,0,0,0-1.61-1,4.88,4.88,0,0,0-2-.39,4.17,4.17,0,0,0-2.07.5,5.21,5.21,0,0,0-1.55,1.34,8.1,8.1,0,0,0-1.08,1.92,15.39,15.39,0,0,0-.68,2.22,18,18,0,0,0-.37,2.28C248.22,406.23,248.19,406.92,248.19,407.54Z"/><path class="cls-2" d="M270.35,418.75l-.26,0c.09-1,.17-2.13.25-3.33s.14-2.43.21-3.67.12-2.47.17-3.68.09-2.36.12-3.42.07-2,.08-2.84,0-1.5,0-2a10,10,0,0,0-.05-1,1.7,1.7,0,0,0-.22-.73,1,1,0,0,0-.49-.43,2.28,2.28,0,0,0-.87-.13l-.56,0a6.11,6.11,0,0,0-.65.1l-.79.17-1,.24-.24-1.15a43.08,43.08,0,0,1,4.33-1.37,12.35,12.35,0,0,1,2.24-.39,1.8,1.8,0,0,1,1.53.62,3.12,3.12,0,0,1,.45,1.84q0,.12,0,.66c0,.37-.05.84-.09,1.43s-.08,1.26-.13,2-.12,1.6-.19,2.49S274,406,273.93,407s-.18,1.92-.28,2.87l.17,0a58.09,58.09,0,0,1,1.74-5.89,26.21,26.21,0,0,1,2.19-4.74,11.62,11.62,0,0,1,2.68-3.17,5,5,0,0,1,3.19-1.15,3.34,3.34,0,0,1,1.15.19,2.9,2.9,0,0,1,.92.54,2.74,2.74,0,0,1,.61.82,2.43,2.43,0,0,1,.22,1,3.13,3.13,0,0,1-1.3,2.58h-.13a4.81,4.81,0,0,0-1.28-.81,3.25,3.25,0,0,0-1.28-.25,3.75,3.75,0,0,0-1.4.27,4.08,4.08,0,0,0-1.24.79,9.4,9.4,0,0,0-1.71,2.21,21.72,21.72,0,0,0-1.44,3.06c-.44,1.11-.83,2.29-1.18,3.52s-.65,2.42-.9,3.59-.46,2.26-.61,3.28-.27,1.89-.33,2.59Z"/><path class="cls-2" d="M300.21,408.86c0,.26,0,.5-.06.74s0,.47,0,.71a8.63,8.63,0,0,0,.5,3.11,5.11,5.11,0,0,0,1.4,2.09,5.38,5.38,0,0,0,2.19,1.17,10.58,10.58,0,0,0,2.87.36,10.37,10.37,0,0,0,3-.44,7.41,7.41,0,0,0,2.52-1.33,6.37,6.37,0,0,0,1.73-2.2,6.8,6.8,0,0,0,.65-3,6.36,6.36,0,0,0-.3-2,6.55,6.55,0,0,0-.82-1.68,7.84,7.84,0,0,0-1.24-1.41,16.12,16.12,0,0,0-1.56-1.21c-.57-.38-1.16-.75-1.79-1.1l-1.9-1.05c-.67-.37-1.35-.74-2-1.13s-1.31-.8-1.92-1.24a15.71,15.71,0,0,1-1.71-1.42,8.91,8.91,0,0,1-1.36-1.7,8.59,8.59,0,0,1-.9-2.07,8.83,8.83,0,0,1-.33-2.49,11.16,11.16,0,0,1,.43-3.18,10.58,10.58,0,0,1,1.22-2.71,10.34,10.34,0,0,1,1.87-2.2,11.41,11.41,0,0,1,2.38-1.63,11.93,11.93,0,0,1,2.77-1,13.19,13.19,0,0,1,3-.34c.47,0,1,0,1.52.08a15.45,15.45,0,0,1,1.61.27,13.66,13.66,0,0,1,1.53.43,6.78,6.78,0,0,1,1.3.57,3.18,3.18,0,0,1,.9.71,1.21,1.21,0,0,1,.34.82c0,.31,0,.7,0,1.17s0,1,0,1.59-.05,1.25-.08,2-.07,1.45-.11,2.23l-1.63-.08c0-.39.05-.76.05-1.11a7.84,7.84,0,0,0-.47-2.81,5.35,5.35,0,0,0-3.42-3.25,8.22,8.22,0,0,0-2.7-.42,7.6,7.6,0,0,0-2.76.5,6.63,6.63,0,0,0-2.21,1.36,6.29,6.29,0,0,0-1.47,2.09,6.61,6.61,0,0,0-.53,2.66,7.12,7.12,0,0,0,.3,2.13,7.23,7.23,0,0,0,.85,1.77,8,8,0,0,0,1.28,1.46,14.64,14.64,0,0,0,1.61,1.25c.58.39,1.19.77,1.84,1.12l1.95,1.06c.67.36,1.35.72,2,1.1a20.68,20.68,0,0,1,1.92,1.2,13.47,13.47,0,0,1,1.7,1.38,9.39,9.39,0,0,1,1.36,1.66,8.17,8.17,0,0,1,1.23,4.44,11.47,11.47,0,0,1-.61,3.91,10,10,0,0,1-1.62,3,10.18,10.18,0,0,1-2.32,2.13,13.56,13.56,0,0,1-2.73,1.4,15.77,15.77,0,0,1-2.84.77,16.8,16.8,0,0,1-2.62.23,19,19,0,0,1-3-.22,14.08,14.08,0,0,1-2.45-.57,6,6,0,0,1-1.66-.81,1.24,1.24,0,0,1-.61-1c0-.72,0-1.75.07-3.09s.13-2.93.24-4.78Z"/><path class="cls-2" d="M338.58,413.34l.25.13a2,2,0,0,1,.28.2,1.61,1.61,0,0,1,.23.22.4.4,0,0,1,.09.24.19.19,0,0,1,0,.12,13.89,13.89,0,0,1-1.94,2.19,12.63,12.63,0,0,1-2.16,1.54,9.56,9.56,0,0,1-2.28.92,9.18,9.18,0,0,1-2.29.3,7.86,7.86,0,0,1-3.54-.79,8.48,8.48,0,0,1-2.77-2.16A9.88,9.88,0,0,1,322.6,413a11.67,11.67,0,0,1-.66-4,16.18,16.18,0,0,1,.38-3.44,15.9,15.9,0,0,1,1.1-3.29,15.25,15.25,0,0,1,1.74-2.91,12.34,12.34,0,0,1,2.35-2.33,10.84,10.84,0,0,1,2.88-1.56,10.07,10.07,0,0,1,3.38-.56,8.09,8.09,0,0,1,2.27.32,6.18,6.18,0,0,1,1.89.93,4.66,4.66,0,0,1,1.3,1.49,4.15,4.15,0,0,1,.48,2,4.24,4.24,0,0,1-1.07,2.87,8.54,8.54,0,0,1-3,2.08,20.32,20.32,0,0,1-4.43,1.37,50.52,50.52,0,0,1-5.52.79v.27a12.82,12.82,0,0,0,.52,3.77,9.37,9.37,0,0,0,1.44,2.92,6.68,6.68,0,0,0,2.16,1.89,5.52,5.52,0,0,0,2.67.68,7,7,0,0,0,3-.72A10.77,10.77,0,0,0,338.58,413.34Zm-3-12.94a3.72,3.72,0,0,0-.25-1.38,3.2,3.2,0,0,0-.69-1.12,3.15,3.15,0,0,0-1.05-.75,3.26,3.26,0,0,0-1.33-.27,4.7,4.7,0,0,0-1.9.37,5.32,5.32,0,0,0-1.53,1,7.57,7.57,0,0,0-1.19,1.48,11.49,11.49,0,0,0-.87,1.8,12.91,12.91,0,0,0-.59,2,17.27,17.27,0,0,0-.33,1.95,28,28,0,0,0,4.1-.56,13.21,13.21,0,0,0,3.06-1,5.4,5.4,0,0,0,1.91-1.48A3.19,3.19,0,0,0,335.55,400.4Z"/><path class="cls-2" d="M345,418.75l-.26,0q.13-1.53.24-3.33c.08-1.2.15-2.43.21-3.67s.12-2.47.17-3.68.09-2.36.13-3.42.06-2,.08-2.84,0-1.5,0-2a10.28,10.28,0,0,0,0-1,2,2,0,0,0-.22-.73,1.09,1.09,0,0,0-.49-.43,2.35,2.35,0,0,0-.87-.13l-.57,0a6,6,0,0,0-.64.1c-.24,0-.5.1-.8.17l-1,.24-.24-1.15a42.29,42.29,0,0,1,4.33-1.37,12.22,12.22,0,0,1,2.24-.39,1.77,1.77,0,0,1,1.52.62,3,3,0,0,1,.46,1.84q0,.12,0,.66c0,.37-.05.84-.09,1.43s-.08,1.26-.14,2-.11,1.6-.18,2.49-.15,1.81-.24,2.77-.17,1.92-.27,2.87l.16,0a60.72,60.72,0,0,1,1.75-5.89,26.21,26.21,0,0,1,2.19-4.74,11.59,11.59,0,0,1,2.67-3.17,5,5,0,0,1,3.2-1.15,3.25,3.25,0,0,1,1.14.19,2.8,2.8,0,0,1,.92.54,2.59,2.59,0,0,1,.61.82,2.43,2.43,0,0,1,.23,1,3.4,3.4,0,0,1-.31,1.4,3.17,3.17,0,0,1-1,1.18h-.12a5,5,0,0,0-1.28-.81,3.3,3.3,0,0,0-1.29-.25,3.75,3.75,0,0,0-1.4.27,4.21,4.21,0,0,0-1.24.79,9.12,9.12,0,0,0-1.7,2.21,22.9,22.9,0,0,0-1.45,3.06c-.43,1.11-.82,2.29-1.17,3.52s-.65,2.42-.9,3.59-.46,2.26-.62,3.28-.26,1.89-.33,2.59Z"/><path class="cls-2" d="M377.72,413.34l.25.13a2,2,0,0,1,.28.2,1.61,1.61,0,0,1,.23.22.4.4,0,0,1,.09.24.19.19,0,0,1,0,.12,13.89,13.89,0,0,1-1.94,2.19,12.63,12.63,0,0,1-2.16,1.54,9.56,9.56,0,0,1-2.28.92,9.18,9.18,0,0,1-2.29.3,7.86,7.86,0,0,1-3.54-.79,8.48,8.48,0,0,1-2.77-2.16,9.88,9.88,0,0,1-1.81-3.21,11.67,11.67,0,0,1-.66-4,16.18,16.18,0,0,1,.38-3.44,15.9,15.9,0,0,1,1.1-3.29,15.25,15.25,0,0,1,1.74-2.91,12.34,12.34,0,0,1,2.35-2.33,10.84,10.84,0,0,1,2.88-1.56,10.05,10.05,0,0,1,3.37-.56,8.1,8.1,0,0,1,2.28.32,6.29,6.29,0,0,1,1.89.93,4.51,4.51,0,0,1,1.29,1.49,4,4,0,0,1,.49,2,4.24,4.24,0,0,1-1.07,2.87,8.54,8.54,0,0,1-3,2.08,20.24,20.24,0,0,1-4.44,1.37,50,50,0,0,1-5.51.79v.27a12.82,12.82,0,0,0,.52,3.77,9.37,9.37,0,0,0,1.44,2.92A6.68,6.68,0,0,0,369,415.7a5.52,5.52,0,0,0,2.67.68,7,7,0,0,0,3-.72A10.77,10.77,0,0,0,377.72,413.34Zm-3-12.94a3.72,3.72,0,0,0-.25-1.38,3.2,3.2,0,0,0-.69-1.12,3.15,3.15,0,0,0-1.05-.75,3.26,3.26,0,0,0-1.33-.27,4.7,4.7,0,0,0-1.9.37,5.19,5.19,0,0,0-1.53,1,7.57,7.57,0,0,0-1.19,1.48,12.5,12.5,0,0,0-.88,1.8,14.14,14.14,0,0,0-.58,2,17.27,17.27,0,0,0-.33,1.95,28,28,0,0,0,4.1-.56,13.21,13.21,0,0,0,3.06-1,5.4,5.4,0,0,0,1.91-1.48A3.19,3.19,0,0,0,374.69,400.4Z"/><path class="cls-2" d="M384.74,399.81a5.78,5.78,0,0,0-.09-1.11,1.93,1.93,0,0,0-.3-.72,1.18,1.18,0,0,0-.51-.38,2,2,0,0,0-.72-.11,7,7,0,0,0-1.39.16c-.54.11-1.15.25-1.83.43l-.25-1.16c.77-.26,1.5-.51,2.2-.73s1.35-.41,1.94-.57,1.11-.29,1.57-.37a5.64,5.64,0,0,1,1.06-.13,1.88,1.88,0,0,1,1.46.56,2.73,2.73,0,0,1,.52,1.9q0,.17,0,.75c0,.39-.05.89-.09,1.49s-.08,1.29-.14,2.07-.11,1.61-.18,2.49-.15,1.79-.24,2.73-.17,1.88-.27,2.81l.1,0a45.11,45.11,0,0,1,2.62-7,25.34,25.34,0,0,1,2.85-4.64,10.21,10.21,0,0,1,2.89-2.56,5.6,5.6,0,0,1,2.73-.79,4.64,4.64,0,0,1,1.74.33,4,4,0,0,1,1.49,1.08,5.44,5.44,0,0,1,1,1.91,9,9,0,0,1,.39,2.83c0,.32,0,.75-.06,1.3s-.08,1.14-.14,1.81-.11,1.37-.18,2.12-.13,1.47-.19,2.19-.1,1.41-.13,2.06-.06,1.21-.06,1.7a15.88,15.88,0,0,0,.11,2,3.85,3.85,0,0,0,.34,1.25,1.28,1.28,0,0,0,.65.63,2.53,2.53,0,0,0,1,.17,6.74,6.74,0,0,0,1.74-.24,10.47,10.47,0,0,0,1.82-.65l.3.84a9.49,9.49,0,0,1-1.46.95,20,20,0,0,1-1.86.89,17,17,0,0,1-1.94.65,7.34,7.34,0,0,1-1.71.25,1.93,1.93,0,0,1-1.37-.47,2.88,2.88,0,0,1-.75-1.27,8.84,8.84,0,0,1-.32-1.89c-.05-.72-.07-1.49-.07-2.32,0-1,0-2,.1-3.11s.15-2.09.24-3.05.16-1.85.23-2.64.1-1.42.1-1.89a4.48,4.48,0,0,0-.7-2.78,2.32,2.32,0,0,0-1.89-.89,3.24,3.24,0,0,0-2,.79,10.48,10.48,0,0,0-2.06,2.16,22.64,22.64,0,0,0-2,3.26,32.14,32.14,0,0,0-1.7,4.06,35.43,35.43,0,0,0-1.26,4.56,32.48,32.48,0,0,0-.63,4.77l-3.36.42-.26,0q.14-1.53.24-3.33c.08-1.2.15-2.43.21-3.67s.12-2.47.17-3.68.09-2.36.13-3.42.06-2,.08-2.84S384.74,400.29,384.74,399.81Z"/><path class="cls-2" d="M416.36,395.67c-.18,1.22-.34,2.45-.47,3.68s-.23,2.42-.31,3.57-.14,2.23-.18,3.26,0,1.95,0,2.78c0,1.11,0,2.07,0,2.87s.09,1.47.17,2a6.78,6.78,0,0,0,.28,1.31,2,2,0,0,0,.42.76,1.17,1.17,0,0,0,.58.35,3.38,3.38,0,0,0,.75.08,6.4,6.4,0,0,0,1.66-.24,10.38,10.38,0,0,0,1.81-.65l.31.84a10,10,0,0,1-1.46.95,19.59,19.59,0,0,1-1.84.89,18.47,18.47,0,0,1-1.89.65,6.67,6.67,0,0,1-1.61.25,5.12,5.12,0,0,1-.82-.07,1.28,1.28,0,0,1-.67-.37,2.49,2.49,0,0,1-.53-.85,7.37,7.37,0,0,1-.38-1.53,23.72,23.72,0,0,1-.24-2.42c-.05-1-.08-2.13-.08-3.51q0-1.2,0-2.73c0-1,0-2.1.07-3.27s.07-2.39.13-3.69.12-2.62.21-4a1.35,1.35,0,0,1,.24-.73,1.53,1.53,0,0,1,.51-.44,2.42,2.42,0,0,1,.66-.21,5,5,0,0,1,.63-.05A4.21,4.21,0,0,1,416.36,395.67Zm-1.4-7.28a2,2,0,0,1-1-.24,2.31,2.31,0,0,1-.74-.61,2.8,2.8,0,0,1-.47-.87,3.44,3.44,0,0,1-.16-1,3.21,3.21,0,0,1,.24-1.28,2.83,2.83,0,0,1,.63-.93,2.5,2.5,0,0,1,.86-.56,2.32,2.32,0,0,1,.91-.19,2.4,2.4,0,0,1,1,.2,2.31,2.31,0,0,1,.75.56,2.45,2.45,0,0,1,.48.81,2.94,2.94,0,0,1,.17,1,3.35,3.35,0,0,1-.2,1.12,3.6,3.6,0,0,1-.53,1,2.88,2.88,0,0,1-.84.72A2.13,2.13,0,0,1,415,388.39Z"/><path class="cls-2" d="M431,383.51c-.45,2-.83,4.14-1.13,6.32s-.57,4.32-.78,6.43l1.47.05,1.34,0,1.12,0h.85a13,13,0,0,0,2.4-.18c.05.19.1.35.13.5a2.18,2.18,0,0,1,.05.42.88.88,0,0,1-.59.92,5.3,5.3,0,0,1-1.7.21,23.44,23.44,0,0,1-2.38-.13c-.87-.09-1.83-.17-2.87-.24q-.18,1.72-.3,3.36c-.08,1.09-.14,2.11-.19,3.08s-.09,1.86-.11,2.69,0,1.55,0,2.16a23.39,23.39,0,0,0,.18,3.07,7.67,7.67,0,0,0,.63,2.3,3.32,3.32,0,0,0,1.24,1.44,3.67,3.67,0,0,0,2,.5,6.89,6.89,0,0,0,1.94-.31,14.25,14.25,0,0,0,2.44-1,1.7,1.7,0,0,1,.5,1.07,23.15,23.15,0,0,1-2,1.2,19.59,19.59,0,0,1-2,.92,12.93,12.93,0,0,1-1.9.6,7.78,7.78,0,0,1-1.74.21,4.72,4.72,0,0,1-2-.4,3.6,3.6,0,0,1-1.55-1.4,8.14,8.14,0,0,1-1-2.71,21.51,21.51,0,0,1-.36-4.32c0-1,0-2,0-3s.08-2.09.13-3.15.13-2.12.21-3.19.19-2.11.29-3.14c-.85,0-1.63.05-2.36.11a11.87,11.87,0,0,0-1.86.28.56.56,0,0,1-.05-.23.84.84,0,0,1,.34-.63,3,3,0,0,1,.91-.54,7.73,7.73,0,0,1,1.41-.41,15.2,15.2,0,0,1,1.81-.22c.24-2.25.51-4.37.78-6.36s.56-3.78.84-5.35a1.68,1.68,0,0,1,.3-.69,1.64,1.64,0,0,1,.51-.44,1.89,1.89,0,0,1,.63-.22,3,3,0,0,1,.66-.07,4.08,4.08,0,0,1,1,.11A3.66,3.66,0,0,1,431,383.51Z"/><path class="cls-2" d="M442.41,395.81c.17.4.36.89.58,1.48s.46,1.22.71,1.92.51,1.43.77,2.21.5,1.54.74,2.3l.67,2.23c.26.84.52,1.72.79,2.64s.51,1.83.76,2.74.46,1.75.63,2.52c.54-1.4,1.09-2.86,1.67-4.36s1.15-3,1.74-4.51,1.19-3,1.78-4.51,1.16-2.92,1.72-4.3a1.64,1.64,0,0,1,.39-.58,2.59,2.59,0,0,1,.56-.37,2.78,2.78,0,0,1,.64-.19,3.45,3.45,0,0,1,1.68.1,6.07,6.07,0,0,1,.95.38c-.48.78-1,1.65-1.51,2.61s-1.05,2-1.6,3.08-1.1,2.23-1.65,3.41-1.1,2.38-1.65,3.61-1.09,2.47-1.62,3.71-1.05,2.46-1.54,3.66-1,2.41-1.43,3.6-.89,2.34-1.32,3.45-.85,2.18-1.27,3.2-.83,2-1.26,2.88A22.09,22.09,0,0,1,443,431a9.73,9.73,0,0,1-1.53,1.85,6.59,6.59,0,0,1-1.84,1.23,5.42,5.42,0,0,1-2.23.46,4.19,4.19,0,0,1-1.37-.21,3,3,0,0,1-1-.54,2.42,2.42,0,0,1-.65-.78,2.11,2.11,0,0,1-.22-.92,2.28,2.28,0,0,1,.31-1.11,2.22,2.22,0,0,1,.83-.86,5,5,0,0,0,2.61.77,4,4,0,0,0,2.34-.7,7.45,7.45,0,0,0,1.91-2.15,24.6,24.6,0,0,0,1.82-3.58c.6-1.43,1.28-3.12,2-5.05l.32-.85-.63-.08q-.82-3.22-1.74-6.24t-1.9-6q-.78-2.42-1.62-4.7t-1.65-4.37c-.07-.18-.12-.32-.15-.43a1.06,1.06,0,0,1,0-.29,1,1,0,0,1,.38-.81,2,2,0,0,1,1.29-.33,5.7,5.7,0,0,1,.95.09A5.79,5.79,0,0,1,442.41,395.81Z"/></g></svg>