<svg xmlns="http://www.w3.org/2000/svg" viewBox="0 0 500 500"><defs><style>.cls-1{fill:#fff;}</style></defs><title>Weser_UiUx</title><g id="Layer_1" data-name="Layer 1"><path class="cls-1" d="M63.64,327.61l-.45-.23-.68.23L26.75,348.3v-175H52.39V305.57L63,299.49l.23-.22v.22l10.57,6.08V173.32H99.4v175Z"/><path class="cls-1" d="M187.56,173.32v54.2H161.92V199H140.56V234.5l26.09,15.06v27.89l-26.09-15.07v60.28h21.36V288l25.64,14.62V348.3H114.92V251.59h6.74l-6.74-3.83-6.53-3.82V216.05l6.53,3.6V173.32h72.64Z"/><path class="cls-1" d="M273.7,173.32V228H248.06V199H226.7v35.31l47,27.21V348.3H201.06V279.7H226.7v43h21.36V279.25h7.88l-.46-.22-7.42-4.28-47-27.21V173.32H273.7Z"/><path class="cls-1" d="M361.87,173.32v54.2H336.23V199H314.86V234.5L341,249.56v27.89l-26.09-15.07v60.28h21.37V288l25.64,14.62V348.3H289.22V251.59H296l-6.75-3.83-6.52-3.82V216.05l6.52,3.6V173.32h72.65Z"/><path class="cls-1" d="M422.37,173.32H448v72.87l-12.37,7,12.37,7.2V348.3H422.37V279.25h7.87l-.45-.22-7.42-4.28L401,262.38V348.3H375.36v-175h47Zm0,73.32V199H401v35.31Z"/></g></svg>