<svg id="Livello_1" data-name="Livello 1" xmlns="http://www.w3.org/2000/svg" viewBox="0 0 245 434.5"><defs><style>.cls-1{fill:#fff;}.cls-2{fill:#f7931e;}.cls-3{fill:none;stroke:#f7931e;stroke-linecap:round;stroke-width:3px;}.cls-4{font-size:40.07px;stroke:#fff;stroke-miterlimit:10;stroke-width:0.25px;font-family:Roboto-Italic, Roboto;font-style:italic;}.cls-5{letter-spacing:-0.02em;}.cls-6{letter-spacing:-0.01em;}.cls-7{letter-spacing:0em;}</style></defs><title>Tavola disegno 1</title><g id="Layer_1" data-name="Layer 1"><polygon class="cls-1" points="89.8 211.6 89.8 145.6 121.3 125.8 121.2 71.7 42.7 120.1 43.4 228.9 124.3 274.5 124.3 256.8 58.9 219.3 58.9 128.4 105.9 99.4 105.8 117.4 74.1 137 74.5 203.1 89.8 211.6"/><polygon class="cls-1" points="159.2 211.6 159.2 145.6 127.6 125.8 127.6 72.2 206.2 120.1 205.5 228.9 124.3 274.5 124.3 256.8 190.1 219.3 190.1 128.4 143.1 99.4 143.1 117.4 174.8 137 174.4 203.1 159.2 211.6"/><circle class="cls-2" cx="124.5" cy="175.1" r="7.5"/><path id="progress" class="cls-3" d="M108.8,197.2a16.88,16.88,0,0,1,31.5-.2"/><path id="progress-2" class="cls-3" d="M113.1,200.2a12.28,12.28,0,0,1,15.8-7.1,12.08,12.08,0,0,1,7,7"/><path id="progress-3" class="cls-3" d="M119.3,202.1a5.51,5.51,0,0,1,7.1-3.2,5.44,5.44,0,0,1,3.2,3.1"/><path class="cls-3" d="M115.2,183.5a14.16,14.16,0,0,1-3.3-8.4,12.55,12.55,0,0,1,25.1,0,11,11,0,0,1-3.4,8.6"/><path class="cls-3" d="M109,188.4a19.55,19.55,0,0,1-4.9-13.3,20.3,20.3,0,0,1,40.6,0c0,5.4-1.3,9.4-4.7,13.1"/><path class="cls-3" d="M104.6,194.2a27.58,27.58,0,1,1,39.4.3"/></g><g id="Layer_1-2" data-name="Layer 1"><path class="cls-1" d="M37.1,370.9l-.2-.1-.3.1L19.1,381V295.5H31.6v64.7l5.2-3,.1-.1v.1l5.2,3V295.5H54.6V381Z"/><path class="cls-1" d="M97.7,295.4v26.5H85.2V308H74.7v17.4l12.8,7.4v13.6L74.7,339v29.5H85.2v-17l12.5,7.1V381H62.1V333.7h3.3l-3.3-1.9L59,330V316.4l3.2,1.8V295.5H97.7Z"/><path class="cls-1" d="M139.8,295.4v26.7H127.3V308H116.8v17.3l23,13.3V381H104.3V347.5h12.5v21h10.5V347.2h3.9l-.2-.1-3.6-2.1-23-13.3V295.4Z"/><path class="cls-1" d="M182.9,295.4v26.5H170.4V308H159.9v17.4l12.8,7.4v13.6L159.9,339v29.5h10.5v-17l12.5,7.1V381H147.4V333.7h3.3l-3.3-1.9-3.2-1.9V316.3l3.2,1.8V295.4Z"/><path class="cls-1" d="M212.5,295.4H225V331l-6.1,3.4,6.1,3.5v43H212.5V347.2h3.9l-.2-.1-3.6-2.1L202,339v42H189.5V295.5h23Zm0,35.9V308H202v17.3Z"/><path class="cls-2" d="M34,415.5h-.1c-.1-1-.3-1.9-.4-2.7s-.3-1.6-.4-2.3-.3-1.5-.4-2.1-.3-1.3-.4-2c-.2-.9-.4-1.7-.5-2.4a12.91,12.91,0,0,0-.5-2.1h0c-.2.8-.4,1.5-.6,2.2a17.23,17.23,0,0,1-.7,2.1c-.3.7-.4,1.4-.7,2.1s-.5,1.4-.8,2.2-.6,1.5-.9,2.3-.6,1.7-1,2.6l-1.4.1h-.1c-.8-4.2-1.6-7.6-2.2-10.2s-1.1-4.4-1.4-5.5c-.1-.2-.2-.5-.3-.7a1.76,1.76,0,0,0-.4-.5,2.19,2.19,0,0,0-.5-.3c-.2,0-.4-.1-.7-.1H19a2,2,0,0,0-.7.1l-.1-.7c.8-.2,1.5-.3,2-.4a5.7,5.7,0,0,1,1.3-.1,1.7,1.7,0,0,1,.7.1.78.78,0,0,1,.4.4l.3.6a6.21,6.21,0,0,1,.3,1c.1.5.3,1.2.5,2.1s.4,1.8.7,3,.5,2.4.8,3.9.6,3,.9,4.8h0a19.45,19.45,0,0,1,.8-2.2l.9-2.4c.3-.8.6-1.7.9-2.6s.6-1.8.8-2.6a19.75,19.75,0,0,1,.8-2.6,23.35,23.35,0,0,0,.7-2.5c0-.1.1-.1.2-.2a.64.64,0,0,1,.6,0c.1.5.3,1.2.5,1.9s.3,1.5.5,2.3.4,1.7.6,2.7.4,1.9.6,2.8.4,1.9.6,2.8.3,1.9.5,2.7h0c.4-.8.7-1.6,1.1-2.4s.7-1.7,1.1-2.5a26,26,0,0,0,1-2.5c.3-.8.5-1.6.8-2.3a8.35,8.35,0,0,0,.5-2,8.75,8.75,0,0,0,.2-1.6V399a1.85,1.85,0,0,0-.2-.7l-.3-.6a1,1,0,0,0-.5-.4v-.1h.6a2,2,0,0,1,.8.1c.2.1.5.2.7.3a1.47,1.47,0,0,1,.5.6,2.92,2.92,0,0,1,.2.9,4.48,4.48,0,0,1-.1,1.1c-.1.4-.2.9-.4,1.5s-.4,1.2-.6,1.9-.5,1.4-.8,2.2a24.43,24.43,0,0,1-1,2.4,27.18,27.18,0,0,1-1.1,2.5c-.3.9-.8,1.7-1.2,2.6s-.8,1.7-1.2,2.6Z"/><path class="cls-2" d="M49.3,412.8h.1a497582161916,497582161916,0,0,1,.2.2v.1h0c-.3.4-.6.7-.9,1.1a10.47,10.47,0,0,1-1.1.8,3.58,3.58,0,0,1-1.1.4,3.75,3.75,0,0,1-1.1.1,3.29,3.29,0,0,1-1.7-.4,3.6,3.6,0,0,1-1.4-1.1,5.07,5.07,0,0,1-.9-1.6,6.45,6.45,0,0,1-.3-2,5,5,0,0,1,.2-1.7,6.41,6.41,0,0,1,1.4-3,5.73,5.73,0,0,1,1.1-1.1,6.38,6.38,0,0,1,1.4-.8,4.67,4.67,0,0,1,1.7-.3,4.1,4.1,0,0,1,1.1.1,3.55,3.55,0,0,1,.9.4c.2.2.5.4.6.7a3,3,0,0,1,.2,1,2.39,2.39,0,0,1-.5,1.4,4,4,0,0,1-1.5,1,14.16,14.16,0,0,1-2.2.7,25.12,25.12,0,0,1-2.7.4v.1a13.66,13.66,0,0,0,.2,1.9,3.69,3.69,0,0,0,.7,1.4,3.57,3.57,0,0,0,1.1,1,2.77,2.77,0,0,0,1.3.3,4,4,0,0,0,1.5-.3A2.3,2.3,0,0,0,49.3,412.8Zm-1.4-6.3a2,2,0,0,0-.1-.7.85.85,0,0,0-.3-.5,2.18,2.18,0,0,0-.5-.4,1.27,1.27,0,0,0-.6-.1,1.49,1.49,0,0,0-.9.2,1.79,1.79,0,0,0-.7.5,4.35,4.35,0,0,0-.6.7c-.1.3-.3.6-.4.9s-.2.6-.3,1-.1.6-.1,1a6.93,6.93,0,0,0,2-.3,4.42,4.42,0,0,0,1.5-.5,2,2,0,0,0,.9-.7c0-.4.1-.8.1-1.1Z"/><path class="cls-2" d="M57.9,407.1a2.15,2.15,0,0,0-.2-1.1,2.12,2.12,0,0,0-2.1-1.3,2.77,2.77,0,0,0-.9.1c-.2,0-.4.2-.6.3a.85.85,0,0,0-.3.5,1.27,1.27,0,0,0-.1.6,2.06,2.06,0,0,0,.5,1.5v.1a2.92,2.92,0,0,1-.9.2,1.09,1.09,0,0,1-.5-.1.76.76,0,0,1-.4-.2,1.38,1.38,0,0,1-.3-.4,4.33,4.33,0,0,1-.1-.5,2.92,2.92,0,0,1,.2-.9,1.34,1.34,0,0,1,.6-.7,3.49,3.49,0,0,1,.9-.6,4.18,4.18,0,0,1,1-.4l1-.3c.3,0,.6-.1,1-.1a3.18,3.18,0,0,1,1.4.2,2.07,2.07,0,0,1,1,.6,1.91,1.91,0,0,1,.5,1,3.21,3.21,0,0,1,.1,1.4v1.1a6.15,6.15,0,0,1-.1,1.3,6.6,6.6,0,0,1-.1,1.4v1.5a3.29,3.29,0,0,0,.4,1.7,1.52,1.52,0,0,0,1.1.6,3.71,3.71,0,0,0,1.4-.4l.2.3a4.44,4.44,0,0,1-1.1.8,2.77,2.77,0,0,1-1.3.3,1.49,1.49,0,0,1-.9-.2,1.79,1.79,0,0,1-.7-.5,1.93,1.93,0,0,1-.5-.9,2.46,2.46,0,0,1-.1-1.2V412h0a9.13,9.13,0,0,1-.8,1.3,10.59,10.59,0,0,1-1,1.2,4.44,4.44,0,0,1-1.1.8,2.77,2.77,0,0,1-1.3.3,1.8,1.8,0,0,1-1-.2,3.51,3.51,0,0,1-.8-.5,2.18,2.18,0,0,1-.5-.8,3,3,0,0,1-.2-1,5.85,5.85,0,0,1,.2-1.3,2.29,2.29,0,0,1,.7-1,4.44,4.44,0,0,1,1.1-.8,5.78,5.78,0,0,1,1.4-.5c.5-.1,1-.2,1.6-.3s1.1-.1,1.7-.1a3.75,3.75,0,0,1,.1-1C58.2,407.7,57.9,407.5,57.9,407.1ZM53,412.5v.6c0,.2.1.3.2.5a1.38,1.38,0,0,0,.4.3.75.75,0,0,0,.5.1,1.7,1.7,0,0,0,.7-.1c.2-.1.5-.3.7-.4a4.62,4.62,0,0,0,.7-.7l.6-.9a4.18,4.18,0,0,0,.4-1,3.59,3.59,0,0,0,.2-1.1H56.2a4.25,4.25,0,0,0-1.1.2c-.3.1-.7.2-1,.3a3.51,3.51,0,0,0-.8.5,1.79,1.79,0,0,0-.5.7A1.3,1.3,0,0,1,53,412.5Z"/><path class="cls-2" d="M64,415.4h-.1c0-.5.1-1,.1-1.6a10.87,10.87,0,0,1,.1-1.8,10.87,10.87,0,0,1,.1-1.8v-4.6a.37.37,0,0,0-.1-.3c0-.1-.1-.1-.2-.2h-1a.76.76,0,0,0-.4.1,1.09,1.09,0,0,0-.5.1l-.1-.5c.7-.2,1.4-.5,2.1-.7.3-.1.7-.1,1.1-.2a.91.91,0,0,1,.7.3,2.92,2.92,0,0,1,.2.9v2a4.87,4.87,0,0,1-.1,1.2,7.08,7.08,0,0,1-.1,1.4l-.1,1.4h.1a22.88,22.88,0,0,1,.8-2.8,9.73,9.73,0,0,1,1.1-2.3,6.53,6.53,0,0,1,1.3-1.6,2.2,2.2,0,0,1,1.6-.5.75.75,0,0,1,.5.1.76.76,0,0,1,.4.2,1.38,1.38,0,0,1,.3.4,4.33,4.33,0,0,1,.1.5,1.61,1.61,0,0,1-.6,1.3h0c-.2-.1-.4-.3-.6-.4a1.27,1.27,0,0,0-.6-.1,1.7,1.7,0,0,0-.7.1,2.09,2.09,0,0,0-.6.4,4.44,4.44,0,0,0-.8,1.1,10.09,10.09,0,0,0-.7,1.5c-.2.5-.4,1.1-.6,1.7a11.63,11.63,0,0,0-.4,1.8c-.1.6-.2,1.1-.3,1.6a6.15,6.15,0,0,0-.1,1.3Z"/><path class="cls-2" d="M78.5,407.1a2.15,2.15,0,0,0-.2-1.1,1.79,1.79,0,0,0-.5-.7,2.51,2.51,0,0,0-.7-.4,2.2,2.2,0,0,0-.8-.1,2.77,2.77,0,0,0-.9.1c-.2,0-.4.2-.6.3a.85.85,0,0,0-.3.5,1.27,1.27,0,0,0-.1.6,2.06,2.06,0,0,0,.5,1.5v.1a2.92,2.92,0,0,1-.9.2,1.09,1.09,0,0,1-.5-.1.76.76,0,0,1-.4-.2,1.38,1.38,0,0,1-.3-.4,4.33,4.33,0,0,1-.1-.5,2.92,2.92,0,0,1,.2-.9,1.34,1.34,0,0,1,.6-.7,3.49,3.49,0,0,1,.9-.6,4.18,4.18,0,0,1,1-.4c.3-.1.7-.2,1-.3s.6-.1,1-.1a3.18,3.18,0,0,1,1.4.2,2.07,2.07,0,0,1,1,.6,3.13,3.13,0,0,1,.5,1,5.9,5.9,0,0,1,.2,1.4v1.1a6.15,6.15,0,0,1-.1,1.3,6.6,6.6,0,0,1-.1,1.4v1.5a3.29,3.29,0,0,0,.4,1.7,1.52,1.52,0,0,0,1.1.6,3.71,3.71,0,0,0,1.4-.4l.2.3a3.6,3.6,0,0,1-1.2.8,3.08,3.08,0,0,1-1.3.3,1.49,1.49,0,0,1-.9-.2,1.79,1.79,0,0,1-.7-.5,1.93,1.93,0,0,1-.5-.9,5,5,0,0,1-.2-1.2v-.8h-.1a9.13,9.13,0,0,1-.8,1.3,10.59,10.59,0,0,1-1,1.2,4.44,4.44,0,0,1-1.1.8,2.77,2.77,0,0,1-1.3.3,1.8,1.8,0,0,1-1-.2,3.51,3.51,0,0,1-.8-.5,2.18,2.18,0,0,1-.5-.8,3,3,0,0,1-.2-1,5.85,5.85,0,0,1,.2-1.3,3.59,3.59,0,0,1,.7-1,4.44,4.44,0,0,1,1.1-.8,5.78,5.78,0,0,1,1.4-.5c.5-.1,1-.2,1.6-.3s1.1-.1,1.7-.1a3.75,3.75,0,0,1,.1-1C78.7,407.8,78.5,407.5,78.5,407.1Zm-4.8,5.4v.6c0,.2.1.3.2.5a1.38,1.38,0,0,0,.4.3.75.75,0,0,0,.5.1,1.7,1.7,0,0,0,.7-.1c.2-.1.5-.3.7-.4a4.62,4.62,0,0,0,.7-.7l.6-.9a4.18,4.18,0,0,0,.4-1,3.59,3.59,0,0,0,.2-1.1H76.9a4.25,4.25,0,0,0-1.1.2c-.3.1-.7.2-1,.3a3.51,3.51,0,0,0-.8.5,1.79,1.79,0,0,0-.5.7A2,2,0,0,1,73.7,412.5Z"/><path class="cls-2" d="M87.4,394.1c-.1.8-.2,1.7-.3,2.6l-.3,2.7a26.45,26.45,0,0,0-.2,2.7,22.82,22.82,0,0,1-.2,2.7c-.1.9-.1,1.8-.2,2.6s-.1,1.7-.1,2.5H86c.4-.9.8-1.8,1.3-2.7a9.51,9.51,0,0,1,1.5-2,4.43,4.43,0,0,1,1.5-1.2,3.26,3.26,0,0,1,1.4-.4,2.24,2.24,0,0,1,1.7.7,2.18,2.18,0,0,1,.5.8l.3.9c.1.3.1.6.2,1v.9a8.2,8.2,0,0,1-.2,2.2,7,7,0,0,1-.6,1.9,6.53,6.53,0,0,1-1,1.5,6.28,6.28,0,0,1-1.2,1.1,6.11,6.11,0,0,1-1.4.7,7.72,7.72,0,0,1-1.5.2,3.75,3.75,0,0,1-1-.1c-.4-.1-.7-.2-1-.3a2.36,2.36,0,0,1-.9-.6,2.7,2.7,0,0,1-.7-.8,3.7,3.7,0,0,1-.5,1.1,3,3,0,0,1-.5.7l-.4-.1a13.56,13.56,0,0,0,.6-2.9c.1-1.1.2-2.4.3-3.8a16.23,16.23,0,0,1,.1-2.1c0-.8.1-1.6.1-2.4s.1-1.8.1-2.6.1-1.8.1-2.6.1-1.7.1-2.4l.1-2a.37.37,0,0,1,.1-.3c.1-.1.2-.1.3-.2s.2-.1.4-.1h.4A1.23,1.23,0,0,1,87.4,394.1Zm5.1,14.7a4.1,4.1,0,0,0-.1-1.1,3.55,3.55,0,0,0-.2-1,1.61,1.61,0,0,0-.4-.7.91.91,0,0,0-.7-.3,2.92,2.92,0,0,0-.9.2l-.9.6a6.47,6.47,0,0,0-.8.9,4.13,4.13,0,0,0-.7,1.1l-.6,1.2a11.73,11.73,0,0,1-.5,1.1c-.1.3-.2.6-.3,1a1.84,1.84,0,0,0,.2,1.6,1.87,1.87,0,0,0,.6.7,2,2,0,0,0,.8.4,2.77,2.77,0,0,0,.9.1,2.82,2.82,0,0,0,1.5-.4,3.45,3.45,0,0,0,1.2-1.2,6.39,6.39,0,0,0,.8-1.9c0-.6.1-1.4.1-2.3Z"/><path class="cls-2" d="M100.2,394.1l-.3,2.7c-.1.9-.2,1.9-.3,2.8a26.42,26.42,0,0,0-.2,2.9,24.58,24.58,0,0,1-.2,2.8c0,.9-.1,1.9-.1,2.7v4.8a1.27,1.27,0,0,0,.1.6c0,.1.1.2.2.3s.1.1.2.2.2,0,.3,0a2.2,2.2,0,0,0,.8-.1l.9-.3.1.4a4.23,4.23,0,0,1-.7.5c-.3.1-.6.3-.9.4l-.9.3c-.2,0-.5.1-.8.1a1,1,0,0,1-.7-.2,1.61,1.61,0,0,1-.4-.7,5.28,5.28,0,0,1-.1-1.3v-4.9a17,17,0,0,1,.1-2.2c0-.8.1-1.6.1-2.5s.1-1.7.1-2.6.1-1.7.1-2.5.1-1.6.1-2.3l.1-1.9a.37.37,0,0,1,.1-.3c0-.1.1-.1.2-.2s.2-.1.3-.1h.4A11.32,11.32,0,0,1,100.2,394.1Z"/><path class="cls-2" d="M110.6,412.8h.1a829303603154.45,829303603154.45,0,0,1,.2.2v.1h0c-.3.4-.6.7-.9,1.1a4.13,4.13,0,0,1-1.1.7,3.58,3.58,0,0,1-1.1.4,3.75,3.75,0,0,1-1.1.1,3.92,3.92,0,0,1-1.8-.4,3.6,3.6,0,0,1-1.4-1.1,5.07,5.07,0,0,1-.9-1.6,6.45,6.45,0,0,1-.3-2,5,5,0,0,1,.2-1.7,9.83,9.83,0,0,1,.5-1.6,4.19,4.19,0,0,1,.9-1.4,5.73,5.73,0,0,1,1.1-1.1,6.38,6.38,0,0,1,1.4-.8,4.67,4.67,0,0,1,1.7-.3,4.1,4.1,0,0,1,1.1.1,3.55,3.55,0,0,1,.9.4c.2.2.5.4.6.7a3,3,0,0,1,.2,1,2.39,2.39,0,0,1-.5,1.4,4,4,0,0,1-1.5,1,14.16,14.16,0,0,1-2.2.7,25.12,25.12,0,0,1-2.7.4v.1a13.66,13.66,0,0,0,.2,1.9,3.69,3.69,0,0,0,.7,1.4,2.44,2.44,0,0,0,1.1.9,2.77,2.77,0,0,0,1.3.3,4,4,0,0,0,1.5-.3A1.93,1.93,0,0,0,110.6,412.8Zm-1.5-6.3a2,2,0,0,0-.1-.7,1.73,1.73,0,0,0-.8-.9,1.27,1.27,0,0,0-.6-.1,1.49,1.49,0,0,0-.9.2,1.79,1.79,0,0,0-.7.5,4.35,4.35,0,0,0-.6.7,3.55,3.55,0,0,0-.4.9c-.1.3-.2.6-.3,1s-.1.6-.1,1a6.93,6.93,0,0,0,2-.3,4.42,4.42,0,0,0,1.5-.5,2,2,0,0,0,.9-.7C109,407.2,109.1,406.8,109.1,406.5Z"/><path class="cls-2" d="M121.9,404.4h3.7a4.33,4.33,0,0,1,.1.5c0,.2-.1.4-.3.4a2,2,0,0,1-.8.1h-1.2l-1.5-.1a16.23,16.23,0,0,1-.1,2.1,18.48,18.48,0,0,1-.1,2.3c-.1.8-.1,1.6-.2,2.4a19.67,19.67,0,0,1-.3,2.4,14.35,14.35,0,0,1-.4,2.2,14.62,14.62,0,0,1-.5,2,7.39,7.39,0,0,1-1,2.2,7.89,7.89,0,0,1-1.2,1.5,6.38,6.38,0,0,1-1.4.8,5.3,5.3,0,0,1-2.5.1l-.9-.3a2.65,2.65,0,0,1-.6-.5,1.42,1.42,0,0,1-.2-.6.76.76,0,0,1,.1-.4c0-.1.1-.2.2-.3s.2-.2.3-.2.3-.1.4-.1a3,3,0,0,0,.5.7c.2.2.4.3.6.5a1.42,1.42,0,0,0,.6.2c.2,0,.4.1.7.1a2,2,0,0,0,1.5-.6,5,5,0,0,0,1.1-1.7,19.73,19.73,0,0,0,.7-2.6c.1-1,.3-2.2.4-3.4s.1-2.6.2-4v-4.5h-1.4a5.16,5.16,0,0,0-1.1.2v-.1c0-.1.1-.2.2-.3a2.19,2.19,0,0,1,.5-.3c.2-.1.5-.1.8-.2s.7-.1,1-.1a6.15,6.15,0,0,1,.1-1.4,5.7,5.7,0,0,1,.1-1.3c.1-.4.1-.9.2-1.3a8.87,8.87,0,0,1,.3-1.4,10.93,10.93,0,0,1,.5-1.7,9.13,9.13,0,0,1,.8-1.3,8.12,8.12,0,0,1,.9-1l1-.7a5.45,5.45,0,0,1,2.2-.5,3.64,3.64,0,0,1,1.4.2,4.67,4.67,0,0,1,1,.5c.2.2.5.4.6.7a1.88,1.88,0,0,1,.2.8,1.27,1.27,0,0,1-.1.6.54.54,0,0,1-.3.4c-.1.1-.3.2-.4.3a4.33,4.33,0,0,1-.5.1,1.34,1.34,0,0,1-.8-.2v-.1c.1-.2.1-.4.2-.6s.1-.3,0-.5a1.27,1.27,0,0,0-.1-.6.78.78,0,0,0-.4-.4.76.76,0,0,0-.5-.2c-.2,0-.4-.1-.6-.1a2.82,2.82,0,0,0-1.5.4,2.66,2.66,0,0,0-1,1.1,5.23,5.23,0,0,0-.6,1.6,13.8,13.8,0,0,0-.3,2c-.1.7-.1,1.5-.2,2.2C121.9,402.9,122,403.6,121.9,404.4Z"/><path class="cls-2" d="M125.4,410.7a8.6,8.6,0,0,1,.1-1.6,9.83,9.83,0,0,1,.5-1.6,10.93,10.93,0,0,1,.8-1.5,12,12,0,0,1,1.1-1.2,6.38,6.38,0,0,1,1.4-.8,4.67,4.67,0,0,1,1.7-.3,3.92,3.92,0,0,1,1.8.4,4.73,4.73,0,0,1,1.3,1.1,8,8,0,0,1,.8,1.6,5.66,5.66,0,0,1,.3,1.8,8.6,8.6,0,0,1-.1,1.6,9.83,9.83,0,0,1-.5,1.6,10.93,10.93,0,0,1-.8,1.5,12,12,0,0,1-1.1,1.2,6.38,6.38,0,0,1-1.4.8,4.67,4.67,0,0,1-1.7.3,3.92,3.92,0,0,1-1.8-.4,6.89,6.89,0,0,1-1.3-1.1,8,8,0,0,1-.8-1.6A5.66,5.66,0,0,1,125.4,410.7Zm1.9-.8a4.48,4.48,0,0,0,.1,1.1,5.16,5.16,0,0,0,.2,1.1,4.18,4.18,0,0,0,.4,1,2.1,2.1,0,0,0,.6.8,2.18,2.18,0,0,0,.8.5,3,3,0,0,0,1,.2,3.55,3.55,0,0,0,1-.2c.3-.1.5-.4.7-.6a4.05,4.05,0,0,0,.5-.9c.1-.3.2-.7.3-1.1s.1-.7.2-1.1v-1a4.48,4.48,0,0,0-.1-1.1,5.16,5.16,0,0,0-.2-1.1,4.18,4.18,0,0,0-.4-1c-.1-.3-.4-.5-.6-.8a2.18,2.18,0,0,0-.8-.5,3,3,0,0,0-1-.2,3.55,3.55,0,0,0-1,.2c-.3.1-.5.4-.8.6a4.05,4.05,0,0,0-.5.9c-.1.3-.2.7-.3,1.1s-.1.7-.2,1.1A3.75,3.75,0,0,1,127.3,409.9Z"/><path class="cls-2" d="M138.2,415.4H138c0-.5.1-1,.1-1.6a10.87,10.87,0,0,1,.1-1.8,10.87,10.87,0,0,1,.1-1.8v-4.6a.37.37,0,0,0-.1-.3c0-.1-.1-.1-.2-.2h-1l-.4.1-.5.1-.1-.5c.7-.2,1.4-.5,2.1-.7.3-.1.7-.1,1.1-.2a.78.78,0,0,1,.7.3,2.92,2.92,0,0,1,.2.9v2a4.87,4.87,0,0,1-.1,1.2c0,.4-.1.9-.1,1.4s-.1.9-.1,1.4h.1a24.54,24.54,0,0,1,.8-2.9,9.73,9.73,0,0,1,1.1-2.3,6.53,6.53,0,0,1,1.3-1.6,2.77,2.77,0,0,1,1.6-.5.75.75,0,0,1,.5.1.76.76,0,0,1,.4.2,1.38,1.38,0,0,1,.3.4,4.33,4.33,0,0,1,.1.5,1.61,1.61,0,0,1-.6,1.3h0c-.2-.1-.4-.3-.6-.4a1.27,1.27,0,0,0-.6-.1,1.7,1.7,0,0,0-.7.1,2.09,2.09,0,0,0-.6.4,4.44,4.44,0,0,0-.8,1.1,10.09,10.09,0,0,0-.7,1.5c-.2.5-.4,1.1-.6,1.7a11.63,11.63,0,0,0-.4,1.8c-.1.6-.2,1.1-.3,1.6a6.15,6.15,0,0,0-.1,1.3Z"/><path class="cls-2" d="M152.7,410.6v.6a3.89,3.89,0,0,0,.2,1.5,2.29,2.29,0,0,0,.7,1,2.38,2.38,0,0,0,1.1.6,5.9,5.9,0,0,0,1.4.2,3.89,3.89,0,0,0,1.5-.2,2.73,2.73,0,0,0,1.2-.6,3.13,3.13,0,0,0,.8-1.1,4,4,0,0,0,.3-1.5,3.4,3.4,0,0,0-.1-1,2,2,0,0,0-.4-.8c-.2-.2-.4-.5-.6-.7a5.55,5.55,0,0,0-.8-.6,4.05,4.05,0,0,0-.9-.5l-.9-.5c-.3-.2-.7-.3-1-.5l-.9-.6a2.7,2.7,0,0,1-.8-.7c-.2-.3-.5-.5-.7-.8a3,3,0,0,1-.4-1,4.87,4.87,0,0,1-.1-1.2,4.68,4.68,0,0,1,.2-1.6,5.65,5.65,0,0,1,1.5-2.4,3.6,3.6,0,0,1,1.2-.8,7.84,7.84,0,0,1,1.4-.5,7.57,7.57,0,0,1,1.5-.1h.7c.2,0,.5.1.8.1a1.45,1.45,0,0,1,.7.2.86.86,0,0,1,.6.3c.1.1.3.2.4.3s.1.2.1.4v3.5h-.8v-.5a3.4,3.4,0,0,0-.2-1.4,2.48,2.48,0,0,0-1.7-1.6,5.85,5.85,0,0,0-1.3-.2,7.84,7.84,0,0,0-1.4.2,2.59,2.59,0,0,0-1.1.7,3.59,3.59,0,0,0-.7,1,2.74,2.74,0,0,0-.2,1.3,3.4,3.4,0,0,0,.1,1,3.55,3.55,0,0,0,.4.9c.2.2.4.5.6.7a5.55,5.55,0,0,0,.8.6,4.05,4.05,0,0,0,.9.5l1,.5c.3.2.7.3,1,.5l.9.6a2.7,2.7,0,0,1,.8.7c.2.3.5.5.7.8a4,4,0,0,1,.6,2.2,6.28,6.28,0,0,1-.3,1.9,5.48,5.48,0,0,1-.8,1.5,5.24,5.24,0,0,1-1.1,1,8.26,8.26,0,0,1-1.3.7c-.4.1-.9.3-1.4.4s-.8.1-1.3.1a7.57,7.57,0,0,1-1.5-.1,2.66,2.66,0,0,1-1.2-.3,2,2,0,0,1-.8-.4.55.55,0,0,1-.3-.5v-1.5a20.15,20.15,0,0,1,.1-2.3Z"/><path class="cls-2" d="M171.5,412.8h.1a829303603234.28,829303603234.28,0,0,1,.2.2v.1h0c-.3.4-.6.7-.9,1.1a4.13,4.13,0,0,1-1.1.7,3.58,3.58,0,0,1-1.1.4,3.75,3.75,0,0,1-1.1.1,3.29,3.29,0,0,1-1.7-.4,3.6,3.6,0,0,1-1.4-1.1,5.07,5.07,0,0,1-.9-1.6,6.45,6.45,0,0,1-.3-2,5,5,0,0,1,.2-1.7,9.83,9.83,0,0,1,.5-1.6,6.38,6.38,0,0,1,.8-1.4,4.26,4.26,0,0,1,1.2-1.1,6.38,6.38,0,0,1,1.4-.8,4.67,4.67,0,0,1,1.7-.3,4.1,4.1,0,0,1,1.1.1,3.55,3.55,0,0,1,.9.4c.2.2.5.4.6.7a3,3,0,0,1,.2,1,2.39,2.39,0,0,1-.5,1.4,4,4,0,0,1-1.5,1,14.16,14.16,0,0,1-2.2.7,25.12,25.12,0,0,1-2.7.4v.1a13.66,13.66,0,0,0,.2,1.9,3.69,3.69,0,0,0,.7,1.4,2.44,2.44,0,0,0,1.1.9,2.77,2.77,0,0,0,1.3.3,4,4,0,0,0,1.5-.3C170.3,413.2,171.1,413.2,171.5,412.8Zm-1.5-6.3a2,2,0,0,0-.1-.7.85.85,0,0,0-.3-.5,2.18,2.18,0,0,0-.5-.4,1.27,1.27,0,0,0-.6-.1,1.49,1.49,0,0,0-.9.2,1.79,1.79,0,0,0-.7.5,4.35,4.35,0,0,0-.6.7,3.55,3.55,0,0,0-.4.9c-.1.3-.2.6-.3,1s-.1.6-.1,1a6.93,6.93,0,0,0,2-.3,4.42,4.42,0,0,0,1.5-.5,2,2,0,0,0,.9-.7c0-.4.1-.8.1-1.1Z"/><path class="cls-2" d="M174.6,415.4h-.1c0-.5.1-1,.1-1.6a10.87,10.87,0,0,1,.1-1.8,10.87,10.87,0,0,1,.1-1.8,9.63,9.63,0,0,0,0-1.7v-2.9a.37.37,0,0,0-.1-.3c0-.1-.1-.1-.2-.2h-1a.76.76,0,0,0-.4.1l-.5.1-.1-.5c.7-.2,1.4-.5,2.1-.7.3-.1.7-.1,1.1-.2a.91.91,0,0,1,.7.3,2.39,2.39,0,0,1,.2.9v2a4.87,4.87,0,0,1-.1,1.2,7.08,7.08,0,0,1-.1,1.4,6.6,6.6,0,0,0-.1,1.4h.1a14,14,0,0,1,.9-2.9,9.73,9.73,0,0,1,1.1-2.3,6.53,6.53,0,0,1,1.3-1.6,2.2,2.2,0,0,1,1.6-.5.75.75,0,0,1,.5.1.76.76,0,0,1,.4.2,1.38,1.38,0,0,1,.3.4,4.33,4.33,0,0,1,.1.5,1.7,1.7,0,0,1-.1.7,2.65,2.65,0,0,1-.5.6h0c-.2-.1-.4-.3-.6-.4a1.27,1.27,0,0,0-.6-.1,1.7,1.7,0,0,0-.7.1,2.09,2.09,0,0,0-.6.4,4.44,4.44,0,0,0-.8,1.1,10.09,10.09,0,0,0-.7,1.5c-.2.5-.4,1.1-.6,1.7a11.63,11.63,0,0,0-.4,1.8c-.1.6-.2,1.1-.3,1.6s-.1.9-.1,1.3Z"/><path class="cls-2" d="M190.6,412.8h.1a310988851214.34,310988851214.34,0,0,1,.2.2v.1h0c-.3.4-.6.7-.9,1.1a4.13,4.13,0,0,1-1.1.7,3.58,3.58,0,0,1-1.1.4,3.75,3.75,0,0,1-1.1.1,3.29,3.29,0,0,1-1.7-.4,4.86,4.86,0,0,1-1.4-1.1,5.07,5.07,0,0,1-.9-1.6,6.45,6.45,0,0,1-.3-2,5,5,0,0,1,.2-1.7,9.83,9.83,0,0,1,.5-1.6,6.38,6.38,0,0,1,.8-1.4,4.26,4.26,0,0,1,1.2-1.1,6.38,6.38,0,0,1,1.4-.8,4.67,4.67,0,0,1,1.7-.3,4.1,4.1,0,0,1,1.1.1,3.55,3.55,0,0,1,.9.4c.2.2.5.4.6.7a3,3,0,0,1,.2,1,2.39,2.39,0,0,1-.5,1.4,4,4,0,0,1-1.5,1,14.16,14.16,0,0,1-2.2.7,25.12,25.12,0,0,1-2.7.4v.1a13.66,13.66,0,0,0,.2,1.9,3.69,3.69,0,0,0,.7,1.4,2.44,2.44,0,0,0,1.1.9,2.77,2.77,0,0,0,1.3.3,4,4,0,0,0,1.5-.3A1.67,1.67,0,0,0,190.6,412.8Zm-1.5-6.3a2,2,0,0,0-.1-.7.85.85,0,0,0-.3-.5,2.18,2.18,0,0,0-.5-.4,1.27,1.27,0,0,0-.6-.1,1.49,1.49,0,0,0-.9.2,1.79,1.79,0,0,0-.7.5,4.35,4.35,0,0,0-.6.7c-.1.3-.3.6-.4.9s-.2.6-.3,1-.1.6-.1,1a6.93,6.93,0,0,0,2-.3,4.42,4.42,0,0,0,1.5-.5,2,2,0,0,0,.9-.7c0-.4.1-.8.1-1.1Z"/><path class="cls-2" d="M194,406.2v-.5c0-.1-.1-.2-.1-.3s-.1-.1-.2-.2h-.3a2,2,0,0,0-.7.1,5.07,5.07,0,0,0-.9.2l-.1-.6,1.1-.3a9.44,9.44,0,0,0,.9-.3c.2-.1.5-.1.8-.2h.5a1.08,1.08,0,0,1,.7.3,1,1,0,0,1,.2.9v2.1a4.87,4.87,0,0,1-.1,1.2c-.1.4,0,.9-.1,1.3s-.1.9-.1,1.4h0a19.89,19.89,0,0,1,1.3-3.4,8.26,8.26,0,0,1,1.4-2.2,8.64,8.64,0,0,1,1.4-1.3,3.26,3.26,0,0,1,1.3-.4,2,2,0,0,1,.8.1,1.79,1.79,0,0,1,.7.5,4.05,4.05,0,0,1,.5.9,5.9,5.9,0,0,1,.2,1.4v1.5a3.4,3.4,0,0,1-.1,1,4.48,4.48,0,0,1-.1,1.1,3.33,3.33,0,0,0,0,1v1.8c0,.2.1.4.1.6s.2.2.3.3a4.33,4.33,0,0,0,.5.1,2,2,0,0,0,.8-.1l.9-.3.1.4a4.23,4.23,0,0,1-.7.5c-.3.1-.6.3-.9.4l-.9.3a2.2,2.2,0,0,1-.8.1,1,1,0,0,1-.7-.2,2.09,2.09,0,0,1-.4-.6,2.77,2.77,0,0,1-.1-.9v-2.6a7.57,7.57,0,0,1,.1-1.5c0-.4.1-.9.1-1.3v-.9a3.19,3.19,0,0,0-.3-1.4,1.09,1.09,0,0,0-.9-.4,1.43,1.43,0,0,0-1,.4,3.57,3.57,0,0,0-1,1.1,8.64,8.64,0,0,0-1,1.6,11.92,11.92,0,0,0-.8,2c-.2.7-.4,1.5-.6,2.2s-.2,1.6-.3,2.3l-1.7.2h-.1c0-.5.1-1,.1-1.6a10.87,10.87,0,0,1,.1-1.8,10.87,10.87,0,0,1,.1-1.8,9.63,9.63,0,0,0,0-1.7v-1.4C193.7,406.9,194,406.4,194,406.2Z"/><path class="cls-2" d="M209.5,404.2c-.1.6-.1,1.2-.2,1.8a10.87,10.87,0,0,0-.1,1.8,8.08,8.08,0,0,1-.1,1.6,6.53,6.53,0,0,0,0,1.4v1.4a3.08,3.08,0,0,0,.1,1,1.27,1.27,0,0,0,.1.6c0,.1.1.2.2.4s.2.1.3.2h.4a2.2,2.2,0,0,0,.8-.1l.9-.3.1.4a4.23,4.23,0,0,1-.7.5c-.3.1-.6.3-.9.4l-.9.3c-.2,0-.5.1-.8.1h-.4c-.1,0-.2-.1-.3-.2a.52.52,0,0,1-.2-.4c-.1-.2-.1-.5-.2-.7,0-.4-.1-.8-.1-1.2v-6.4a14.08,14.08,0,0,1,.1-2,.37.37,0,0,1,.1-.3c0-.1.1-.1.2-.2s.2-.1.3-.1h.3A.76.76,0,0,1,209.5,404.2Zm-.7-3.6a1.09,1.09,0,0,1-.5-.1c-.1,0-.2-.2-.3-.3a.76.76,0,0,1-.2-.4,4.33,4.33,0,0,1-.1-.5,1.27,1.27,0,0,1,.1-.6c0-.1.2-.3.3-.4a1.38,1.38,0,0,1,.4-.3c.1,0,.3-.1.4-.1a1.09,1.09,0,0,1,.5.1c.1,0,.2.1.4.3a.52.52,0,0,1,.2.4,4.33,4.33,0,0,1,.1.5.75.75,0,0,1-.1.5c0,.2-.1.3-.2.5a1.38,1.38,0,0,1-.4.3c-.2,0-.4.1-.6.1Z"/><path class="cls-2" d="M216.7,398.2a28.68,28.68,0,0,0-.5,3.1c-.1,1.1-.3,2.1-.4,3.1H218a4.87,4.87,0,0,0,1.2-.1v.4c0,.2-.1.4-.3.4a2.2,2.2,0,0,1-.8.1h-1.2c-.4,0-.9-.1-1.4-.1,0,.5-.1,1.1-.1,1.7a7.57,7.57,0,0,1-.1,1.5v2.4a7.57,7.57,0,0,0,.1,1.5,2,2,0,0,0,.3,1.1,1.34,1.34,0,0,0,.6.7,1.64,1.64,0,0,0,1,.2,2.48,2.48,0,0,0,.9-.1,6.12,6.12,0,0,0,1.2-.5.76.76,0,0,1,.2.5,8.79,8.79,0,0,1-1,.6,10.37,10.37,0,0,1-1,.4l-.9.3c-.3,0-.6.1-.8.1a1.8,1.8,0,0,1-1-.2,1.21,1.21,0,0,1-.7-.7,6.94,6.94,0,0,1-.5-1.3,14.92,14.92,0,0,1-.2-2.1v-3a9.15,9.15,0,0,1,.1-1.6,8.08,8.08,0,0,0,.1-1.5h-1.2a2.77,2.77,0,0,0-.9.1v-.1a.37.37,0,0,1,.1-.3.76.76,0,0,1,.4-.2,6.37,6.37,0,0,1,.7-.2c.3,0,.6-.1.9-.1a26.07,26.07,0,0,1,.4-3.1c.1-1,.3-1.9.4-2.6a.37.37,0,0,1,.1-.3c0-.1.1-.1.2-.2s.2-.1.3-.1h.8C216.4,398,216.6,398.1,216.7,398.2Z"/><path class="cls-2" d="M222.2,404.2a4.88,4.88,0,0,1,.3.7l.3.9a7.6,7.6,0,0,0,.4,1.1c.1.4.2.7.3,1.1l.3,1.1a9.29,9.29,0,0,0,.4,1.3,6.47,6.47,0,0,0,.4,1.3c.1.4.2.9.3,1.2.2-.7.5-1.4.8-2.2s.5-1.5.8-2.2.6-1.5.9-2.2a18,18,0,0,0,.8-2.1c0-.1.1-.2.2-.3s.2-.1.3-.2.2-.1.3-.1h.8a1.69,1.69,0,0,1,.5.2c-.2.4-.5.8-.7,1.3a10.93,10.93,0,0,1-.8,1.5c-.3.5-.5,1.1-.8,1.7a14.17,14.17,0,0,1-.8,1.8c-.3.6-.5,1.2-.8,1.8s-.5,1.2-.7,1.8-.5,1.2-.7,1.8-.4,1.1-.6,1.7-.4,1.1-.6,1.6-.4,1-.6,1.4-.4.7-.6,1.1a5.5,5.5,0,0,1-.7.9,7,7,0,0,1-.9.6,3.59,3.59,0,0,1-1.1.2,2,2,0,0,1-.7-.1c-.2,0-.3-.1-.5-.2a1.38,1.38,0,0,1-.3-.4c0-.1-.1-.3-.1-.4a.75.75,0,0,1,.1-.5.78.78,0,0,1,.4-.4,2.84,2.84,0,0,0,1.3.4,2,2,0,0,0,1.1-.3,2.84,2.84,0,0,0,.9-1,15,15,0,0,0,.9-1.8c.3-.7.6-1.5,1-2.4l.1-.4h-.3a26.27,26.27,0,0,0-.8-3c-.3-1-.6-2-.9-2.9a15.55,15.55,0,0,0-.8-2.3,19.45,19.45,0,0,0-.8-2.2v-.3a.4.4,0,0,1,.2-.4.66.66,0,0,1,.6-.1h.5C221.8,404.1,222,404.1,222.2,404.2Z"/></g><text class="cls-4" transform="translate(20.47 46.2)"><tspan class="cls-5">W</tspan><tspan x="34.06" y="0">elcome </tspan><tspan class="cls-6" x="172.22" y="0">t</tspan><tspan class="cls-7" x="184.72" y="0">o</tspan></text></svg>