<?xml version="1.0" encoding="utf-8"?>
<!-- Generator: Adobe Illustrator 23.0.1, SVG Export Plug-In . SVG Version: 6.00 Build 0)  -->
<svg version="1.1" id="Livello_1" xmlns="http://www.w3.org/2000/svg" xmlns:xlink="http://www.w3.org/1999/xlink" x="0px" y="0px"
	 viewBox="0 0 479.7 479.7" style="enable-background:new 0 0 479.7 479.7;" xml:space="preserve">
<style type="text/css">
	.st0{fill:#FFFFFF;}
	.st1{fill:#EF5050;}
	.st2{fill:#FBB03B;}
</style>
<title>Roser</title>
<g>
	<g id="Layer_1">
		<polygon class="st0" points="191,303.6 191,210.6 235.4,182.8 235.2,106.5 124.7,174.7 125.7,327.9 239.6,392.2 239.6,367.2 
			147.5,314.5 147.5,186.4 213.7,145.6 213.6,171 168.9,198.6 169.5,291.6 		"/>
		<polygon class="st0" points="288.7,303.6 288.7,210.6 244.3,182.8 244.3,107.3 355,174.7 353.9,327.9 239.6,392.2 239.6,367.2 
			332.2,314.5 332.2,186.4 266,145.6 266.1,171 310.7,198.6 310.2,291.6 		"/>
		<path class="st1" d="M247.8,280.2c-2.8,0.2-8.3,4.7-10.9,6.9c-2.6-2.3-8.1-6.7-10.9-6.9c-1-0.1-1.1,1.3-1.1,2.9v10.2
			c0,1.6,0.1,3,1.1,2.9c2.7-0.2,8.3-4.4,10.9-6.6c2.6,2.2,8.2,6.4,10.9,6.6c1,0.1,1.1-1.3,1.1-2.9v-10.2
			C248.8,281.6,248.8,280.2,247.8,280.2z"/>
		<path class="st2" d="M261.1,237.5h-2.9l5.2-8.9c0.1,0,0.1,0,0.2,0c1.5,0,2.7-1.2,2.7-2.7s-1.2-2.7-2.7-2.7s-2.7,1.2-2.7,2.7
			c0,0.7,0.2,1.3,0.7,1.9l-5.6,9.7h-34.6l-5.7-9.9c0.9-1.1,0.7-2.8-0.5-3.7c-1.1-0.9-2.8-0.7-3.7,0.5c-0.9,1.1-0.7,2.8,0.5,3.7
			c0.5,0.4,1.1,0.5,1.6,0.5c0.2,0,0.3,0,0.5-0.1l5.2,8.9h-6.2c-3.9,0-7.1,3.2-7.1,7.1v22.6c0,3.9,3.2,7.1,7.1,7.1h48
			c3.9,0,7.1-3.2,7.1-7.1v-22.6C268.2,240.6,265,237.5,261.1,237.5z M224.9,261.6c-2.9,0-5.2-2.3-5.2-5.3c0-2.9,2.3-5.2,5.3-5.2
			c2.9,0,5.2,2.3,5.2,5.3C230.2,259.3,227.9,261.6,224.9,261.6L224.9,261.6L224.9,261.6z M248.6,261.6c-2.9,0-5.3-2.3-5.3-5.3
			c0-2.9,2.3-5.3,5.3-5.3s5.3,2.3,5.3,5.3C253.9,259.3,251.5,261.6,248.6,261.6L248.6,261.6z"/>
	</g>
	<g>
		<path class="st0" d="M167.1,0h11.5v11.5v21.2l-5.5,3.1l5.5,3.2v0.5v1.1V51v1v26.4h-11.5V47.5h3.5l-0.2-0.1l-3.3-1.9l-9.6-5.5v38.5
			H146V33.4v-1.1V21.9v-1v-9.4V0h11.5H167.1z M167.1,32.9V11.5h-9.6v15.8L167.1,32.9z"/>
		<path class="st0" d="M217.1,11.5v55.4v11.5h-11.5H196h-11.5V66.9V11.5V0H196h9.6h11.5V11.5z M205.6,66.9V11.5H196v55.4H205.6z"/>
		<path class="st0" d="M255.7,0v11.5v13h-11.5v-13h-9.6v15.8l21.1,12.2v0.4v0.7V51v1v14.9v11.5h-11.5h-9.6h-11.5V66.9V47.7h11.5
			v19.2h9.6V47.5h3.5l-0.2-0.1l-3.3-1.9l-21.1-12.2v-0.8v-0.3V21.8v-1v-9.3V0h11.5h9.6H255.7z"/>
		<path class="st0" d="M295.2,0v11.5v12.8h-11.5V11.5h-9.6v15.9l11.7,6.8v12.5L274.1,40v27h9.6v-0.5v-2.2V64v-1.1v-1.2v-9.2v-1
			l11.5,6.6v6.2V67v3.6v7.9h-11.5h-9.6h-11.5V67V35.2h3l-3-1.7l-2.9-1.7v-1.1V20.3v-1l2.9,1.6v-9.4V0h11.5h9.6H295.2z"/>
		<path class="st0" d="M322.3,0h11.5v11.5v21.2l-5.5,3.1l5.5,3.2v0.5v1.1V51v1v26.4h-11.5V47.5h3.5l-0.2-0.1l-3.3-1.9l-9.6-5.5v38.5
			h-11.5V33.4v-1.1V21.9v-1v-9.4V0h11.5H322.3z M322.3,32.9V11.5h-9.6v15.8L322.3,32.9z"/>
	</g>
	<g>
		<path class="st2" d="M88.2,437.5c0-0.4,0-0.7-0.1-1c-0.1-0.3-0.2-0.5-0.3-0.7c-0.2-0.2-0.4-0.3-0.7-0.4s-0.7-0.1-1.1-0.1
			c-0.6,0-1.4,0.1-2.4,0.2l-0.2-1.3c0.9-0.2,1.8-0.3,2.9-0.5c1-0.2,2.1-0.3,3.2-0.5s2.2-0.3,3.3-0.3c1.1-0.1,2.2-0.1,3.2-0.1
			c1.4,0,2.6,0.1,3.8,0.4c1.2,0.2,2.2,0.6,3,1.2c0.9,0.6,1.5,1.3,2,2.2c0.5,0.9,0.7,2,0.7,3.4c0,1.2-0.2,2.4-0.6,3.4
			c-0.4,1-1,2-1.7,2.8s-1.7,1.5-2.7,2.1c-1.1,0.6-2.2,1-3.6,1.4c1,1.7,1.9,3.1,2.7,4.4c0.8,1.3,1.5,2.4,2.2,3.3s1.3,1.8,1.8,2.5
			c0.6,0.7,1.1,1.3,1.6,1.8c0.4,0.4,0.7,0.7,1.1,1s0.7,0.5,1,0.7c0.3,0.2,0.6,0.3,1,0.4c0.3,0.1,0.7,0.1,1,0.1c0.4,0,0.7,0,1.1-0.1
			s0.7-0.2,1.1-0.3l0.4,1.2c-1.2,0.5-2.3,0.9-3.2,1.2c-0.9,0.3-1.7,0.4-2.3,0.4c-0.3,0-0.6,0-0.9-0.1c-0.3-0.1-0.6-0.2-0.8-0.3
			s-0.5-0.3-0.8-0.5c-0.3-0.2-0.6-0.5-0.9-0.8c-0.5-0.5-1.1-1.1-1.8-1.9s-1.4-1.9-2.3-3.1c-0.8-1.2-1.8-2.7-2.8-4.4
			s-2.2-3.6-3.4-5.9l0-0.2c1.7-0.1,3.1-0.3,4.2-0.7c1.1-0.4,2.1-0.9,2.8-1.6c0.7-0.7,1.2-1.5,1.5-2.4s0.5-2,0.5-3.1
			c0-2.2-0.6-3.9-1.7-5c-1.2-1.1-2.9-1.6-5.2-1.6c-0.5,0-1,0-1.4,0.1c-0.4,0-0.9,0.1-1.5,0.2c0,0.7,0,1.7-0.1,2.9s-0.1,2.6-0.1,4.2
			c0,1.6-0.1,3.3-0.1,5.2c-0.1,1.9-0.1,3.8-0.2,5.9c-0.1,2-0.1,4.1-0.2,6.3c-0.1,2.2-0.1,4.3-0.2,6.4l-3.3,0.4l-0.3,0
			c0.1-2.7,0.2-5.3,0.3-7.7c0.1-2.4,0.2-4.8,0.2-7.1c0.1-2.3,0.1-4.5,0.1-6.8C88.2,442.1,88.2,439.8,88.2,437.5z"/>
		<path class="st2" d="M111.2,457.4c0-0.9,0.1-1.9,0.3-2.9c0.2-1,0.5-1.9,0.9-2.8c0.4-0.9,0.9-1.8,1.4-2.6c0.6-0.8,1.2-1.5,2-2.1
			s1.6-1.1,2.5-1.4s1.9-0.5,3-0.5c1.2,0,2.3,0.3,3.2,0.8c0.9,0.5,1.7,1.2,2.3,2c0.6,0.8,1.1,1.8,1.4,2.8c0.3,1.1,0.5,2.1,0.5,3.3
			c0,0.9-0.1,1.9-0.3,2.9c-0.2,1-0.5,1.9-0.9,2.8c-0.4,0.9-0.9,1.8-1.4,2.6c-0.6,0.8-1.2,1.5-2,2.1c-0.7,0.6-1.6,1.1-2.5,1.4
			s-1.9,0.5-3,0.5c-1.2,0-2.3-0.3-3.2-0.8c-0.9-0.5-1.7-1.2-2.3-2c-0.6-0.8-1.1-1.8-1.4-2.8C111.4,459.5,111.2,458.5,111.2,457.4z
			 M114.6,456c0,0.6,0,1.3,0.1,1.9c0.1,0.7,0.3,1.3,0.5,1.9s0.5,1.2,0.8,1.7s0.7,1,1.1,1.4c0.4,0.4,0.9,0.7,1.4,0.9
			c0.5,0.2,1.1,0.3,1.7,0.3c0.7,0,1.3-0.1,1.8-0.4c0.5-0.3,1-0.7,1.4-1.2c0.4-0.5,0.7-1,0.9-1.7c0.2-0.6,0.4-1.3,0.6-1.9
			s0.3-1.3,0.3-2c0.1-0.7,0.1-1.3,0.1-1.8c0-0.6,0-1.3-0.1-2c-0.1-0.6-0.3-1.3-0.5-1.9c-0.2-0.6-0.5-1.2-0.8-1.7
			c-0.3-0.5-0.7-1-1.1-1.4s-0.9-0.7-1.4-0.9c-0.5-0.2-1.1-0.3-1.7-0.3c-0.7,0-1.3,0.1-1.8,0.4c-0.5,0.3-1,0.7-1.4,1.2
			s-0.7,1-0.9,1.7c-0.2,0.6-0.4,1.3-0.6,1.9s-0.3,1.3-0.3,2C114.6,454.9,114.6,455.5,114.6,456z"/>
		<path class="st2" d="M138.9,427.6c-0.2,1.5-0.4,3.1-0.5,4.7c-0.2,1.6-0.3,3.2-0.5,4.8c-0.2,1.6-0.3,3.3-0.5,4.9
			c-0.2,1.7-0.3,3.3-0.4,4.9c-0.1,1.6-0.2,3.2-0.3,4.7c-0.1,1.6-0.2,3-0.2,4.4l0.2,0c0.7-1.8,1.5-3.4,2.4-4.8
			c0.9-1.4,1.7-2.6,2.6-3.5c0.9-0.9,1.8-1.6,2.6-2.1c0.9-0.5,1.7-0.7,2.5-0.7c0.6,0,1.2,0.1,1.7,0.4c0.5,0.2,0.9,0.6,1.3,1
			c0.4,0.4,0.7,0.9,0.9,1.4c0.2,0.5,0.4,1.1,0.6,1.6c0.2,0.6,0.3,1.1,0.3,1.7c0.1,0.6,0.1,1.1,0.1,1.6c0,1.4-0.1,2.7-0.4,3.9
			c-0.3,1.2-0.7,2.3-1.1,3.3c-0.5,1-1.1,1.9-1.7,2.7c-0.7,0.8-1.4,1.4-2.2,2c-0.8,0.5-1.6,0.9-2.5,1.2c-0.9,0.3-1.7,0.4-2.6,0.4
			c-0.6,0-1.2-0.1-1.8-0.2s-1.2-0.3-1.7-0.6c-0.6-0.3-1.1-0.6-1.6-1c-0.5-0.4-0.9-0.9-1.3-1.5c-0.3,0.8-0.7,1.5-1,2
			s-0.7,0.9-0.9,1.3l-0.7-0.2c0.5-1.4,0.9-3.2,1.1-5.2c0.2-2,0.4-4.3,0.6-6.8c0-1.1,0.1-2.3,0.2-3.7s0.1-2.9,0.2-4.4
			c0.1-1.5,0.2-3.1,0.2-4.7c0.1-1.6,0.2-3.2,0.3-4.7c0.1-1.5,0.2-3,0.2-4.3s0.1-2.6,0.2-3.6c0-0.2,0.1-0.4,0.2-0.6
			c0.1-0.2,0.3-0.3,0.5-0.4c0.2-0.1,0.4-0.2,0.7-0.2c0.2,0,0.5-0.1,0.7-0.1C137.6,427.2,138.2,427.3,138.9,427.6z M148.1,454.1
			c0-0.6,0-1.3-0.1-2s-0.3-1.3-0.5-1.8c-0.2-0.6-0.5-1-0.8-1.4c-0.3-0.4-0.8-0.5-1.2-0.5c-0.6,0-1.1,0.1-1.7,0.4
			c-0.6,0.3-1.1,0.7-1.6,1.2c-0.5,0.5-1,1-1.5,1.7c-0.5,0.6-0.9,1.3-1.3,2c-0.4,0.7-0.8,1.4-1.1,2.1c-0.3,0.7-0.6,1.4-0.9,2
			s-0.4,1.2-0.6,1.7c-0.1,0.5-0.2,0.9-0.2,1.2c0.1,0.6,0.4,1.1,0.7,1.6c0.3,0.5,0.7,0.9,1.1,1.2c0.4,0.3,0.9,0.6,1.4,0.8
			c0.5,0.2,1.1,0.3,1.6,0.3c0.9,0,1.8-0.2,2.7-0.7c0.8-0.5,1.6-1.2,2.2-2.1s1.1-2,1.5-3.3C147.9,457.2,148.1,455.7,148.1,454.1z"/>
		<path class="st2" d="M154.8,457.4c0-0.9,0.1-1.9,0.3-2.9c0.2-1,0.5-1.9,0.9-2.8c0.4-0.9,0.9-1.8,1.4-2.6c0.6-0.8,1.2-1.5,2-2.1
			c0.7-0.6,1.6-1.1,2.5-1.4c0.9-0.3,1.9-0.5,3-0.5c1.2,0,2.3,0.3,3.2,0.8c0.9,0.5,1.7,1.2,2.3,2c0.6,0.8,1.1,1.8,1.4,2.8
			c0.3,1.1,0.5,2.1,0.5,3.3c0,0.9-0.1,1.9-0.3,2.9c-0.2,1-0.5,1.9-0.9,2.8c-0.4,0.9-0.9,1.8-1.4,2.6c-0.6,0.8-1.2,1.5-2,2.1
			c-0.7,0.6-1.6,1.1-2.5,1.4c-0.9,0.3-1.9,0.5-3,0.5c-1.2,0-2.3-0.3-3.2-0.8c-0.9-0.5-1.7-1.2-2.3-2c-0.6-0.8-1.1-1.8-1.4-2.8
			C155,459.5,154.8,458.5,154.8,457.4z M158.2,456c0,0.6,0,1.3,0.1,1.9s0.3,1.3,0.5,1.9s0.5,1.2,0.8,1.7c0.3,0.5,0.7,1,1.1,1.4
			s0.9,0.7,1.4,0.9c0.5,0.2,1.1,0.3,1.7,0.3c0.7,0,1.3-0.1,1.8-0.4c0.5-0.3,1-0.7,1.4-1.2s0.7-1,0.9-1.7c0.2-0.6,0.4-1.3,0.6-1.9
			c0.2-0.7,0.3-1.3,0.3-2c0.1-0.7,0.1-1.3,0.1-1.8c0-0.6,0-1.3-0.1-2c-0.1-0.6-0.3-1.3-0.5-1.9c-0.2-0.6-0.5-1.2-0.8-1.7
			c-0.3-0.5-0.7-1-1.1-1.4c-0.4-0.4-0.9-0.7-1.4-0.9c-0.5-0.2-1.1-0.3-1.7-0.3c-0.7,0-1.3,0.1-1.8,0.4s-1,0.7-1.4,1.2
			c-0.4,0.5-0.7,1-0.9,1.7c-0.2,0.6-0.4,1.3-0.6,1.9c-0.2,0.7-0.3,1.3-0.3,2C158.2,454.9,158.2,455.5,158.2,456z"/>
		<path class="st2" d="M182.7,435c-0.4,1.8-0.7,3.6-1,5.5c-0.3,1.9-0.5,3.8-0.7,5.6c0.4,0,0.9,0,1.3,0s0.8,0,1.2,0c0.4,0,0.7,0,1,0
			c0.3,0,0.5,0,0.7,0c0.9,0,1.6-0.1,2.1-0.2c0,0.2,0.1,0.3,0.1,0.4s0,0.3,0,0.4c0,0.4-0.2,0.7-0.5,0.8s-0.8,0.2-1.5,0.2
			c-0.6,0-1.3,0-2.1-0.1s-1.6-0.1-2.5-0.2c-0.1,1-0.2,2-0.3,2.9c-0.1,1-0.1,1.9-0.2,2.7c0,0.8-0.1,1.6-0.1,2.4c0,0.7,0,1.4,0,1.9
			c0,1,0.1,1.9,0.2,2.7c0.1,0.8,0.3,1.5,0.5,2c0.3,0.6,0.6,1,1.1,1.3c0.5,0.3,1,0.4,1.7,0.4c0.5,0,1.1-0.1,1.7-0.3
			c0.6-0.2,1.3-0.5,2.1-0.9c0.3,0.3,0.4,0.6,0.4,0.9c-0.6,0.4-1.2,0.7-1.8,1.1c-0.6,0.3-1.2,0.6-1.7,0.8s-1.1,0.4-1.7,0.5
			c-0.5,0.1-1,0.2-1.5,0.2c-0.6,0-1.2-0.1-1.7-0.3c-0.5-0.2-1-0.6-1.4-1.2c-0.4-0.6-0.7-1.4-0.9-2.4c-0.2-1-0.3-2.3-0.3-3.8
			c0-0.9,0-1.7,0-2.6s0.1-1.8,0.1-2.8c0-0.9,0.1-1.9,0.2-2.8c0.1-0.9,0.2-1.8,0.3-2.7c-0.7,0-1.4,0-2.1,0.1
			c-0.6,0.1-1.2,0.1-1.6,0.2c0-0.1,0-0.1,0-0.2c0-0.2,0.1-0.4,0.3-0.6c0.2-0.2,0.5-0.3,0.8-0.5s0.8-0.3,1.2-0.4
			c0.5-0.1,1-0.2,1.6-0.2c0.2-2,0.4-3.8,0.7-5.6c0.2-1.7,0.5-3.3,0.7-4.7c0-0.2,0.1-0.4,0.3-0.6c0.1-0.2,0.3-0.3,0.4-0.4
			c0.2-0.1,0.4-0.2,0.5-0.2c0.2,0,0.4-0.1,0.6-0.1c0.3,0,0.6,0,0.8,0.1C182.3,434.8,182.5,434.9,182.7,435z"/>
		<path class="st2" d="M206.2,446.1c0.5,0,0.9,0,1.4,0s0.8,0,1.2,0s0.7,0,1,0c0.3,0,0.6,0,0.8,0c0.4,0,0.8,0,1.2,0
			c0.4,0,0.7-0.1,1-0.1c0.1,0.4,0.2,0.6,0.2,0.8c0,0.4-0.2,0.7-0.5,0.8s-0.8,0.2-1.5,0.2s-1.4,0-2.2-0.1c-0.8-0.1-1.7-0.1-2.6-0.2
			c0,1.1-0.1,2.3-0.1,3.7c-0.1,1.3-0.1,2.7-0.2,4.1c-0.1,1.4-0.2,2.8-0.3,4.3c-0.1,1.4-0.3,2.9-0.5,4.2c-0.2,1.4-0.4,2.7-0.7,4
			c-0.3,1.2-0.6,2.4-0.9,3.4c-0.6,1.6-1.2,2.9-1.9,4c-0.7,1.1-1.4,1.9-2.2,2.6c-0.8,0.6-1.6,1.1-2.4,1.4c-0.8,0.3-1.7,0.4-2.5,0.4
			c-0.7,0-1.4-0.1-2-0.2s-1.1-0.4-1.6-0.6s-0.8-0.6-1.1-0.9c-0.3-0.4-0.4-0.7-0.4-1.2c0-0.2,0.1-0.5,0.2-0.7s0.2-0.4,0.4-0.6
			c0.2-0.2,0.4-0.3,0.6-0.4c0.2-0.1,0.5-0.2,0.8-0.2c0.3,0.5,0.6,0.9,0.9,1.2c0.3,0.3,0.7,0.6,1.1,0.8c0.4,0.2,0.8,0.4,1.2,0.5
			c0.4,0.1,0.8,0.2,1.2,0.2c1.1,0,2-0.4,2.8-1c0.8-0.7,1.4-1.7,1.9-3c0.5-1.3,0.9-2.8,1.2-4.6c0.3-1.8,0.5-3.8,0.7-6.1
			c0.2-2.2,0.3-4.6,0.3-7.2c0.1-2.6,0.1-5.3,0.1-8.1c-0.9,0-1.7,0-2.5,0.1s-1.4,0.2-1.9,0.4c0-0.1-0.1-0.2-0.1-0.3
			c0-0.2,0.1-0.4,0.3-0.6c0.2-0.2,0.5-0.4,0.9-0.5c0.4-0.2,0.9-0.3,1.4-0.4c0.5-0.1,1.2-0.2,1.8-0.2c0-0.9,0.1-1.7,0.1-2.5
			c0.1-0.8,0.1-1.6,0.2-2.4c0.1-0.8,0.2-1.6,0.3-2.4c0.1-0.8,0.3-1.6,0.5-2.5c0.3-1.1,0.6-2.1,1-3c0.4-0.9,0.9-1.7,1.4-2.3
			c0.5-0.7,1.1-1.3,1.7-1.8c0.6-0.5,1.2-0.9,1.8-1.2c0.6-0.3,1.3-0.5,1.9-0.7c0.6-0.1,1.3-0.2,1.9-0.2c0.9,0,1.7,0.1,2.4,0.4
			c0.7,0.2,1.3,0.6,1.8,0.9c0.5,0.4,0.9,0.8,1.1,1.3c0.3,0.5,0.4,1,0.4,1.5c0,0.4-0.1,0.7-0.2,1.1c-0.1,0.3-0.3,0.6-0.5,0.8
			c-0.2,0.2-0.5,0.4-0.8,0.5c-0.3,0.1-0.6,0.2-0.9,0.2c-0.4,0-0.9-0.1-1.4-0.3l-0.1-0.2c0.2-0.4,0.3-0.8,0.4-1.1
			c0.1-0.3,0.1-0.6,0.1-1c0-0.5-0.1-0.8-0.3-1.2c-0.2-0.3-0.4-0.6-0.7-0.8c-0.3-0.2-0.6-0.4-1-0.5c-0.4-0.1-0.7-0.1-1.1-0.1
			c-1.1,0-1.9,0.2-2.7,0.7c-0.7,0.5-1.3,1.1-1.8,1.9c-0.5,0.8-0.9,1.8-1.1,2.9c-0.3,1.1-0.5,2.3-0.6,3.6c-0.1,1.3-0.2,2.6-0.3,4
			C206.3,443.3,206.3,444.7,206.2,446.1z"/>
		<path class="st2" d="M212.5,457.4c0-0.9,0.1-1.9,0.3-2.9s0.5-1.9,0.9-2.8c0.4-0.9,0.9-1.8,1.4-2.6c0.6-0.8,1.2-1.5,2-2.1
			c0.7-0.6,1.6-1.1,2.5-1.4s1.9-0.5,3-0.5c1.2,0,2.3,0.3,3.2,0.8c0.9,0.5,1.7,1.2,2.3,2c0.6,0.8,1.1,1.8,1.4,2.8
			c0.3,1.1,0.5,2.1,0.5,3.3c0,0.9-0.1,1.9-0.3,2.9c-0.2,1-0.5,1.9-0.9,2.8c-0.4,0.9-0.9,1.8-1.4,2.6c-0.6,0.8-1.2,1.5-2,2.1
			c-0.7,0.6-1.6,1.1-2.5,1.4s-1.9,0.5-3,0.5c-1.2,0-2.3-0.3-3.2-0.8c-0.9-0.5-1.7-1.2-2.3-2c-0.6-0.8-1.1-1.8-1.4-2.8
			C212.6,459.5,212.5,458.5,212.5,457.4z M215.8,456c0,0.6,0,1.3,0.1,1.9s0.3,1.3,0.5,1.9s0.5,1.2,0.8,1.7s0.7,1,1.1,1.4
			c0.4,0.4,0.9,0.7,1.4,0.9c0.5,0.2,1.1,0.3,1.7,0.3c0.7,0,1.3-0.1,1.8-0.4c0.5-0.3,1-0.7,1.4-1.2s0.7-1,0.9-1.7
			c0.2-0.6,0.4-1.3,0.6-1.9c0.2-0.7,0.3-1.3,0.3-2c0.1-0.7,0.1-1.3,0.1-1.8c0-0.6,0-1.3-0.1-2c-0.1-0.6-0.3-1.3-0.5-1.9
			c-0.2-0.6-0.5-1.2-0.8-1.7c-0.3-0.5-0.7-1-1.1-1.4c-0.4-0.4-0.9-0.7-1.4-0.9c-0.5-0.2-1.1-0.3-1.7-0.3c-0.7,0-1.3,0.1-1.8,0.4
			s-1,0.7-1.4,1.2c-0.4,0.5-0.7,1-0.9,1.7c-0.2,0.6-0.4,1.3-0.6,1.9c-0.2,0.7-0.3,1.3-0.3,2C215.9,454.9,215.8,455.5,215.8,456z"/>
		<path class="st2" d="M235.2,465.8l-0.2,0c0.1-0.9,0.1-1.9,0.2-2.9c0.1-1.1,0.1-2.1,0.2-3.2c0.1-1.1,0.1-2.2,0.1-3.2
			c0-1.1,0.1-2.1,0.1-3c0-0.9,0.1-1.8,0.1-2.5c0-0.7,0-1.3,0-1.7c0-0.3,0-0.6,0-0.9c0-0.3-0.1-0.5-0.2-0.6c-0.1-0.2-0.2-0.3-0.4-0.4
			c-0.2-0.1-0.4-0.1-0.8-0.1c-0.2,0-0.3,0-0.5,0c-0.2,0-0.4,0-0.6,0.1c-0.2,0-0.4,0.1-0.7,0.2c-0.3,0.1-0.6,0.1-0.9,0.2l-0.2-1
			c1.6-0.6,2.8-1,3.8-1.2c1-0.2,1.6-0.3,2-0.3c0.6,0,1.1,0.2,1.3,0.5c0.3,0.4,0.4,0.9,0.4,1.6c0,0.1,0,0.3,0,0.6
			c0,0.3,0,0.7-0.1,1.2c0,0.5-0.1,1.1-0.1,1.8s-0.1,1.4-0.2,2.2c-0.1,0.8-0.1,1.6-0.2,2.4c-0.1,0.8-0.2,1.7-0.2,2.5l0.1,0
			c0.5-1.8,1-3.6,1.5-5.1c0.6-1.6,1.2-3,1.9-4.2c0.7-1.2,1.5-2.1,2.3-2.8c0.9-0.7,1.8-1,2.8-1c0.4,0,0.7,0.1,1,0.2
			c0.3,0.1,0.6,0.3,0.8,0.5c0.2,0.2,0.4,0.4,0.5,0.7c0.1,0.3,0.2,0.6,0.2,0.9c0,0.4-0.1,0.8-0.3,1.2c-0.2,0.4-0.5,0.7-0.9,1h-0.1
			c-0.4-0.3-0.8-0.6-1.1-0.7s-0.7-0.2-1.1-0.2c-0.4,0-0.8,0.1-1.2,0.2c-0.4,0.2-0.8,0.4-1.1,0.7c-0.5,0.5-1,1.1-1.5,1.9
			c-0.5,0.8-0.9,1.7-1.3,2.7c-0.4,1-0.7,2-1,3.1c-0.3,1.1-0.6,2.1-0.8,3.1c-0.2,1-0.4,2-0.5,2.9c-0.1,0.9-0.2,1.7-0.3,2.3
			L235.2,465.8z"/>
		<path class="st2" d="M261.6,460.4c0.1,0.7,0.3,1.3,0.6,1.8c0.3,0.5,0.7,0.9,1.2,1.3c0.5,0.3,1,0.6,1.5,0.7
			c0.6,0.2,1.1,0.2,1.7,0.2c0.5,0,1-0.1,1.5-0.2s0.9-0.3,1.3-0.6c0.4-0.3,0.7-0.6,0.9-1c0.2-0.4,0.3-0.8,0.3-1.3
			c0-0.5-0.1-0.9-0.4-1.3c-0.2-0.4-0.5-0.7-0.9-1c-0.4-0.3-0.9-0.6-1.4-0.9c-0.5-0.3-1.1-0.5-1.6-0.8c-0.5-0.2-1-0.5-1.5-0.7
			c-0.5-0.2-1-0.5-1.5-0.8c-0.5-0.3-0.9-0.6-1.3-0.9s-0.8-0.7-1.1-1.1c-0.3-0.4-0.5-0.8-0.7-1.3c-0.2-0.5-0.3-1-0.3-1.6
			c0-0.6,0.1-1.2,0.3-1.8c0.2-0.5,0.5-1,0.9-1.5c0.4-0.4,0.8-0.8,1.4-1.2c0.5-0.3,1.1-0.6,1.6-0.8c0.6-0.2,1.2-0.4,1.8-0.5
			c0.6-0.1,1.2-0.2,1.8-0.2c0.8,0,1.5,0.1,2.1,0.2c0.7,0.2,1.3,0.4,1.8,0.7c0.5,0.3,0.9,0.7,1.2,1.1c0.3,0.5,0.4,1,0.4,1.5
			c0,0.2,0,0.5-0.1,0.7s-0.2,0.5-0.4,0.7c-0.2,0.2-0.4,0.4-0.7,0.6c-0.3,0.2-0.6,0.2-1.1,0.2c-0.4,0-0.8-0.1-1.2-0.2l0-0.1
			c0.1-0.3,0.2-0.6,0.3-0.8s0.1-0.5,0.1-0.7c0-0.4-0.1-0.8-0.3-1.1c-0.2-0.3-0.5-0.5-0.8-0.7c-0.3-0.2-0.7-0.3-1.1-0.4
			c-0.4-0.1-0.8-0.1-1.1-0.1c-0.7,0-1.3,0.1-1.8,0.3c-0.5,0.2-1,0.4-1.3,0.7c-0.4,0.3-0.6,0.6-0.8,1c-0.2,0.4-0.3,0.8-0.3,1.2
			c0,0.5,0.1,1,0.4,1.4c0.3,0.4,0.6,0.8,1.1,1.1c0.5,0.3,1,0.7,1.6,1c0.6,0.3,1.2,0.6,1.8,0.9c0.7,0.3,1.4,0.7,2.1,1
			c0.7,0.4,1.3,0.8,1.9,1.2c0.6,0.5,1,1,1.3,1.6c0.3,0.6,0.5,1.3,0.5,2.1c0,1-0.2,1.8-0.6,2.6s-1,1.4-1.7,1.9
			c-0.7,0.5-1.5,0.9-2.5,1.2c-0.9,0.3-1.9,0.4-2.9,0.4c-0.5,0-1,0-1.5-0.1c-0.5-0.1-1-0.2-1.5-0.3s-1-0.3-1.4-0.6
			c-0.4-0.2-0.8-0.5-1.2-0.8c-0.3-0.3-0.6-0.6-0.8-1c-0.2-0.3-0.3-0.7-0.3-1.2c0-0.4,0.1-0.7,0.2-0.9s0.4-0.5,0.6-0.6
			s0.5-0.3,0.9-0.4c0.3-0.1,0.6-0.1,1-0.1L261.6,460.4z"/>
		<path class="st2" d="M290.5,461.1c0.1,0,0.1,0.1,0.2,0.1c0.1,0.1,0.2,0.1,0.2,0.2c0.1,0.1,0.1,0.1,0.2,0.2
			c0.1,0.1,0.1,0.1,0.1,0.2c0,0,0,0.1,0,0.1c-0.5,0.7-1.1,1.4-1.7,1.9s-1.2,1-1.9,1.4c-0.7,0.4-1.3,0.6-2,0.8
			c-0.7,0.2-1.3,0.3-2,0.3c-1.1,0-2.2-0.2-3.1-0.7c-0.9-0.5-1.7-1.1-2.4-1.9c-0.7-0.8-1.2-1.7-1.6-2.8c-0.4-1.1-0.6-2.2-0.6-3.5
			c0-1,0.1-2,0.3-3c0.2-1,0.5-2,1-2.9c0.4-0.9,0.9-1.8,1.5-2.5c0.6-0.8,1.3-1.5,2.1-2c0.8-0.6,1.6-1,2.5-1.4c0.9-0.3,1.9-0.5,3-0.5
			c0.7,0,1.4,0.1,2,0.3c0.6,0.2,1.2,0.5,1.7,0.8c0.5,0.3,0.9,0.8,1.1,1.3c0.3,0.5,0.4,1.1,0.4,1.8c0,1-0.3,1.8-0.9,2.5
			c-0.6,0.7-1.5,1.3-2.6,1.8s-2.4,0.9-3.9,1.2c-1.5,0.3-3.1,0.5-4.8,0.7v0.2c0,1.2,0.2,2.3,0.5,3.3c0.3,1,0.7,1.9,1.3,2.6
			c0.5,0.7,1.2,1.3,1.9,1.7c0.7,0.4,1.5,0.6,2.3,0.6c0.8,0,1.7-0.2,2.6-0.6C288.7,462.7,289.6,462,290.5,461.1z M287.8,449.8
			c0-0.4-0.1-0.8-0.2-1.2c-0.1-0.4-0.3-0.7-0.6-1c-0.3-0.3-0.6-0.5-0.9-0.7c-0.4-0.2-0.7-0.2-1.2-0.2c-0.6,0-1.2,0.1-1.7,0.3
			c-0.5,0.2-0.9,0.5-1.3,0.9c-0.4,0.4-0.7,0.8-1,1.3c-0.3,0.5-0.6,1-0.8,1.6s-0.4,1.1-0.5,1.7c-0.1,0.6-0.2,1.2-0.3,1.7
			c1.3-0.1,2.5-0.3,3.6-0.5c1.1-0.2,1.9-0.5,2.7-0.9c0.7-0.4,1.3-0.8,1.7-1.3C287.7,451,287.8,450.4,287.8,449.8z"/>
		<path class="st2" d="M296.1,465.8l-0.2,0c0.1-0.9,0.1-1.9,0.2-2.9s0.1-2.1,0.2-3.2c0.1-1.1,0.1-2.2,0.1-3.2c0-1.1,0.1-2.1,0.1-3
			c0-0.9,0.1-1.8,0.1-2.5s0-1.3,0-1.7c0-0.3,0-0.6,0-0.9c0-0.3-0.1-0.5-0.2-0.6c-0.1-0.2-0.2-0.3-0.4-0.4s-0.4-0.1-0.8-0.1
			c-0.2,0-0.3,0-0.5,0c-0.2,0-0.4,0-0.6,0.1c-0.2,0-0.4,0.1-0.7,0.2s-0.6,0.1-0.9,0.2l-0.2-1c1.6-0.6,2.8-1,3.8-1.2
			c1-0.2,1.6-0.3,2-0.3c0.6,0,1.1,0.2,1.3,0.5c0.3,0.4,0.4,0.9,0.4,1.6c0,0.1,0,0.3,0,0.6c0,0.3,0,0.7-0.1,1.2
			c0,0.5-0.1,1.1-0.1,1.8s-0.1,1.4-0.2,2.2c-0.1,0.8-0.1,1.6-0.2,2.4c-0.1,0.8-0.2,1.7-0.2,2.5l0.1,0c0.5-1.8,1-3.6,1.5-5.1
			c0.6-1.6,1.2-3,1.9-4.2c0.7-1.2,1.5-2.1,2.3-2.8c0.9-0.7,1.8-1,2.8-1c0.4,0,0.7,0.1,1,0.2c0.3,0.1,0.6,0.3,0.8,0.5
			c0.2,0.2,0.4,0.4,0.5,0.7s0.2,0.6,0.2,0.9c0,0.4-0.1,0.8-0.3,1.2c-0.2,0.4-0.5,0.7-0.9,1H309c-0.4-0.3-0.8-0.6-1.1-0.7
			s-0.7-0.2-1.1-0.2c-0.4,0-0.8,0.1-1.2,0.2c-0.4,0.2-0.8,0.4-1.1,0.7c-0.5,0.5-1,1.1-1.5,1.9c-0.5,0.8-0.9,1.7-1.3,2.7
			c-0.4,1-0.7,2-1,3.1c-0.3,1.1-0.6,2.1-0.8,3.1c-0.2,1-0.4,2-0.5,2.9c-0.1,0.9-0.2,1.7-0.3,2.3L296.1,465.8z"/>
		<path class="st2" d="M324.7,461.1c0.1,0,0.1,0.1,0.2,0.1c0.1,0.1,0.2,0.1,0.2,0.2s0.1,0.1,0.2,0.2c0.1,0.1,0.1,0.1,0.1,0.2
			c0,0,0,0.1,0,0.1c-0.5,0.7-1.1,1.4-1.7,1.9c-0.6,0.5-1.2,1-1.9,1.4c-0.7,0.4-1.3,0.6-2,0.8c-0.7,0.2-1.3,0.3-2,0.3
			c-1.1,0-2.2-0.2-3.1-0.7c-0.9-0.5-1.7-1.1-2.4-1.9s-1.2-1.7-1.6-2.8c-0.4-1.1-0.6-2.2-0.6-3.5c0-1,0.1-2,0.3-3c0.2-1,0.5-2,1-2.9
			c0.4-0.9,0.9-1.8,1.5-2.5c0.6-0.8,1.3-1.5,2.1-2c0.8-0.6,1.6-1,2.5-1.4c0.9-0.3,1.9-0.5,3-0.5c0.7,0,1.4,0.1,2,0.3
			c0.6,0.2,1.2,0.5,1.7,0.8c0.5,0.3,0.9,0.8,1.1,1.3c0.3,0.5,0.4,1.1,0.4,1.8c0,1-0.3,1.8-0.9,2.5c-0.6,0.7-1.5,1.3-2.6,1.8
			s-2.4,0.9-3.9,1.2c-1.5,0.3-3.1,0.5-4.8,0.7v0.2c0,1.2,0.2,2.3,0.5,3.3c0.3,1,0.7,1.9,1.3,2.6c0.5,0.7,1.2,1.3,1.9,1.7
			c0.7,0.4,1.5,0.6,2.3,0.6c0.8,0,1.7-0.2,2.6-0.6C322.9,462.7,323.8,462,324.7,461.1z M322.1,449.8c0-0.4-0.1-0.8-0.2-1.2
			c-0.1-0.4-0.3-0.7-0.6-1c-0.3-0.3-0.6-0.5-0.9-0.7c-0.4-0.2-0.7-0.2-1.2-0.2c-0.6,0-1.2,0.1-1.7,0.3c-0.5,0.2-0.9,0.5-1.3,0.9
			c-0.4,0.4-0.7,0.8-1,1.3c-0.3,0.5-0.6,1-0.8,1.6c-0.2,0.6-0.4,1.1-0.5,1.7c-0.1,0.6-0.2,1.2-0.3,1.7c1.3-0.1,2.5-0.3,3.6-0.5
			c1.1-0.2,1.9-0.5,2.7-0.9c0.7-0.4,1.3-0.8,1.7-1.3C321.9,451,322.1,450.4,322.1,449.8z"/>
		<path class="st2" d="M330.9,449.3c0-0.4,0-0.7-0.1-1c-0.1-0.3-0.1-0.5-0.3-0.6c-0.1-0.2-0.3-0.3-0.4-0.3c-0.2-0.1-0.4-0.1-0.6-0.1
			c-0.3,0-0.7,0-1.2,0.1c-0.5,0.1-1,0.2-1.6,0.4l-0.2-1c0.7-0.2,1.3-0.4,1.9-0.6c0.6-0.2,1.2-0.4,1.7-0.5c0.5-0.1,1-0.2,1.4-0.3
			c0.4-0.1,0.7-0.1,0.9-0.1c0.5,0,1,0.2,1.3,0.5c0.3,0.3,0.5,0.9,0.5,1.7c0,0.1,0,0.3,0,0.7s0,0.8-0.1,1.3c0,0.5-0.1,1.1-0.1,1.8
			c0,0.7-0.1,1.4-0.2,2.2s-0.1,1.6-0.2,2.4c-0.1,0.8-0.2,1.6-0.2,2.5l0.1,0c0.7-2.4,1.5-4.5,2.3-6.1c0.8-1.7,1.6-3,2.5-4.1
			c0.8-1,1.7-1.8,2.5-2.2c0.8-0.5,1.6-0.7,2.4-0.7c0.5,0,1,0.1,1.5,0.3c0.5,0.2,0.9,0.5,1.3,0.9c0.4,0.4,0.7,1,0.9,1.7
			c0.2,0.7,0.3,1.5,0.3,2.5c0,0.3,0,0.7,0,1.1c0,0.5-0.1,1-0.1,1.6c0,0.6-0.1,1.2-0.2,1.9c-0.1,0.7-0.1,1.3-0.2,1.9
			c0,0.6-0.1,1.2-0.1,1.8c0,0.6,0,1.1,0,1.5c0,0.7,0,1.3,0.1,1.8c0.1,0.5,0.2,0.8,0.3,1.1c0.1,0.3,0.3,0.5,0.6,0.6
			c0.2,0.1,0.5,0.1,0.9,0.1c0.5,0,1-0.1,1.5-0.2s1.1-0.3,1.6-0.6l0.3,0.7c-0.3,0.3-0.8,0.5-1.3,0.8c-0.5,0.3-1.1,0.5-1.6,0.8
			c-0.6,0.2-1.1,0.4-1.7,0.6c-0.6,0.1-1.1,0.2-1.5,0.2c-0.5,0-0.9-0.1-1.2-0.4c-0.3-0.3-0.5-0.6-0.7-1.1s-0.2-1-0.3-1.6
			c0-0.6-0.1-1.3-0.1-2c0-0.9,0-1.8,0.1-2.7c0.1-0.9,0.1-1.8,0.2-2.7c0.1-0.8,0.1-1.6,0.2-2.3c0.1-0.7,0.1-1.2,0.1-1.7
			c0-1.1-0.2-1.9-0.6-2.4c-0.4-0.5-1-0.8-1.6-0.8c-0.5,0-1.1,0.2-1.7,0.7s-1.2,1.1-1.8,1.9c-0.6,0.8-1.2,1.8-1.7,2.8s-1,2.3-1.5,3.6
			c-0.4,1.3-0.8,2.6-1.1,4c-0.3,1.4-0.5,2.8-0.5,4.2l-2.9,0.4l-0.2,0c0.1-0.9,0.1-1.9,0.2-2.9s0.1-2.1,0.2-3.2
			c0.1-1.1,0.1-2.2,0.1-3.2c0-1.1,0.1-2.1,0.1-3c0-0.9,0.1-1.8,0.1-2.5C330.9,450.3,330.9,449.7,330.9,449.3z"/>
		<path class="st2" d="M358.6,445.6c-0.2,1.1-0.3,2.1-0.4,3.2c-0.1,1.1-0.2,2.1-0.3,3.1c-0.1,1-0.1,2-0.2,2.9c0,0.9,0,1.7,0,2.4
			c0,1,0,1.8,0,2.5c0,0.7,0.1,1.3,0.1,1.8s0.1,0.9,0.2,1.1c0.1,0.3,0.2,0.5,0.4,0.7c0.1,0.2,0.3,0.3,0.5,0.3s0.4,0.1,0.7,0.1
			c0.5,0,0.9-0.1,1.5-0.2c0.5-0.1,1-0.3,1.6-0.6l0.3,0.7c-0.3,0.3-0.8,0.5-1.3,0.8c-0.5,0.3-1,0.5-1.6,0.8c-0.6,0.2-1.1,0.4-1.7,0.6
			c-0.5,0.1-1,0.2-1.4,0.2c-0.3,0-0.5,0-0.7-0.1c-0.2,0-0.4-0.1-0.6-0.3c-0.2-0.2-0.3-0.4-0.5-0.7s-0.2-0.8-0.3-1.3
			c-0.1-0.6-0.2-1.3-0.2-2.1c0-0.8-0.1-1.9-0.1-3.1c0-0.7,0-1.5,0-2.4c0-0.9,0-1.8,0.1-2.9c0-1,0.1-2.1,0.1-3.2
			c0-1.1,0.1-2.3,0.2-3.5c0-0.3,0.1-0.5,0.2-0.6c0.1-0.2,0.3-0.3,0.5-0.4c0.2-0.1,0.4-0.2,0.6-0.2c0.2,0,0.4,0,0.6,0
			C357.4,445.2,358,445.3,358.6,445.6z M357.3,439.3c-0.3,0-0.6-0.1-0.9-0.2s-0.5-0.3-0.6-0.5c-0.2-0.2-0.3-0.5-0.4-0.8
			c-0.1-0.3-0.1-0.6-0.1-0.9c0-0.4,0.1-0.8,0.2-1.1c0.1-0.3,0.3-0.6,0.5-0.8c0.2-0.2,0.5-0.4,0.7-0.5c0.3-0.1,0.5-0.2,0.8-0.2
			c0.3,0,0.6,0.1,0.9,0.2s0.5,0.3,0.7,0.5c0.2,0.2,0.3,0.4,0.4,0.7c0.1,0.3,0.1,0.6,0.1,0.9c0,0.3-0.1,0.7-0.2,1
			c-0.1,0.3-0.3,0.6-0.5,0.9s-0.4,0.5-0.7,0.6C358,439.2,357.7,439.3,357.3,439.3z"/>
		<path class="st2" d="M371.4,435c-0.4,1.8-0.7,3.6-1,5.5c-0.3,1.9-0.5,3.8-0.7,5.6c0.4,0,0.9,0,1.3,0s0.8,0,1.2,0c0.4,0,0.7,0,1,0
			c0.3,0,0.5,0,0.7,0c0.9,0,1.6-0.1,2.1-0.2c0,0.2,0.1,0.3,0.1,0.4c0,0.1,0,0.3,0,0.4c0,0.4-0.2,0.7-0.5,0.8s-0.8,0.2-1.5,0.2
			c-0.6,0-1.3,0-2.1-0.1s-1.6-0.1-2.5-0.2c-0.1,1-0.2,2-0.3,2.9c-0.1,1-0.1,1.9-0.2,2.7c0,0.8-0.1,1.6-0.1,2.4c0,0.7,0,1.4,0,1.9
			c0,1,0.1,1.9,0.2,2.7c0.1,0.8,0.3,1.5,0.5,2c0.3,0.6,0.6,1,1.1,1.3s1,0.4,1.7,0.4c0.5,0,1.1-0.1,1.7-0.3c0.6-0.2,1.3-0.5,2.1-0.9
			c0.3,0.3,0.4,0.6,0.4,0.9c-0.6,0.4-1.2,0.7-1.8,1.1c-0.6,0.3-1.2,0.6-1.7,0.8c-0.6,0.2-1.1,0.4-1.7,0.5c-0.5,0.1-1,0.2-1.5,0.2
			c-0.6,0-1.2-0.1-1.7-0.3s-1-0.6-1.4-1.2c-0.4-0.6-0.7-1.4-0.9-2.4c-0.2-1-0.3-2.3-0.3-3.8c0-0.9,0-1.7,0-2.6
			c0-0.9,0.1-1.8,0.1-2.8c0-0.9,0.1-1.9,0.2-2.8c0.1-0.9,0.2-1.8,0.3-2.7c-0.7,0-1.4,0-2.1,0.1s-1.2,0.1-1.6,0.2c0-0.1,0-0.1,0-0.2
			c0-0.2,0.1-0.4,0.3-0.6c0.2-0.2,0.5-0.3,0.8-0.5s0.8-0.3,1.2-0.4c0.5-0.1,1-0.2,1.6-0.2c0.2-2,0.4-3.8,0.7-5.6
			c0.2-1.7,0.5-3.3,0.7-4.7c0-0.2,0.1-0.4,0.3-0.6c0.1-0.2,0.3-0.3,0.4-0.4c0.2-0.1,0.4-0.2,0.5-0.2c0.2,0,0.4-0.1,0.6-0.1
			c0.3,0,0.6,0,0.8,0.1C370.9,434.8,371.1,434.9,371.4,435z"/>
		<path class="st2" d="M384.4,465.6c-0.2-0.9-0.5-1.8-0.8-2.8c-0.3-1-0.6-2-0.8-2.9c-0.3-1-0.6-2-0.9-2.9s-0.6-1.9-0.8-2.7
			c-0.3-0.9-0.5-1.7-0.8-2.4c-0.2-0.7-0.5-1.4-0.6-1.9c-0.2-0.6-0.4-1-0.6-1.4c-0.2-0.3-0.4-0.6-0.6-0.8s-0.4-0.3-0.6-0.4
			s-0.5-0.1-0.7-0.1c-0.3,0-0.6,0-1,0.1s-0.8,0.2-1.2,0.3l-0.2-1c0.6-0.2,1.1-0.4,1.7-0.6c0.5-0.2,1-0.3,1.5-0.4
			c0.5-0.1,0.9-0.2,1.2-0.3s0.6-0.1,0.8-0.1c0.2,0,0.5,0,0.7,0.1c0.2,0.1,0.4,0.2,0.6,0.4c0.2,0.2,0.4,0.5,0.6,0.9
			c0.2,0.4,0.4,0.8,0.6,1.4c0.1,0.4,0.3,0.8,0.5,1.4c0.2,0.6,0.4,1.2,0.6,1.9c0.2,0.7,0.4,1.5,0.7,2.3c0.2,0.8,0.5,1.7,0.7,2.6
			c0.2,0.9,0.5,1.8,0.7,2.8c0.2,0.9,0.5,1.9,0.7,2.8c0.5-1.2,1-2.5,1.5-3.9c0.5-1.3,1-2.7,1.6-4c0.5-1.4,1.1-2.7,1.6-4
			s1-2.6,1.5-3.8c0.1-0.2,0.2-0.4,0.3-0.5s0.3-0.2,0.5-0.3c0.2-0.1,0.4-0.1,0.6-0.2c0.2,0,0.4,0,0.6,0c0.3,0,0.6,0,0.9,0.1
			c0.3,0.1,0.6,0.2,0.8,0.3c-0.4,0.7-0.9,1.5-1.3,2.3c-0.5,0.8-0.9,1.7-1.4,2.7s-1,1.9-1.4,3s-1,2.1-1.4,3.2c-0.5,1.1-1,2.2-1.4,3.2
			c-0.5,1.1-0.9,2.2-1.3,3.2c-0.4,1.1-0.9,2.1-1.3,3.1c-0.4,1-0.8,2-1.2,3c-0.4,1-0.7,1.9-1.1,2.8c-0.4,0.9-0.7,1.7-1.1,2.5
			c-0.4,0.7-0.7,1.4-1.1,2c-0.4,0.6-0.9,1.2-1.3,1.6c-0.5,0.5-1,0.8-1.6,1.1c-0.6,0.3-1.2,0.4-2,0.4c-0.4,0-0.8-0.1-1.2-0.2
			c-0.4-0.1-0.7-0.3-0.9-0.5c-0.2-0.2-0.4-0.4-0.6-0.7s-0.2-0.5-0.2-0.8c0-0.3,0.1-0.6,0.3-1s0.4-0.6,0.7-0.8
			c0.4,0.2,0.8,0.4,1.2,0.5c0.4,0.1,0.8,0.2,1.1,0.2c0.8,0,1.5-0.2,2.1-0.6s1.2-1,1.7-1.9c0.5-0.8,1.1-1.9,1.6-3.1
			c0.5-1.3,1.1-2.7,1.8-4.4l0.3-0.7L384.4,465.6z"/>
	</g>
</g>
<rect x="476.4" y="0" class="st0" width="3.3" height="479.7"/>
</svg>
