<svg xmlns="http://www.w3.org/2000/svg" viewBox="0 0 500 500"><defs><style>.cls-1{fill:#fff;}.cls-2{fill:#ef5050;}.cls-3{fill:#fbb03b;}</style></defs><title>Roser</title><g id="Layer_1" data-name="Layer 1"><polygon class="cls-1" points="177.49 342.3 177.49 187.15 251.68 140.64 251.35 13.32 66.87 127.14 68.58 382.93 258.58 490.17 258.58 448.48 104.89 360.41 104.89 146.7 215.38 78.51 215.27 120.98 140.69 166.99 141.68 322.3 177.49 342.3"/><polygon class="cls-1" points="340.65 342.3 340.65 187.15 266.46 140.64 266.46 14.72 451.26 127.14 449.55 382.93 258.58 490.17 258.58 448.48 413.25 360.41 413.25 146.7 302.76 78.51 302.87 120.98 377.44 166.99 376.45 322.3 340.65 342.3"/><path class="cls-2" d="M272.26,303.34c-4.61.38-13.81,7.82-18.22,11.61-4.42-3.79-13.62-11.23-18.22-11.61-1.74-.14-1.81,2.22-1.81,4.93v17c0,2.71.07,5,1.81,4.93,4.53-.32,13.78-7.37,18.22-11,4.43,3.59,13.68,10.64,18.22,11,1.73.12,1.8-2.22,1.8-4.93v-17C274.06,305.56,274,303.2,272.26,303.34Z"/><path class="cls-3" d="M294.65,231.85h-4.79L298.42,217c.12,0,.24,0,.37,0a4.48,4.48,0,1,0-3.25-1.42l-9.35,16.2H228.46l-9.52-16.5a4.45,4.45,0,1,0-3.5,1.72,4.9,4.9,0,0,0,.77-.08l8.58,14.86H214.41a11.86,11.86,0,0,0-11.82,11.82v37.8a11.86,11.86,0,0,0,11.82,11.82h80.24a11.86,11.86,0,0,0,11.82-11.82v-37.8A11.86,11.86,0,0,0,294.65,231.85Zm-60.41,40.4A8.75,8.75,0,1,1,243,263.5,8.75,8.75,0,0,1,234.24,272.25Zm39.47,0a8.75,8.75,0,1,1,8.75-8.75A8.75,8.75,0,0,1,273.71,272.25Z"/></g></svg>