<?xml version="1.0" encoding="utf-8"?>
<!-- Generator: Adobe Illustrator 22.0.0, SVG Export Plug-In . SVG Version: 6.00 Build 0)  -->
<svg version="1.1" id="Livello_1" xmlns="http://www.w3.org/2000/svg" xmlns:xlink="http://www.w3.org/1999/xlink" x="0px" y="0px"
	 viewBox="0 0 245 378.5" style="enable-background:new 0 0 245 378.5;" xml:space="preserve">
<style type="text/css">
	.st0{fill:#FFFFFF;}
	.st1{fill:#F7931E;}
	.st2{fill:none;stroke:#F7931E;stroke-width:3;stroke-linecap:round;}
</style>
<title>Weser_UiUx</title>
<g id="Layer_1">
	<polygon class="st0" points="89.8,155.6 89.8,89.6 121.3,69.8 121.2,15.7 42.7,64.1 43.4,172.9 124.3,218.5 124.3,200.8 
		58.9,163.3 58.9,72.4 105.9,43.4 105.8,61.4 74.1,81 74.5,147.1 	"/>
	<polygon class="st0" points="159.2,155.6 159.2,89.6 127.6,69.8 127.6,16.2 206.2,64.1 205.5,172.9 124.3,218.5 124.3,200.8 
		190.1,163.3 190.1,72.4 143.1,43.4 143.1,61.4 174.8,81 174.4,147.1 	"/>
	<circle class="st1" cx="124.5" cy="119.1" r="7.5"/>
	<path id="progress" class="st2" d="M108.8,141.2c3.3-8.7,13.1-13.1,21.8-9.8c4.4,1.7,8,5.2,9.7,9.6"/>
	<path id="progress-2" class="st2" d="M113.1,144.2c2.4-6.3,9.5-9.5,15.8-7.1c3.2,1.2,5.8,3.8,7,7"/>
	<path id="progress-3" class="st2" d="M119.3,146.1c1.1-2.8,4.2-4.3,7.1-3.2c1.5,0.5,2.6,1.7,3.2,3.1"/>
	<path class="st2" d="M115.2,127.5c-1.8-2.2-3.3-5.4-3.3-8.4c0.1-7,5.9-12.5,12.8-12.3c6.8,0.1,12.2,5.6,12.3,12.3
		c0,3.6-1,6.3-3.4,8.6"/>
	<path class="st2" d="M109,132.4c-3.2-3.6-5-8.4-4.9-13.3c0.2-11.2,9.4-20.2,20.6-20c11,0.2,19.8,9,20,20c0,5.4-1.3,9.4-4.7,13.1"/>
	<path class="st2" d="M104.6,138.2c-10.6-11-10.2-28.4,0.7-39s28.4-10.2,39,0.7c10.4,10.8,10.3,27.9-0.3,38.6"/>
</g>
<g>
	<title>Weser_UiUx</title>
	<g id="Layer_1_2_">
		<path class="st0" d="M37.1,314.9l-0.2-0.1l-0.3,0.1L19.1,325v-85.5h12.5v64.7l5.2-3l0.1-0.1v0.1l5.2,3v-64.7h12.5V325L37.1,314.9z
			"/>
		<path class="st0" d="M97.7,239.4v26.5H85.2V252H74.7v17.4l12.8,7.4v13.6L74.7,283v29.5h10.5v-17l12.5,7.1V325H62.1v-47.3h3.3
			l-3.3-1.9L59,274v-13.6l3.2,1.8v-22.7H97.7z"/>
		<path class="st0" d="M139.8,239.4v26.7h-12.5V252h-10.5v17.3l23,13.3V325h-35.5v-33.5h12.5v21h10.5v-21.3h3.9l-0.2-0.1l-3.6-2.1
			l-23-13.3v-36.3H139.8z"/>
		<path class="st0" d="M182.9,239.4v26.5h-12.5V252h-10.5v17.4l12.8,7.4v13.6l-12.8-7.4v29.5h10.5v-17l12.5,7.1V325h-35.5v-47.3h3.3
			l-3.3-1.9l-3.2-1.9v-13.6l3.2,1.8v-22.7H182.9L182.9,239.4z"/>
		<path class="st0" d="M212.5,239.4H225v35.6l-6.1,3.4l6.1,3.5v43h-12.5v-33.7h3.9l-0.2-0.1l-3.6-2.1L202,283v42h-12.5v-85.5H212.5
			L212.5,239.4z M212.5,275.3V252H202v17.3L212.5,275.3z"/>
		<path class="st1" d="M34,359.5h-0.1c-0.1-1-0.3-1.9-0.4-2.7s-0.3-1.6-0.4-2.3c-0.1-0.7-0.3-1.5-0.4-2.1c-0.1-0.6-0.3-1.3-0.4-2
			c-0.2-0.9-0.4-1.7-0.5-2.4c-0.1-0.7-0.3-1.5-0.5-2.1h0c-0.2,0.8-0.4,1.5-0.6,2.2c-0.2,0.7-0.4,1.4-0.7,2.1s-0.4,1.4-0.7,2.1
			c-0.3,0.7-0.5,1.4-0.8,2.2c-0.3,0.8-0.6,1.5-0.9,2.3s-0.6,1.7-1,2.6l-1.4,0.1h-0.1c-0.8-4.2-1.6-7.6-2.2-10.2
			c-0.6-2.6-1.1-4.4-1.4-5.5c-0.1-0.2-0.2-0.5-0.3-0.7c-0.1-0.2-0.2-0.3-0.4-0.5c-0.1-0.1-0.3-0.2-0.5-0.3c-0.2,0-0.4-0.1-0.7-0.1
			c-0.2,0-0.4,0-0.6,0c-0.2,0-0.4,0-0.7,0.1l-0.1-0.7c0.8-0.2,1.5-0.3,2-0.4c0.4-0.1,0.9-0.1,1.3-0.1c0.2,0,0.5,0,0.7,0.1
			c0.2,0.1,0.3,0.2,0.4,0.4c0.1,0.2,0.2,0.4,0.3,0.6c0.1,0.2,0.2,0.6,0.3,1c0.1,0.5,0.3,1.2,0.5,2.1c0.2,0.8,0.4,1.8,0.7,3
			c0.2,1.2,0.5,2.4,0.8,3.9c0.3,1.4,0.6,3,0.9,4.8h0c0.2-0.7,0.5-1.5,0.8-2.2c0.3-0.8,0.6-1.6,0.9-2.4s0.6-1.7,0.9-2.6
			s0.6-1.8,0.8-2.6c0.2-0.9,0.5-1.8,0.8-2.6c0.3-0.8,0.5-1.7,0.7-2.5c0-0.1,0.1-0.1,0.2-0.2c0.2-0.1,0.4-0.1,0.6,0
			c0.1,0.5,0.3,1.2,0.5,1.9c0.2,0.7,0.3,1.5,0.5,2.3c0.2,0.8,0.4,1.7,0.6,2.7c0.2,1,0.4,1.9,0.6,2.8c0.2,1,0.4,1.9,0.6,2.8
			c0.2,0.9,0.3,1.9,0.5,2.7h0c0.4-0.8,0.7-1.6,1.1-2.4c0.4-0.8,0.7-1.7,1.1-2.5s0.7-1.7,1-2.5c0.3-0.8,0.5-1.6,0.8-2.3
			s0.4-1.4,0.5-2c0.1-0.5,0.2-1.1,0.2-1.6c0-0.2,0-0.5,0-0.8c0-0.2-0.1-0.5-0.2-0.7c-0.1-0.2-0.2-0.4-0.3-0.6s-0.3-0.3-0.5-0.4
			l0-0.1l0.3,0c0.1,0,0.2,0,0.3,0c0.3,0,0.6,0,0.8,0.1s0.5,0.2,0.7,0.3c0.2,0.1,0.4,0.4,0.5,0.6c0.1,0.3,0.2,0.6,0.2,0.9
			s0,0.7-0.1,1.1c-0.1,0.4-0.2,0.9-0.4,1.5s-0.4,1.2-0.6,1.9s-0.5,1.4-0.8,2.2c-0.3,0.8-0.6,1.6-1,2.4c-0.3,0.8-0.7,1.7-1.1,2.5
			c-0.3,0.9-0.8,1.7-1.2,2.6c-0.4,0.9-0.8,1.7-1.2,2.6L34,359.5z"/>
		<path class="st1" d="M49.3,356.8l0.1,0c0,0,0.1,0,0.1,0.1c0,0,0.1,0,0.1,0.1c0,0,0,0.1,0,0.1v0c-0.3,0.4-0.6,0.7-0.9,1.1
			c-0.3,0.3-0.7,0.5-1.1,0.8c-0.3,0.2-0.7,0.3-1.1,0.4c-0.3,0.1-0.7,0.1-1.1,0.1c-0.6,0-1.2-0.1-1.7-0.4c-0.5-0.2-1-0.6-1.4-1.1
			c-0.4-0.5-0.7-1-0.9-1.6c-0.2-0.6-0.3-1.3-0.3-2c0-0.6,0-1.1,0.2-1.7c0.2-1.1,0.7-2.2,1.4-3c0.3-0.4,0.7-0.8,1.1-1.1
			c0.4-0.3,0.9-0.6,1.4-0.8c0.5-0.2,1.1-0.3,1.7-0.3c0.4,0,0.7,0,1.1,0.1c0.3,0.1,0.6,0.2,0.9,0.4c0.2,0.2,0.5,0.4,0.6,0.7
			s0.2,0.6,0.2,1c0,0.5-0.2,1-0.5,1.4c-0.4,0.4-0.9,0.8-1.5,1c-0.7,0.3-1.4,0.5-2.2,0.7c-0.9,0.2-1.8,0.3-2.7,0.4v0.1
			c0,0.6,0.1,1.2,0.2,1.9c0.1,0.5,0.4,1,0.7,1.4c0.3,0.4,0.6,0.7,1.1,1c0.4,0.2,0.8,0.3,1.3,0.3s1-0.1,1.5-0.3
			C48.4,357.6,48.9,357.2,49.3,356.8z M47.9,350.5c0-0.2,0-0.4-0.1-0.7c0-0.2-0.2-0.4-0.3-0.5c-0.1-0.1-0.3-0.3-0.5-0.4
			c-0.2-0.1-0.4-0.1-0.6-0.1c-0.3,0-0.6,0-0.9,0.2c-0.3,0.1-0.5,0.3-0.7,0.5c-0.2,0.2-0.4,0.4-0.6,0.7c-0.1,0.3-0.3,0.6-0.4,0.9
			s-0.2,0.6-0.3,1c0,0.3-0.1,0.6-0.1,1c0.7,0,1.3-0.1,2-0.3c0.5-0.1,1-0.2,1.5-0.5c0.3-0.1,0.7-0.4,0.9-0.7
			C47.8,351.2,47.9,350.8,47.9,350.5L47.9,350.5z"/>
		<path class="st1" d="M57.9,351.1c0-0.4,0-0.7-0.2-1.1c-0.2-0.5-0.7-1-1.3-1.2c-0.3-0.1-0.5-0.1-0.8-0.1c-0.3,0-0.6,0-0.9,0.1
			c-0.2,0-0.4,0.2-0.6,0.3c-0.1,0.1-0.3,0.3-0.3,0.5c-0.1,0.2-0.1,0.4-0.1,0.6c0,0.2,0,0.5,0.1,0.8c0.1,0.2,0.2,0.5,0.4,0.7l0,0.1
			c-0.3,0.1-0.6,0.2-0.9,0.2c-0.1,0-0.3,0-0.5-0.1c-0.1,0-0.3-0.1-0.4-0.2c-0.1-0.1-0.2-0.2-0.3-0.4c0-0.1-0.1-0.3-0.1-0.5
			c0-0.3,0.1-0.6,0.2-0.9s0.3-0.5,0.6-0.7c0.2-0.2,0.5-0.4,0.9-0.6c0.3-0.2,0.7-0.3,1-0.4c0.3-0.1,0.7-0.2,1-0.3
			c0.3,0,0.6-0.1,1-0.1c0.5,0,1,0,1.4,0.2c0.4,0.1,0.7,0.3,1,0.6s0.4,0.6,0.5,1c0.1,0.4,0.2,0.9,0.1,1.4c0,0.3,0,0.7,0,1.1
			c0,0.4,0,0.8-0.1,1.3c0,0.5,0,0.9-0.1,1.4c0,0.5,0,1,0,1.5c0,0.6,0.1,1.2,0.4,1.7c0.2,0.3,0.7,0.6,1.1,0.6c0.5,0,0.9-0.2,1.4-0.4
			l0.2,0.3c-0.3,0.3-0.7,0.6-1.1,0.8c-0.4,0.2-0.8,0.3-1.3,0.3c-0.3,0-0.6,0-0.9-0.2c-0.3-0.1-0.5-0.3-0.7-0.5
			c-0.2-0.2-0.4-0.5-0.5-0.9c-0.1-0.4-0.2-0.8-0.1-1.2c0-0.1,0-0.3,0-0.4c0-0.1,0-0.3,0-0.4h0c-0.2,0.4-0.5,0.9-0.8,1.3
			c-0.3,0.4-0.6,0.8-1,1.2c-0.3,0.3-0.7,0.6-1.1,0.8c-0.4,0.2-0.8,0.3-1.3,0.3c-0.3,0-0.7,0-1-0.2c-0.3-0.1-0.5-0.3-0.8-0.5
			c-0.2-0.2-0.4-0.5-0.5-0.8s-0.2-0.6-0.2-1c0-0.4,0.1-0.9,0.2-1.3c0.1-0.4,0.4-0.7,0.7-1c0.3-0.3,0.7-0.6,1.1-0.8
			c0.4-0.2,0.9-0.4,1.4-0.5c0.5-0.1,1-0.2,1.6-0.3c0.5,0,1.1-0.1,1.7-0.1c0-0.3,0-0.6,0.1-1S57.9,351.5,57.9,351.1z M53,356.5
			c0,0.2,0,0.4,0,0.6c0,0.2,0.1,0.3,0.2,0.5c0.1,0.1,0.2,0.2,0.4,0.3c0.1,0.1,0.3,0.1,0.5,0.1c0.2,0,0.5,0,0.7-0.1
			c0.2-0.1,0.5-0.3,0.7-0.4c0.2-0.2,0.5-0.4,0.7-0.7c0.2-0.3,0.4-0.6,0.6-0.9c0.2-0.3,0.3-0.7,0.4-1c0.1-0.3,0.2-0.7,0.2-1.1
			c-0.4,0-0.8,0-1.2,0c-0.4,0-0.7,0.1-1.1,0.2c-0.3,0.1-0.7,0.2-1,0.3c-0.3,0.1-0.5,0.3-0.8,0.5c-0.2,0.2-0.4,0.4-0.5,0.7
			C53.1,355.9,53,356.2,53,356.5z"/>
		<path class="st1" d="M64,359.4h-0.1c0-0.5,0.1-1,0.1-1.6c0-0.6,0-1.2,0.1-1.8c0-0.6,0-1.2,0.1-1.8c0-0.6,0-1.2,0-1.7s0-1,0-1.4
			c0-0.4,0-0.7,0-1c0-0.1,0-0.3,0-0.5c0-0.1,0-0.2-0.1-0.3c0-0.1-0.1-0.1-0.2-0.2c-0.1,0-0.3,0-0.4,0h-0.3c-0.1,0-0.2,0-0.3,0
			s-0.2,0-0.4,0.1c-0.1,0-0.3,0-0.5,0.1l-0.1-0.5c0.7-0.2,1.4-0.5,2.1-0.7c0.3-0.1,0.7-0.1,1.1-0.2c0.3,0,0.5,0.1,0.7,0.3
			c0.1,0.3,0.2,0.6,0.2,0.9c0,0,0,0.1,0,0.3s0,0.4,0,0.7c0,0.3,0,0.6,0,1s0,0.8-0.1,1.2c0,0.4,0,0.9-0.1,1.4l-0.1,1.4h0.1
			c0.2-1,0.5-1.9,0.8-2.8c0.3-0.8,0.6-1.6,1.1-2.3c0.3-0.6,0.8-1.1,1.3-1.6c0.4-0.3,1-0.6,1.6-0.5c0.2,0,0.4,0,0.5,0.1
			c0.1,0,0.3,0.1,0.4,0.2s0.2,0.2,0.3,0.4c0,0.1,0.1,0.3,0.1,0.5c0,0.5-0.2,1-0.6,1.3h0c-0.2-0.1-0.4-0.3-0.6-0.4
			c-0.2-0.1-0.4-0.1-0.6-0.1c-0.2,0-0.5,0-0.7,0.1c-0.2,0.1-0.4,0.2-0.6,0.4c-0.3,0.3-0.6,0.7-0.8,1.1c-0.3,0.5-0.5,1-0.7,1.5
			c-0.2,0.5-0.4,1.1-0.6,1.7c-0.2,0.6-0.3,1.2-0.4,1.8s-0.2,1.1-0.3,1.6c-0.1,0.5-0.1,0.9-0.1,1.3L64,359.4z"/>
		<path class="st1" d="M78.5,351.1c0-0.4,0-0.7-0.2-1.1c-0.1-0.3-0.3-0.5-0.5-0.7c-0.2-0.2-0.5-0.3-0.7-0.4
			c-0.3-0.1-0.5-0.1-0.8-0.1c-0.3,0-0.6,0-0.9,0.1c-0.2,0-0.4,0.2-0.6,0.3c-0.1,0.1-0.3,0.3-0.3,0.5c-0.1,0.2-0.1,0.4-0.1,0.6
			c0,0.2,0,0.5,0.1,0.8c0.1,0.2,0.2,0.5,0.4,0.7l0,0.1c-0.3,0.1-0.6,0.2-0.9,0.2c-0.1,0-0.3,0-0.5-0.1c-0.1,0-0.3-0.1-0.4-0.2
			c-0.1-0.1-0.2-0.2-0.3-0.4c0-0.1-0.1-0.3-0.1-0.5c0-0.3,0.1-0.6,0.2-0.9s0.3-0.5,0.6-0.7c0.2-0.2,0.5-0.4,0.9-0.6
			c0.3-0.2,0.7-0.3,1-0.4c0.3-0.1,0.7-0.2,1-0.3c0.3,0,0.6-0.1,1-0.1c0.5,0,1,0,1.4,0.2c0.4,0.1,0.7,0.3,1,0.6
			c0.2,0.3,0.4,0.6,0.5,1c0.1,0.4,0.2,0.9,0.2,1.4c0,0.3,0,0.7,0,1.1c0,0.4,0,0.8-0.1,1.3c0,0.5,0,0.9-0.1,1.4c0,0.5,0,1,0,1.5
			c0,0.6,0.1,1.2,0.4,1.7c0.2,0.3,0.7,0.6,1.1,0.6c0.5,0,0.9-0.2,1.4-0.4l0.2,0.3c-0.3,0.3-0.7,0.6-1.2,0.8
			c-0.4,0.2-0.9,0.3-1.3,0.3c-0.3,0-0.6,0-0.9-0.2c-0.3-0.1-0.5-0.3-0.7-0.5c-0.2-0.2-0.4-0.5-0.5-0.9c-0.1-0.4-0.2-0.8-0.2-1.2
			c0-0.1,0-0.3,0-0.4c0-0.1,0-0.3,0-0.4h-0.1c-0.2,0.4-0.5,0.9-0.8,1.3c-0.3,0.4-0.6,0.8-1,1.2c-0.3,0.3-0.7,0.6-1.1,0.8
			c-0.4,0.2-0.8,0.3-1.3,0.3c-0.3,0-0.7,0-1-0.2c-0.3-0.1-0.5-0.3-0.8-0.5c-0.2-0.2-0.4-0.5-0.5-0.8c-0.1-0.3-0.2-0.6-0.2-1
			c0-0.4,0.1-0.9,0.2-1.3c0.2-0.4,0.4-0.7,0.7-1c0.3-0.3,0.7-0.6,1.1-0.8c0.4-0.2,0.9-0.4,1.4-0.5c0.5-0.1,1-0.2,1.6-0.3
			c0.5,0,1.1-0.1,1.7-0.1c0-0.3,0-0.6,0.1-1S78.5,351.5,78.5,351.1z M73.7,356.5c0,0.2,0,0.4,0,0.6c0,0.2,0.1,0.3,0.2,0.5
			c0.1,0.1,0.2,0.2,0.4,0.3c0.1,0.1,0.3,0.1,0.5,0.1c0.2,0,0.5,0,0.7-0.1c0.2-0.1,0.5-0.3,0.7-0.4c0.2-0.2,0.5-0.4,0.7-0.7
			c0.2-0.3,0.4-0.6,0.6-0.9c0.2-0.3,0.3-0.7,0.4-1c0.1-0.3,0.2-0.7,0.2-1.1c-0.4,0-0.8,0-1.2,0c-0.4,0-0.7,0.1-1.1,0.2
			c-0.3,0.1-0.7,0.2-1,0.3c-0.3,0.1-0.5,0.3-0.8,0.5c-0.2,0.2-0.4,0.4-0.5,0.7C73.7,355.9,73.7,356.2,73.7,356.5z"/>
		<path class="st1" d="M87.4,338.1c-0.1,0.8-0.2,1.7-0.3,2.6s-0.2,1.8-0.3,2.7c-0.1,0.9-0.2,1.9-0.2,2.7c0,0.9-0.1,1.9-0.2,2.7
			c-0.1,0.9-0.1,1.8-0.2,2.6c0,0.9-0.1,1.7-0.1,2.5H86c0.4-0.9,0.8-1.8,1.3-2.7c0.4-0.7,0.9-1.4,1.5-2c0.4-0.5,0.9-0.9,1.5-1.2
			c0.4-0.2,0.9-0.4,1.4-0.4c0.3,0,0.7,0,1,0.2c0.3,0.1,0.5,0.3,0.7,0.5c0.2,0.2,0.4,0.5,0.5,0.8c0.1,0.3,0.2,0.6,0.3,0.9
			c0.1,0.3,0.1,0.6,0.2,1c0,0.3,0,0.6,0,0.9c0,0.7,0,1.5-0.2,2.2c-0.1,0.6-0.3,1.3-0.6,1.9c-0.2,0.5-0.6,1-1,1.5
			c-0.3,0.4-0.8,0.8-1.2,1.1c-0.4,0.3-0.9,0.5-1.4,0.7c-0.5,0.1-1,0.2-1.5,0.2c-0.3,0-0.6,0-1-0.1s-0.7-0.2-1-0.3
			c-0.3-0.1-0.6-0.3-0.9-0.6c-0.3-0.2-0.5-0.5-0.7-0.8c-0.1,0.4-0.3,0.8-0.5,1.1c-0.1,0.2-0.3,0.5-0.5,0.7l-0.4-0.1
			c0.3-0.9,0.5-1.9,0.6-2.9c0.1-1.1,0.2-2.4,0.3-3.8c0-0.6,0-1.3,0.1-2.1c0-0.8,0.1-1.6,0.1-2.4c0-0.8,0.1-1.8,0.1-2.6
			c0-0.9,0.1-1.8,0.1-2.6c0-0.9,0.1-1.7,0.1-2.4l0.1-2c0-0.1,0-0.2,0.1-0.3c0.1-0.1,0.2-0.1,0.3-0.2c0.1,0,0.2-0.1,0.4-0.1
			c0.1,0,0.3,0,0.4,0C86.7,337.8,87.1,337.9,87.4,338.1z M92.5,352.8c0-0.4,0-0.7-0.1-1.1c0-0.3-0.1-0.7-0.2-1
			c-0.1-0.3-0.2-0.5-0.4-0.7s-0.4-0.3-0.7-0.3c-0.3,0-0.6,0.1-0.9,0.2c-0.3,0.2-0.6,0.4-0.9,0.6c-0.3,0.3-0.6,0.6-0.8,0.9
			c-0.3,0.3-0.5,0.7-0.7,1.1c-0.2,0.4-0.4,0.8-0.6,1.2c-0.2,0.4-0.3,0.8-0.5,1.1c-0.1,0.3-0.2,0.6-0.3,1c-0.2,0.5-0.1,1.1,0.2,1.6
			c0.1,0.2,0.3,0.5,0.6,0.7c0.2,0.2,0.5,0.3,0.8,0.4c0.3,0.1,0.6,0.1,0.9,0.1c0.5,0,1-0.1,1.5-0.4c0.5-0.3,0.9-0.7,1.2-1.2
			c0.4-0.6,0.6-1.2,0.8-1.9C92.4,354.5,92.5,353.7,92.5,352.8L92.5,352.8z"/>
		<path class="st1" d="M100.2,338.1c-0.1,0.9-0.2,1.8-0.3,2.7c-0.1,0.9-0.2,1.9-0.3,2.8c-0.1,0.9-0.2,1.9-0.2,2.9
			c0,1-0.1,1.9-0.2,2.8c0,0.9-0.1,1.9-0.1,2.7c0,0.9,0,1.8,0,2.6c0,0.5,0,1,0,1.3c0,0.3,0,0.7,0,0.9c0,0.2,0,0.4,0.1,0.6
			c0,0.1,0.1,0.2,0.2,0.3c0,0.1,0.1,0.1,0.2,0.2s0.2,0,0.3,0c0.3,0,0.5,0,0.8-0.1c0.3-0.1,0.6-0.2,0.9-0.3l0.1,0.4
			c-0.2,0.2-0.4,0.3-0.7,0.5c-0.3,0.1-0.6,0.3-0.9,0.4c-0.3,0.1-0.6,0.2-0.9,0.3c-0.2,0-0.5,0.1-0.8,0.1c-0.2,0-0.5,0-0.7-0.2
			c-0.2-0.2-0.3-0.4-0.4-0.7c-0.1-0.4-0.1-0.8-0.1-1.3c0-0.5,0-1.2,0-1.9c0-0.3,0-0.7,0-1.2s0-1.1,0-1.8s0-1.4,0.1-2.2
			c0-0.8,0.1-1.6,0.1-2.5s0.1-1.7,0.1-2.6s0.1-1.7,0.1-2.5c0-0.8,0.1-1.6,0.1-2.3l0.1-1.9c0-0.1,0-0.2,0.1-0.3
			c0-0.1,0.1-0.1,0.2-0.2c0.1,0,0.2-0.1,0.3-0.1c0.1,0,0.3,0,0.4,0C99.5,337.8,99.9,337.9,100.2,338.1z"/>
		<path class="st1" d="M110.6,356.8l0.1,0c0,0,0.1,0,0.1,0.1c0,0,0.1,0,0.1,0.1c0,0,0,0.1,0,0.1v0c-0.3,0.4-0.6,0.7-0.9,1.1
			c-0.3,0.3-0.7,0.5-1.1,0.7c-0.3,0.2-0.7,0.3-1.1,0.4c-0.3,0.1-0.7,0.1-1.1,0.1c-0.6,0-1.2-0.1-1.8-0.4c-0.5-0.2-1-0.6-1.4-1.1
			c-0.4-0.5-0.7-1-0.9-1.6c-0.2-0.6-0.3-1.3-0.3-2c0-0.6,0-1.1,0.2-1.7c0.1-0.5,0.3-1.1,0.5-1.6c0.2-0.5,0.5-1,0.9-1.4
			c0.3-0.4,0.7-0.8,1.1-1.1c0.4-0.3,0.9-0.6,1.4-0.8c0.5-0.2,1.1-0.3,1.7-0.3c0.4,0,0.7,0,1.1,0.1c0.3,0.1,0.6,0.2,0.9,0.4
			c0.2,0.2,0.5,0.4,0.6,0.7s0.2,0.6,0.2,1c0,0.5-0.2,1-0.5,1.4c-0.4,0.4-0.9,0.8-1.5,1c-0.7,0.3-1.4,0.5-2.2,0.7
			c-0.9,0.2-1.8,0.3-2.7,0.4v0.1c0,0.6,0.1,1.2,0.2,1.9c0.1,0.5,0.4,1,0.7,1.4c0.3,0.4,0.6,0.7,1.1,0.9c0.4,0.2,0.8,0.3,1.3,0.3
			s1-0.1,1.5-0.3C109.6,357.6,110.1,357.2,110.6,356.8z M109.1,350.5c0-0.2,0-0.4-0.1-0.7c-0.1-0.2-0.2-0.4-0.3-0.5
			c-0.1-0.1-0.3-0.3-0.5-0.4c-0.2-0.1-0.4-0.1-0.6-0.1c-0.3,0-0.6,0-0.9,0.2c-0.3,0.1-0.5,0.3-0.7,0.5c-0.2,0.2-0.4,0.4-0.6,0.7
			s-0.3,0.6-0.4,0.9c-0.1,0.3-0.2,0.6-0.3,1c0,0.3-0.1,0.6-0.1,1c0.7,0,1.3-0.1,2-0.3c0.5-0.1,1-0.2,1.5-0.5
			c0.3-0.1,0.7-0.4,0.9-0.7C109,351.2,109.1,350.8,109.1,350.5z"/>
		<path class="st1" d="M121.9,348.4h0.8h0.7h0.6h0.4c0.2,0,0.5,0,0.7,0l0.5,0c0,0.1,0.1,0.3,0.1,0.5c0,0.2-0.1,0.4-0.3,0.4
			c-0.2,0.1-0.5,0.1-0.8,0.1c-0.3,0-0.8,0-1.2,0l-1.5-0.1c0,0.6,0,1.3-0.1,2.1c0,0.7,0,1.5-0.1,2.3c-0.1,0.8-0.1,1.6-0.2,2.4
			c-0.1,0.8-0.1,1.6-0.3,2.4c-0.1,0.8-0.2,1.5-0.4,2.2c-0.1,0.7-0.3,1.3-0.5,2c-0.2,0.8-0.6,1.6-1,2.2c-0.3,0.5-0.7,1-1.2,1.5
			c-0.4,0.3-0.9,0.6-1.4,0.8c-0.8,0.2-1.7,0.3-2.5,0.1c-0.3-0.1-0.6-0.2-0.9-0.3c-0.2-0.1-0.4-0.3-0.6-0.5c-0.1-0.2-0.2-0.4-0.2-0.6
			c0-0.1,0-0.2,0.1-0.4c0-0.1,0.1-0.2,0.2-0.3c0.1-0.1,0.2-0.2,0.3-0.2c0.1,0,0.3-0.1,0.4-0.1c0.1,0.2,0.3,0.5,0.5,0.7
			c0.2,0.2,0.4,0.3,0.6,0.5c0.2,0.1,0.4,0.2,0.6,0.2c0.2,0,0.4,0.1,0.7,0.1c0.6,0,1.1-0.2,1.5-0.6c0.5-0.5,0.8-1,1.1-1.7
			c0.3-0.8,0.5-1.7,0.7-2.6c0.1-1,0.3-2.2,0.4-3.4c0.1-1.2,0.1-2.6,0.2-4c0-1.4,0-2.9,0-4.5c-0.5,0-0.9,0-1.4,0
			c-0.3,0-0.7,0.1-1.1,0.2c0,0,0-0.1,0-0.1c0-0.1,0.1-0.2,0.2-0.3c0.1-0.1,0.3-0.2,0.5-0.3c0.2-0.1,0.5-0.1,0.8-0.2
			c0.3,0,0.7-0.1,1-0.1c0-0.5,0-1,0.1-1.4c0-0.4,0-0.9,0.1-1.3c0.1-0.4,0.1-0.9,0.2-1.3c0.1-0.4,0.1-0.9,0.3-1.4
			c0.1-0.6,0.3-1.1,0.5-1.7c0.2-0.4,0.5-0.9,0.8-1.3c0.2-0.3,0.6-0.7,0.9-1c0.3-0.2,0.7-0.5,1-0.7c0.7-0.3,1.4-0.5,2.2-0.5
			c0.4,0,0.9,0,1.4,0.2c0.3,0.1,0.7,0.3,1,0.5c0.2,0.2,0.5,0.4,0.6,0.7c0.1,0.2,0.2,0.5,0.2,0.8c0,0.2,0,0.4-0.1,0.6
			c0,0.1-0.1,0.3-0.3,0.4c-0.1,0.1-0.3,0.2-0.4,0.3c-0.1,0-0.3,0.1-0.5,0.1c-0.2,0-0.5,0-0.8-0.2l0-0.1c0.1-0.2,0.1-0.4,0.2-0.6
			c0-0.2,0.1-0.3,0-0.5c0-0.2,0-0.4-0.1-0.6c-0.1-0.2-0.2-0.3-0.4-0.4c-0.1-0.1-0.3-0.2-0.5-0.2c-0.2,0-0.4-0.1-0.6-0.1
			c-0.5,0-1,0.1-1.5,0.4c-0.4,0.3-0.8,0.6-1,1.1c-0.3,0.5-0.5,1.1-0.6,1.6c-0.1,0.7-0.3,1.3-0.3,2c-0.1,0.7-0.1,1.5-0.2,2.2
			C121.9,346.9,122,347.6,121.9,348.4z"/>
		<path class="st1" d="M125.4,354.7c0-0.5,0-1.1,0.1-1.6c0.1-0.5,0.3-1.1,0.5-1.6c0.2-0.5,0.5-1,0.8-1.5c0.3-0.4,0.7-0.8,1.1-1.2
			c0.4-0.3,0.9-0.6,1.4-0.8c0.5-0.2,1.1-0.3,1.7-0.3c0.6,0,1.2,0.1,1.8,0.4c0.5,0.3,1,0.7,1.3,1.1c0.3,0.5,0.6,1,0.8,1.6
			c0.2,0.6,0.3,1.2,0.3,1.8c0,0.5,0,1.1-0.1,1.6c-0.1,0.5-0.3,1.1-0.5,1.6c-0.2,0.5-0.5,1-0.8,1.5c-0.3,0.4-0.7,0.8-1.1,1.2
			c-0.4,0.3-0.9,0.6-1.4,0.8c-0.5,0.2-1.1,0.3-1.7,0.3c-0.6,0-1.2-0.1-1.8-0.4c-0.5-0.3-0.9-0.7-1.3-1.1c-0.3-0.5-0.6-1-0.8-1.6
			C125.5,355.9,125.4,355.3,125.4,354.7z M127.3,353.9c0,0.3,0,0.7,0.1,1.1c0,0.3,0.1,0.7,0.2,1.1c0.1,0.3,0.2,0.7,0.4,1
			c0.1,0.3,0.3,0.5,0.6,0.8c0.2,0.2,0.5,0.4,0.8,0.5c0.3,0.1,0.6,0.2,1,0.2c0.3,0,0.7-0.1,1-0.2c0.3-0.1,0.5-0.4,0.7-0.6
			c0.2-0.3,0.4-0.6,0.5-0.9c0.1-0.3,0.2-0.7,0.3-1.1c0.1-0.4,0.1-0.7,0.2-1.1c0-0.4,0-0.7,0-1s0-0.7-0.1-1.1c0-0.3-0.1-0.7-0.2-1.1
			s-0.2-0.6-0.4-1c-0.1-0.3-0.4-0.5-0.6-0.8c-0.2-0.2-0.5-0.4-0.8-0.5c-0.3-0.1-0.6-0.2-1-0.2c-0.3,0-0.7,0.1-1,0.2
			c-0.3,0.1-0.5,0.4-0.8,0.6c-0.2,0.3-0.4,0.6-0.5,0.9c-0.1,0.3-0.2,0.7-0.3,1.1c-0.1,0.4-0.1,0.7-0.2,1.1
			C127.3,353.3,127.3,353.6,127.3,353.9z"/>
		<path class="st1" d="M138.2,359.4H138c0-0.5,0.1-1,0.1-1.6s0-1.2,0.1-1.8c0-0.6,0-1.2,0.1-1.8c0-0.6,0-1.2,0-1.7s0-1,0-1.4
			c0-0.4,0-0.7,0-1c0-0.1,0-0.3,0-0.5c0-0.1,0-0.2-0.1-0.3c0-0.1-0.1-0.1-0.2-0.2c-0.1,0-0.3,0-0.4,0h-0.3c-0.1,0-0.2,0-0.3,0
			l-0.4,0.1l-0.5,0.1l-0.1-0.5c0.7-0.2,1.4-0.5,2.1-0.7c0.3-0.1,0.7-0.1,1.1-0.2c0.3,0,0.6,0.1,0.7,0.3c0.1,0.3,0.2,0.6,0.2,0.9
			c0,0,0,0.1,0,0.3s0,0.4,0,0.7c0,0.3,0,0.6,0,1s0,0.8-0.1,1.2c0,0.4-0.1,0.9-0.1,1.4s-0.1,0.9-0.1,1.4h0.1c0.2-1,0.5-2,0.8-2.9
			c0.3-0.8,0.6-1.6,1.1-2.3c0.3-0.6,0.8-1.1,1.3-1.6c0.4-0.3,1-0.5,1.6-0.5c0.2,0,0.4,0,0.5,0.1c0.1,0,0.3,0.1,0.4,0.2
			c0.1,0.1,0.2,0.2,0.3,0.4c0,0.1,0.1,0.3,0.1,0.5c0,0.5-0.2,1-0.6,1.3h0c-0.2-0.1-0.4-0.3-0.6-0.4c-0.2-0.1-0.4-0.1-0.6-0.1
			s-0.5,0-0.7,0.1c-0.2,0.1-0.4,0.2-0.6,0.4c-0.3,0.3-0.6,0.7-0.8,1.1c-0.3,0.5-0.5,1-0.7,1.5c-0.2,0.5-0.4,1.1-0.6,1.7
			s-0.3,1.2-0.4,1.8c-0.1,0.6-0.2,1.1-0.3,1.6s-0.1,0.9-0.1,1.3L138.2,359.4z"/>
		<path class="st1" d="M152.7,354.6c0,0.1,0,0.2,0,0.3s0,0.2,0,0.3c0,0.5,0,1,0.2,1.5c0.1,0.4,0.4,0.7,0.7,1
			c0.3,0.3,0.7,0.5,1.1,0.6c0.4,0.1,0.9,0.2,1.4,0.2c0.5,0,1,0,1.5-0.2c0.4-0.1,0.9-0.3,1.2-0.6s0.6-0.6,0.8-1.1s0.3-1,0.3-1.5
			c0-0.3,0-0.7-0.1-1c-0.1-0.3-0.2-0.6-0.4-0.8c-0.2-0.2-0.4-0.5-0.6-0.7c-0.2-0.2-0.5-0.4-0.8-0.6s-0.6-0.4-0.9-0.5l-0.9-0.5
			c-0.3-0.2-0.7-0.3-1-0.5c-0.3-0.2-0.6-0.4-0.9-0.6c-0.3-0.2-0.6-0.4-0.8-0.7s-0.5-0.5-0.7-0.8c-0.2-0.3-0.3-0.6-0.4-1
			c-0.1-0.4-0.1-0.8-0.1-1.2c0-0.5,0-1,0.2-1.6c0.1-0.5,0.3-0.9,0.6-1.3c0.2-0.4,0.5-0.8,0.9-1.1c0.3-0.3,0.7-0.6,1.2-0.8
			s0.9-0.4,1.4-0.5c0.5-0.1,1-0.1,1.5-0.1c0.2,0,0.5,0,0.7,0c0.2,0,0.5,0.1,0.8,0.1s0.5,0.1,0.7,0.2c0.2,0,0.4,0.1,0.6,0.3
			c0.1,0.1,0.3,0.2,0.4,0.3c0.1,0.1,0.1,0.2,0.1,0.4c0,0.1,0,0.3,0,0.6s0,0.5,0,0.8c0,0.3,0,0.6,0,1s0,0.7,0,1.1l-0.8,0
			c0-0.2,0-0.4,0-0.5c0-0.5,0-0.9-0.2-1.4c-0.3-0.8-0.9-1.4-1.7-1.6c-0.4-0.1-0.9-0.2-1.3-0.2c-0.4,0-0.9,0.1-1.4,0.2
			c-0.4,0.1-0.8,0.4-1.1,0.7s-0.5,0.6-0.7,1c-0.2,0.4-0.2,0.8-0.2,1.3c0,0.3,0,0.7,0.1,1c0.1,0.3,0.2,0.6,0.4,0.9
			c0.2,0.2,0.4,0.5,0.6,0.7c0.2,0.2,0.5,0.4,0.8,0.6s0.6,0.4,0.9,0.5l1,0.5c0.3,0.2,0.7,0.3,1,0.5c0.3,0.2,0.6,0.4,0.9,0.6
			c0.3,0.2,0.6,0.4,0.8,0.7s0.5,0.5,0.7,0.8c0.4,0.6,0.6,1.4,0.6,2.2c0,0.6-0.1,1.3-0.3,1.9c-0.2,0.5-0.4,1-0.8,1.5
			c-0.3,0.4-0.7,0.7-1.1,1c-0.4,0.3-0.9,0.5-1.3,0.7c-0.4,0.1-0.9,0.3-1.4,0.4c-0.4,0-0.8,0.1-1.3,0.1c-0.5,0-1,0-1.5-0.1
			c-0.4,0-0.8-0.1-1.2-0.3c-0.3-0.1-0.6-0.2-0.8-0.4c-0.2-0.1-0.3-0.3-0.3-0.5c0-0.3,0-0.9,0-1.5s0-1.4,0.1-2.3L152.7,354.6z"/>
		<path class="st1" d="M171.5,356.8l0.1,0c0,0,0.1,0,0.1,0.1c0,0,0.1,0,0.1,0.1c0,0,0,0.1,0,0.1v0c-0.3,0.4-0.6,0.7-0.9,1.1
			c-0.3,0.3-0.7,0.5-1.1,0.7c-0.3,0.2-0.7,0.3-1.1,0.4c-0.3,0.1-0.7,0.1-1.1,0.1c-0.6,0-1.2-0.1-1.7-0.4c-0.5-0.2-1-0.6-1.4-1.1
			c-0.4-0.5-0.7-1-0.9-1.6c-0.2-0.6-0.3-1.3-0.3-2c0-0.6,0-1.1,0.2-1.7c0.1-0.5,0.3-1.1,0.5-1.6c0.2-0.5,0.5-1,0.8-1.4
			c0.3-0.4,0.7-0.8,1.2-1.1c0.4-0.3,0.9-0.6,1.4-0.8c0.5-0.2,1.1-0.3,1.7-0.3c0.4,0,0.7,0,1.1,0.1c0.3,0.1,0.6,0.2,0.9,0.4
			c0.2,0.2,0.5,0.4,0.6,0.7c0.1,0.3,0.2,0.6,0.2,1c0,0.5-0.2,1-0.5,1.4c-0.4,0.4-0.9,0.8-1.5,1c-0.7,0.3-1.4,0.5-2.2,0.7
			c-0.9,0.2-1.8,0.3-2.7,0.4v0.1c0,0.6,0.1,1.2,0.2,1.9c0.1,0.5,0.4,1,0.7,1.4c0.3,0.4,0.6,0.7,1.1,0.9c0.4,0.2,0.8,0.3,1.3,0.3
			c0.5,0,1-0.1,1.5-0.3S171.1,357.2,171.5,356.8z M170,350.5c0-0.2,0-0.4-0.1-0.7c0-0.2-0.2-0.4-0.3-0.5c-0.1-0.1-0.3-0.3-0.5-0.4
			c-0.2-0.1-0.4-0.1-0.6-0.1c-0.3,0-0.6,0-0.9,0.2c-0.3,0.1-0.5,0.3-0.7,0.5c-0.2,0.2-0.4,0.4-0.6,0.7s-0.3,0.6-0.4,0.9
			s-0.2,0.6-0.3,1c0,0.3-0.1,0.6-0.1,1c0.7,0,1.3-0.1,2-0.3c0.5-0.1,1-0.2,1.5-0.5c0.3-0.1,0.7-0.4,0.9-0.7
			C169.9,351.2,170,350.8,170,350.5L170,350.5z"/>
		<path class="st1" d="M174.6,359.4h-0.1c0-0.5,0.1-1,0.1-1.6c0-0.6,0-1.2,0.1-1.8c0-0.6,0-1.2,0.1-1.8s0-1.2,0-1.7s0-1,0-1.4
			c0-0.4,0-0.7,0-1c0-0.1,0-0.3,0-0.5c0-0.1,0-0.2-0.1-0.3c0-0.1-0.1-0.1-0.2-0.2c-0.1,0-0.3,0-0.4,0h-0.3c-0.1,0-0.2,0-0.3,0
			c-0.1,0-0.2,0-0.4,0.1l-0.5,0.1l-0.1-0.5c0.7-0.2,1.4-0.5,2.1-0.7c0.3-0.1,0.7-0.1,1.1-0.2c0.3,0,0.5,0.1,0.7,0.3
			c0.1,0.2,0.2,0.6,0.2,0.9c0,0,0,0.1,0,0.3s0,0.4,0,0.7c0,0.3,0,0.6,0,1s0,0.8-0.1,1.2c0,0.4,0,0.9-0.1,1.4s-0.1,0.9-0.1,1.4h0.1
			c0.2-1,0.5-2,0.9-2.9c0.3-0.8,0.6-1.6,1.1-2.3c0.3-0.6,0.8-1.1,1.3-1.6c0.4-0.3,1-0.6,1.6-0.5c0.2,0,0.4,0,0.5,0.1
			c0.1,0,0.3,0.1,0.4,0.2c0.1,0.1,0.2,0.2,0.3,0.4c0,0.1,0.1,0.3,0.1,0.5c0,0.2,0,0.5-0.1,0.7c-0.1,0.2-0.3,0.4-0.5,0.6h0
			c-0.2-0.1-0.4-0.3-0.6-0.4c-0.2-0.1-0.4-0.1-0.6-0.1c-0.2,0-0.5,0-0.7,0.1c-0.2,0.1-0.4,0.2-0.6,0.4c-0.3,0.3-0.6,0.7-0.8,1.1
			c-0.3,0.5-0.5,1-0.7,1.5c-0.2,0.5-0.4,1.1-0.6,1.7c-0.2,0.6-0.3,1.2-0.4,1.8s-0.2,1.1-0.3,1.6c0,0.5-0.1,0.9-0.1,1.3L174.6,359.4z
			"/>
		<path class="st1" d="M190.6,356.8l0.1,0c0,0,0.1,0,0.1,0.1c0,0,0.1,0,0.1,0.1c0,0,0,0.1,0,0.1v0c-0.3,0.4-0.6,0.7-0.9,1.1
			c-0.3,0.3-0.7,0.5-1.1,0.7c-0.3,0.2-0.7,0.3-1.1,0.4c-0.3,0.1-0.7,0.1-1.1,0.1c-0.6,0-1.2-0.1-1.7-0.4s-1-0.6-1.4-1.1
			s-0.7-1-0.9-1.6c-0.2-0.6-0.3-1.3-0.3-2c0-0.6,0-1.1,0.2-1.7c0.1-0.5,0.3-1.1,0.5-1.6c0.2-0.5,0.5-1,0.8-1.4
			c0.3-0.4,0.7-0.8,1.2-1.1c0.4-0.3,0.9-0.6,1.4-0.8c0.5-0.2,1.1-0.3,1.7-0.3c0.4,0,0.7,0,1.1,0.1c0.3,0.1,0.6,0.2,0.9,0.4
			c0.2,0.2,0.5,0.4,0.6,0.7c0.1,0.3,0.2,0.6,0.2,1c0,0.5-0.2,1-0.5,1.4c-0.4,0.4-0.9,0.8-1.5,1c-0.7,0.3-1.4,0.5-2.2,0.7
			c-0.9,0.2-1.8,0.3-2.7,0.4v0.1c0,0.6,0.1,1.2,0.2,1.9c0.1,0.5,0.4,1,0.7,1.4c0.3,0.4,0.6,0.7,1.1,0.9c0.4,0.2,0.8,0.3,1.3,0.3
			c0.5,0,1-0.1,1.5-0.3C189.7,357.6,190.2,357.2,190.6,356.8z M189.1,350.5c0-0.2,0-0.4-0.1-0.7c0-0.2-0.2-0.4-0.3-0.5
			c-0.1-0.1-0.3-0.3-0.5-0.4c-0.2-0.1-0.4-0.1-0.6-0.1c-0.3,0-0.6,0-0.9,0.2c-0.3,0.1-0.5,0.3-0.7,0.5c-0.2,0.2-0.4,0.4-0.6,0.7
			c-0.1,0.3-0.3,0.6-0.4,0.9c-0.1,0.3-0.2,0.6-0.3,1c0,0.3-0.1,0.6-0.1,1c0.7,0,1.3-0.1,2-0.3c0.5-0.1,1-0.2,1.5-0.5
			c0.3-0.1,0.7-0.4,0.9-0.7C189,351.2,189.1,350.8,189.1,350.5L189.1,350.5z"/>
		<path class="st1" d="M194,350.2c0-0.2,0-0.3,0-0.5c0-0.1-0.1-0.2-0.1-0.3c0-0.1-0.1-0.1-0.2-0.2c-0.1,0-0.2,0-0.3,0
			c-0.2,0-0.4,0-0.7,0.1c-0.2,0-0.5,0.1-0.9,0.2l-0.1-0.6c0.4-0.1,0.7-0.2,1.1-0.3c0.3-0.1,0.7-0.2,0.9-0.3c0.2-0.1,0.5-0.1,0.8-0.2
			c0.1,0,0.3,0,0.5,0c0.2,0,0.5,0.1,0.7,0.3c0.2,0.2,0.3,0.6,0.2,0.9c0,0,0,0.2,0,0.4c0,0.2,0,0.4,0,0.7s0,0.6,0,1
			c0,0.4,0,0.8-0.1,1.2s0,0.9-0.1,1.3c0,0.4-0.1,0.9-0.1,1.4h0c0.3-1.2,0.8-2.3,1.3-3.4c0.4-0.8,0.8-1.6,1.4-2.2
			c0.4-0.5,0.9-0.9,1.4-1.3c0.4-0.2,0.9-0.4,1.3-0.4c0.3,0,0.6,0,0.8,0.1c0.3,0.1,0.5,0.3,0.7,0.5c0.2,0.3,0.4,0.6,0.5,0.9
			c0.1,0.4,0.2,0.9,0.2,1.4c0,0.1,0,0.4,0,0.6c0,0.2,0,0.5,0,0.9c0,0.3,0,0.7-0.1,1c0,0.3,0,0.7-0.1,1.1s0,0.7,0,1s0,0.6,0,0.8
			c0,0.3,0,0.6,0,1c0,0.2,0.1,0.4,0.1,0.6c0,0.1,0.2,0.2,0.3,0.3c0.1,0,0.3,0.1,0.5,0.1c0.3,0,0.6,0,0.8-0.1
			c0.3-0.1,0.6-0.2,0.9-0.3l0.1,0.4c-0.2,0.2-0.4,0.3-0.7,0.5c-0.3,0.1-0.6,0.3-0.9,0.4c-0.3,0.1-0.6,0.2-0.9,0.3
			c-0.3,0.1-0.5,0.1-0.8,0.1c-0.2,0-0.5,0-0.7-0.2c-0.2-0.2-0.3-0.4-0.4-0.6c-0.1-0.3-0.1-0.6-0.1-0.9c0-0.3,0-0.7,0-1.1
			c0-0.5,0-1,0-1.5c0-0.5,0-1,0.1-1.5c0-0.4,0.1-0.9,0.1-1.3s0-0.7,0-0.9c0-0.5-0.1-1-0.3-1.4c-0.2-0.3-0.6-0.4-0.9-0.4
			c-0.3,0-0.7,0.1-1,0.4c-0.4,0.3-0.7,0.6-1,1.1c-0.4,0.5-0.7,1-1,1.6c-0.3,0.6-0.6,1.3-0.8,2c-0.2,0.7-0.4,1.5-0.6,2.2
			c-0.1,0.8-0.2,1.6-0.3,2.3l-1.7,0.2h-0.1c0-0.5,0.1-1,0.1-1.6c0-0.6,0-1.2,0.1-1.8c0-0.6,0-1.2,0.1-1.8s0-1.2,0-1.7
			c0-0.5,0-1,0-1.4C193.7,350.9,194,350.4,194,350.2z"/>
		<path class="st1" d="M209.5,348.2c-0.1,0.6-0.1,1.2-0.2,1.8c-0.1,0.6-0.1,1.2-0.1,1.8s0,1.1-0.1,1.6s0,1,0,1.4c0,0.5,0,1,0,1.4
			s0,0.7,0.1,1c0,0.2,0,0.4,0.1,0.6c0,0.1,0.1,0.2,0.2,0.4c0.1,0.1,0.2,0.1,0.3,0.2c0.1,0,0.2,0,0.4,0c0.3,0,0.5,0,0.8-0.1
			c0.3-0.1,0.6-0.2,0.9-0.3l0.1,0.4c-0.2,0.2-0.4,0.3-0.7,0.5c-0.3,0.1-0.6,0.3-0.9,0.4c-0.3,0.1-0.6,0.2-0.9,0.3
			c-0.2,0-0.5,0.1-0.8,0.1c-0.1,0-0.2,0-0.4,0c-0.1,0-0.2-0.1-0.3-0.2c-0.1-0.1-0.2-0.2-0.2-0.4c-0.1-0.2-0.1-0.5-0.2-0.7
			c0-0.4-0.1-0.8-0.1-1.2c0-0.5,0-1,0-1.7c0-0.4,0-0.8,0-1.3c0-0.5,0-1,0-1.6s0-1.2,0-1.8c0-0.6,0-1.3,0.1-2c0-0.1,0-0.2,0.1-0.3
			c0-0.1,0.1-0.1,0.2-0.2c0.1,0,0.2-0.1,0.3-0.1c0.1,0,0.2,0,0.3,0C208.8,347.9,209.2,348,209.5,348.2z M208.8,344.6
			c-0.1,0-0.3,0-0.5-0.1c-0.1,0-0.2-0.2-0.3-0.3c-0.1-0.1-0.2-0.3-0.2-0.4c0-0.1-0.1-0.3-0.1-0.5c0-0.2,0-0.4,0.1-0.6
			c0-0.1,0.2-0.3,0.3-0.4c0.1-0.1,0.2-0.2,0.4-0.3c0.1,0,0.3-0.1,0.4-0.1c0.1,0,0.3,0,0.5,0.1c0.1,0,0.2,0.1,0.4,0.3
			c0.1,0.1,0.2,0.2,0.2,0.4c0,0.1,0.1,0.3,0.1,0.5c0,0.2,0,0.4-0.1,0.5c0,0.2-0.1,0.3-0.2,0.5c-0.1,0.1-0.2,0.2-0.4,0.3
			C209.2,344.5,209,344.6,208.8,344.6L208.8,344.6z"/>
		<path class="st1" d="M216.7,342.2c-0.2,1-0.4,2-0.5,3.1c-0.1,1.1-0.3,2.1-0.4,3.1h0.7h0.6h0.5h0.4c0.4,0,0.8,0,1.2-0.1
			c0,0.1,0,0.2,0,0.2s0,0.1,0,0.2c0,0.2-0.1,0.4-0.3,0.4c-0.3,0.1-0.5,0.1-0.8,0.1c-0.4,0-0.8,0-1.2,0c-0.4,0-0.9-0.1-1.4-0.1
			c0,0.5-0.1,1.1-0.1,1.7c0,0.5,0,1-0.1,1.5c0,0.5,0,0.9,0,1.3c0,0.4,0,0.7,0,1.1c0,0.5,0,1,0.1,1.5c0,0.4,0.1,0.8,0.3,1.1
			c0.1,0.3,0.3,0.5,0.6,0.7c0.3,0.2,0.6,0.2,1,0.2s0.6,0,0.9-0.1c0.4-0.1,0.8-0.3,1.2-0.5c0.1,0.1,0.2,0.3,0.2,0.5
			c-0.3,0.2-0.6,0.4-1,0.6c-0.3,0.1-0.6,0.3-1,0.4c-0.3,0.1-0.6,0.2-0.9,0.3c-0.3,0-0.6,0.1-0.8,0.1c-0.3,0-0.7,0-1-0.2
			c-0.3-0.1-0.6-0.4-0.7-0.7c-0.2-0.4-0.4-0.9-0.5-1.3c-0.1-0.7-0.2-1.4-0.2-2.1c0-0.5,0-1,0-1.5s0-1,0-1.5c0-0.5,0-1,0.1-1.6
			s0.1-1,0.1-1.5c-0.4,0-0.8,0-1.2,0c-0.3,0-0.6,0-0.9,0.1c0,0,0-0.1,0-0.1c0-0.1,0-0.2,0.1-0.3c0.1-0.1,0.3-0.2,0.4-0.2
			c0.2-0.1,0.4-0.1,0.7-0.2c0.3,0,0.6-0.1,0.9-0.1c0.1-1.1,0.2-2.2,0.4-3.1c0.1-1,0.3-1.9,0.4-2.6c0-0.1,0-0.2,0.1-0.3
			c0-0.1,0.1-0.1,0.2-0.2c0.1,0,0.2-0.1,0.3-0.1c0.1,0,0.2,0,0.3,0s0.3,0,0.5,0C216.4,342,216.6,342.1,216.7,342.2z"/>
		<path class="st1" d="M222.2,348.2c0.1,0.2,0.2,0.4,0.3,0.7c0.1,0.3,0.2,0.6,0.3,0.9c0.1,0.3,0.2,0.7,0.4,1.1
			c0.1,0.4,0.2,0.7,0.3,1.1l0.3,1.1c0.1,0.4,0.2,0.8,0.4,1.3c0.1,0.4,0.2,0.9,0.4,1.3c0.1,0.4,0.2,0.9,0.3,1.2
			c0.2-0.7,0.5-1.4,0.8-2.2c0.3-0.7,0.5-1.5,0.8-2.2c0.3-0.7,0.6-1.5,0.9-2.2c0.3-0.7,0.6-1.4,0.8-2.1c0-0.1,0.1-0.2,0.2-0.3
			c0.1,0,0.2-0.1,0.3-0.2c0.1,0,0.2-0.1,0.3-0.1c0.3,0,0.5,0,0.8,0c0.1,0,0.3,0.1,0.5,0.2c-0.2,0.4-0.5,0.8-0.7,1.3
			c-0.2,0.5-0.5,1-0.8,1.5c-0.3,0.5-0.5,1.1-0.8,1.7c-0.2,0.6-0.5,1.2-0.8,1.8s-0.5,1.2-0.8,1.8c-0.2,0.6-0.5,1.2-0.7,1.8
			c-0.2,0.6-0.5,1.2-0.7,1.8c-0.2,0.6-0.4,1.1-0.6,1.7c-0.2,0.6-0.4,1.1-0.6,1.6c-0.2,0.5-0.4,1-0.6,1.4c-0.2,0.4-0.4,0.7-0.6,1.1
			c-0.2,0.3-0.4,0.6-0.7,0.9c-0.2,0.2-0.6,0.4-0.9,0.6c-0.3,0.1-0.7,0.2-1.1,0.2c-0.2,0-0.4,0-0.7-0.1c-0.2,0-0.3-0.1-0.5-0.2
			c-0.1-0.1-0.2-0.2-0.3-0.4c0-0.1-0.1-0.3-0.1-0.4c0-0.2,0-0.4,0.1-0.5c0.1-0.2,0.2-0.3,0.4-0.4c0.4,0.2,0.8,0.4,1.3,0.4
			c0.4,0,0.8-0.1,1.1-0.3c0.4-0.3,0.7-0.6,0.9-1c0.3-0.5,0.6-1.1,0.9-1.8c0.3-0.7,0.6-1.5,1-2.4l0.1-0.4l-0.3,0
			c-0.2-1-0.5-2.1-0.8-3c-0.3-1-0.6-2-0.9-2.9c-0.2-0.8-0.5-1.6-0.8-2.3c-0.2-0.7-0.5-1.5-0.8-2.2c0-0.1,0-0.1,0-0.2s0-0.1,0-0.1
			c0-0.1,0-0.3,0.2-0.4c0.2-0.1,0.4-0.2,0.6-0.1c0.1,0,0.3,0,0.5,0C221.8,348.1,222,348.1,222.2,348.2z"/>
	</g>
</g>
</svg>
