<svg id="Layer_1" data-name="Layer 1" xmlns="http://www.w3.org/2000/svg" xmlns:xlink="http://www.w3.org/1999/xlink" viewBox="0 0 223.24 436.17"><defs><style>.cls-1{fill:#f7931e;}.cls-2{fill:none;stroke:#f7931e;stroke-linecap:round;stroke-width:2px;}.cls-3{fill:#fbb03b;}.cls-4{fill:url(#linear-gradient);}.cls-5{fill:url(#linear-gradient-2);}.cls-6{fill:url(#linear-gradient-3);}.cls-7{fill:url(#linear-gradient-4);}.cls-8{fill:url(#linear-gradient-5);}.cls-9{fill:url(#linear-gradient-6);}.cls-10{fill:url(#linear-gradient-7);}.cls-11{fill:url(#linear-gradient-8);}.cls-12{fill:url(#linear-gradient-9);}.cls-13{fill:url(#linear-gradient-10);}.cls-14{fill:url(#linear-gradient-11);}.cls-15{fill:url(#linear-gradient-12);}.cls-16{fill:url(#linear-gradient-13);}.cls-17{fill:url(#linear-gradient-14);}.cls-18{fill:url(#linear-gradient-15);}.cls-19{fill:url(#linear-gradient-16);}.cls-20{fill:url(#linear-gradient-17);}.cls-21{fill:url(#linear-gradient-18);}.cls-22{fill:url(#linear-gradient-19);}.cls-23{fill:url(#linear-gradient-20);}.cls-24{fill:url(#linear-gradient-21);}.cls-25{fill:url(#linear-gradient-22);}.cls-26{fill:url(#linear-gradient-23);}.cls-27{fill:url(#linear-gradient-24);}.cls-28{fill:url(#linear-gradient-25);}</style><linearGradient id="linear-gradient" x1="5.89" y1="418.7" x2="30.15" y2="418.7" gradientUnits="userSpaceOnUse"><stop offset="0" stop-color="#4d4199"/><stop offset="0.06" stop-color="#544ba7"/><stop offset="0.17" stop-color="#5c57b8"/><stop offset="0.3" stop-color="#6260c3"/><stop offset="0.49" stop-color="#6565ca"/><stop offset="1" stop-color="#66c"/></linearGradient><linearGradient id="linear-gradient-2" x1="29.54" y1="422.4" x2="38.43" y2="422.4" xlink:href="#linear-gradient"/><linearGradient id="linear-gradient-3" x1="39.65" y1="422.37" x2="51.3" y2="422.37" xlink:href="#linear-gradient"/><linearGradient id="linear-gradient-4" x1="50.74" y1="422.27" x2="60.98" y2="422.27" xlink:href="#linear-gradient"/><linearGradient id="linear-gradient-5" x1="60.79" y1="422.37" x2="72.44" y2="422.37" xlink:href="#linear-gradient"/><linearGradient id="linear-gradient-6" x1="72.83" y1="417.29" x2="84.05" y2="417.29" xlink:href="#linear-gradient"/><linearGradient id="linear-gradient-7" x1="86.9" y1="417.25" x2="91.58" y2="417.25" xlink:href="#linear-gradient"/><linearGradient id="linear-gradient-8" x1="92.24" y1="422.4" x2="101.13" y2="422.4" xlink:href="#linear-gradient"/><linearGradient id="linear-gradient-9" x1="102.49" y1="421.15" x2="119.66" y2="421.15" xlink:href="#linear-gradient"/><linearGradient id="linear-gradient-10" x1="115.73" y1="422.39" x2="125.72" y2="422.39" xlink:href="#linear-gradient"/><linearGradient id="linear-gradient-11" x1="126.59" y1="422.27" x2="136.84" y2="422.27" xlink:href="#linear-gradient"/><linearGradient id="linear-gradient-12" x1="142.72" y1="418.76" x2="152.96" y2="418.76" xlink:href="#linear-gradient"/><linearGradient id="linear-gradient-13" x1="154.56" y1="422.4" x2="163.45" y2="422.4" xlink:href="#linear-gradient"/><linearGradient id="linear-gradient-14" x1="163.95" y1="422.27" x2="174.19" y2="422.27" xlink:href="#linear-gradient"/><linearGradient id="linear-gradient-15" x1="174.15" y1="422.4" x2="183.04" y2="422.4" xlink:href="#linear-gradient"/><linearGradient id="linear-gradient-16" x1="183.44" y1="422.34" x2="197.86" y2="422.34" xlink:href="#linear-gradient"/><linearGradient id="linear-gradient-17" x1="199.55" y1="419.28" x2="204.31" y2="419.28" xlink:href="#linear-gradient"/><linearGradient id="linear-gradient-18" x1="204.16" y1="419.41" x2="212.23" y2="419.41" xlink:href="#linear-gradient"/><linearGradient id="linear-gradient-19" x1="210.71" y1="426.24" x2="223.24" y2="426.24" xlink:href="#linear-gradient"/><linearGradient id="linear-gradient-20" x1="14055.76" y1="41.23" x2="14055.84" y2="246.66" gradientTransform="matrix(-1, 0, 0, 1, 14210.3, 0)" gradientUnits="userSpaceOnUse"><stop offset="0" stop-color="#4d4199"/><stop offset="1" stop-color="#66c"/></linearGradient><linearGradient id="linear-gradient-21" x1="60.53" y1="273.72" x2="62.12" y2="4.85" gradientTransform="matrix(1, 0, 0, 1, 0, 0)" xlink:href="#linear-gradient-20"/><linearGradient id="linear-gradient-22" x1="57.45" y1="6.87" x2="57.55" y2="268.08" gradientTransform="matrix(1, 0, 0, 1, 0, 0)" xlink:href="#linear-gradient-20"/><linearGradient id="linear-gradient-23" x1="67.32" y1="42.19" x2="67.64" y2="173.32" gradientTransform="matrix(1, 0, 0, 1, 0, 0)" xlink:href="#linear-gradient-20"/><linearGradient id="linear-gradient-24" x1="14252.84" y1="6.34" x2="14253.24" y2="172.5" gradientTransform="matrix(-1, 0, 0, 1, 14390.64, 0)" xlink:href="#linear-gradient-20"/><linearGradient id="linear-gradient-25" x1="14040.63" y1="273.72" x2="14042.22" y2="4.85" xlink:href="#linear-gradient-20"/></defs><title>Weser_Logo</title><circle class="cls-1" cx="111.52" cy="137.46" r="7.96"/><path id="progress" class="cls-2" d="M94.92,160.87a17.83,17.83,0,0,1,33.28-.17"/><path id="progress-2" data-name="progress" class="cls-2" d="M99.49,164a13,13,0,0,1,24.19-.12"/><path id="progress-3" data-name="progress" class="cls-2" d="M106.11,166a5.81,5.81,0,0,1,10.83-.05"/><path class="cls-2" d="M101.69,146.38a14.68,14.68,0,0,1-3.48-8.92,13.32,13.32,0,0,1,26.63,0c0,3.82-1,6.68-3.61,9.11"/><path class="cls-2" d="M95.19,151.48a20.53,20.53,0,0,1-5.17-14,21.5,21.5,0,0,1,43,0c0,5.69-1.34,10-4.94,13.83"/><path class="cls-2" d="M90.52,157.67a29.14,29.14,0,1,1,41.65.35"/><path class="cls-3" d="M25.31,381.12l-.22-.12-.34.12L6.85,391.47V303.91H19.68v66.18l5.29-3,.12-.11v.11l5.29,3V303.91H43.2v87.56Z"/><path class="cls-3" d="M87.32,303.91V331H74.49v-14.3H63.8v17.79l13,7.54V356l-13-7.54v30.16H74.49V361.31l12.83,7.32v22.84H51V343.08h3.38L51,341.17l-3.26-1.92V325.3L51,327.1V303.91H87.32Z"/><path class="cls-3" d="M130.42,303.91v27.35H117.59V316.74H106.9v17.67L130.42,348v43.44H94.07V357.15H106.9v21.49h10.69V356.92h3.94l-.22-.11-3.72-2.14L94.07,341.05V303.91h36.35Z"/><path class="cls-3" d="M174.54,303.91V331H161.71v-14.3H151v17.79l13,7.54V356l-13-7.54v30.16h10.69V361.31l12.83,7.32v22.84H138.19V343.08h3.37l-3.37-1.91-3.27-1.92V325.3l3.27,1.8V303.91h36.35Z"/><path class="cls-3" d="M204.81,303.91h12.83v36.47l-6.19,3.49,6.19,3.6v44H204.81V356.92h3.94l-.23-.11-3.71-2.14-10.69-6.19v43H181.29V303.91h23.52Zm0,36.69V316.74H194.12v17.67Z"/><path class="cls-4" d="M22.17,428.33l-.17,0c-.16-1-.31-1.91-.46-2.76s-.31-1.66-.46-2.42-.31-1.48-.46-2.16-.29-1.34-.43-2c-.2-.89-.37-1.72-.53-2.47s-.32-1.48-.49-2.17h-.06c-.21.77-.43,1.53-.65,2.25s-.45,1.44-.68,2.14-.47,1.42-.72,2.14-.52,1.46-.8,2.23l-.89,2.41c-.31.85-.65,1.75-1,2.7l-1.39.12-.17,0q-1.28-6.44-2.19-10.45t-1.45-5.6a4.86,4.86,0,0,0-.31-.74,1.6,1.6,0,0,0-.38-.49,1.28,1.28,0,0,0-.51-.29,2.43,2.43,0,0,0-.7-.09c-.18,0-.38,0-.59,0l-.7.1-.09-.72c.83-.2,1.52-.36,2.07-.47a7.2,7.2,0,0,1,1.37-.16,2,2,0,0,1,.7.11,1.18,1.18,0,0,1,.48.38,2.46,2.46,0,0,1,.33.67c.1.27.2.61.31,1,.16.56.34,1.26.56,2.12s.46,1.87.72,3,.55,2.48.86,4,.62,3.12,1,4.93h.06c.27-.74.55-1.51.84-2.33l.87-2.52c.3-.86.59-1.74.89-2.64l.87-2.69c.28-.89.56-1.78.82-2.66s.52-1.72.76-2.54a.29.29,0,0,1,.19-.21.88.88,0,0,1,.33-.07,1,1,0,0,1,.32,0q.21.81.48,1.92c.18.73.36,1.54.55,2.4s.4,1.77.61,2.72.41,1.92.61,2.9.39,1.95.58,2.92.36,1.89.53,2.77h0c.38-.81.77-1.64,1.15-2.51s.75-1.74,1.11-2.6.68-1.72,1-2.56.57-1.63.79-2.37.4-1.44.52-2.07a8,8,0,0,0,.19-1.62,4.22,4.22,0,0,0-.07-.79,3.53,3.53,0,0,0-.2-.76,2.9,2.9,0,0,0-.35-.65,1.72,1.72,0,0,0-.51-.46l0-.15.32,0,.32,0a3,3,0,0,1,.86.12,2,2,0,0,1,.73.35,1.65,1.65,0,0,1,.5.63,2.2,2.2,0,0,1,.18.93,5.12,5.12,0,0,1-.14,1.08c-.1.45-.24,1-.42,1.55S29.2,415,29,415.65s-.54,1.45-.85,2.23-.64,1.6-1,2.46-.73,1.71-1.12,2.59-.79,1.76-1.2,2.65-.82,1.77-1.24,2.63Z"/><path class="cls-5" d="M37.87,425.52l.12.07a.71.71,0,0,1,.14.1.63.63,0,0,1,.12.11.19.19,0,0,1,0,.12.07.07,0,0,1,0,.06,6.41,6.41,0,0,1-2.05,1.87,5,5,0,0,1-1.14.46,4.6,4.6,0,0,1-1.15.15,4,4,0,0,1-1.77-.4A4.18,4.18,0,0,1,30.77,427a5.25,5.25,0,0,1-.9-1.61,5.79,5.79,0,0,1-.33-2,7.75,7.75,0,0,1,.19-1.72,8.32,8.32,0,0,1,.55-1.64,7.61,7.61,0,0,1,.87-1.46,6.22,6.22,0,0,1,1.18-1.17,5.42,5.42,0,0,1,1.44-.78,5.16,5.16,0,0,1,1.69-.28,4.17,4.17,0,0,1,1.13.16,3.13,3.13,0,0,1,.95.47,2.3,2.3,0,0,1,.65.74,2.21,2.21,0,0,1-.29,2.44,4.2,4.2,0,0,1-1.48,1,10,10,0,0,1-2.22.69,22.37,22.37,0,0,1-2.76.39v.14a6.26,6.26,0,0,0,.26,1.89,4.53,4.53,0,0,0,.72,1.46,3.46,3.46,0,0,0,1.08.95,2.81,2.81,0,0,0,1.34.34,3.42,3.42,0,0,0,1.48-.36A5.4,5.4,0,0,0,37.87,425.52Zm-1.52-6.47a1.92,1.92,0,0,0-.12-.69,1.77,1.77,0,0,0-.35-.56,1.56,1.56,0,0,0-.53-.38,1.59,1.59,0,0,0-.66-.13,2.44,2.44,0,0,0-.95.18,2.57,2.57,0,0,0-.76.5,3.41,3.41,0,0,0-.6.75,5.66,5.66,0,0,0-.44.89,6.87,6.87,0,0,0-.29,1,8.75,8.75,0,0,0-.17,1,15.82,15.82,0,0,0,2.06-.28,6.52,6.52,0,0,0,1.53-.51,2.71,2.71,0,0,0,1-.74A1.6,1.6,0,0,0,36.35,419.05Z"/><path class="cls-6" d="M46.6,419.74a2.68,2.68,0,0,0-.21-1.11,2.17,2.17,0,0,0-.54-.76,2.3,2.3,0,0,0-.77-.45,2.8,2.8,0,0,0-.85-.14,3.33,3.33,0,0,0-1,.12,1.75,1.75,0,0,0-.64.33,1.23,1.23,0,0,0-.36.49,1.84,1.84,0,0,0-.11.62,2.16,2.16,0,0,0,.15.78,3,3,0,0,0,.41.76l0,.09a2.11,2.11,0,0,1-.93.22,1.44,1.44,0,0,1-.51-.08,1.13,1.13,0,0,1-.41-.25.91.91,0,0,1-.27-.39,1.27,1.27,0,0,1-.11-.52,1.88,1.88,0,0,1,.23-.9,3.14,3.14,0,0,1,.61-.76,4.81,4.81,0,0,1,.88-.63,7.89,7.89,0,0,1,1-.46,7.08,7.08,0,0,1,1.07-.29,5.21,5.21,0,0,1,1-.1,4.1,4.1,0,0,1,1.44.23,2.44,2.44,0,0,1,1,.65,2.77,2.77,0,0,1,.55,1.05,5.26,5.26,0,0,1,.17,1.38c0,.36,0,.75,0,1.17s-.07.87-.11,1.34-.07.94-.1,1.43,0,1,0,1.48a2.9,2.9,0,0,0,.43,1.74,1.36,1.36,0,0,0,1.13.59,2.81,2.81,0,0,0,1.39-.46l.23.35a4,4,0,0,1-1.17.82,3.25,3.25,0,0,1-1.34.28,2.58,2.58,0,0,1-1-.18,2,2,0,0,1-.76-.53,2.16,2.16,0,0,1-.5-.88,3.8,3.8,0,0,1-.18-1.23c0-.14,0-.28,0-.42s0-.29,0-.44h0a11.22,11.22,0,0,1-.8,1.36,6.93,6.93,0,0,1-1,1.2,5.2,5.2,0,0,1-1.16.86,2.8,2.8,0,0,1-1.29.32,2.61,2.61,0,0,1-1-.19,2.5,2.5,0,0,1-.78-.53,2.38,2.38,0,0,1-.51-.8,2.8,2.8,0,0,1-.18-1,3.11,3.11,0,0,1,.26-1.28,3.43,3.43,0,0,1,.73-1,4.16,4.16,0,0,1,1.1-.8,7.39,7.39,0,0,1,1.41-.55,9.85,9.85,0,0,1,1.6-.33,12.22,12.22,0,0,1,1.72-.11c0-.34.07-.67.1-1S46.6,420.12,46.6,419.74Zm-4.94,5.53a2.91,2.91,0,0,0,.06.6,1.68,1.68,0,0,0,.22.51,1.12,1.12,0,0,0,.38.34,1.18,1.18,0,0,0,.55.12,1.77,1.77,0,0,0,.75-.17,3.21,3.21,0,0,0,.76-.46,4.9,4.9,0,0,0,.72-.72,6,6,0,0,0,.62-.9,6.4,6.4,0,0,0,.45-1,5.23,5.23,0,0,0,.24-1.11c-.4,0-.79,0-1.18.07a9,9,0,0,0-1.12.19,5.65,5.65,0,0,0-1,.34,2.87,2.87,0,0,0-.78.52,2.34,2.34,0,0,0-.51.73A2.52,2.52,0,0,0,41.66,425.27Z"/><path class="cls-7" d="M52.89,428.23h-.13c0-.51.08-1.06.12-1.67s.07-1.21.11-1.83.06-1.24.08-1.85,0-1.17.07-1.7,0-1,0-1.43,0-.75,0-1a3.68,3.68,0,0,0,0-.51,1,1,0,0,0-.1-.37.58.58,0,0,0-.25-.21,1.06,1.06,0,0,0-.44-.07l-.28,0a2.3,2.3,0,0,0-.32.05l-.4.08-.51.13-.12-.58a21,21,0,0,1,2.17-.69,5.83,5.83,0,0,1,1.12-.19.88.88,0,0,1,.76.31,1.54,1.54,0,0,1,.23.92s0,.15,0,.33,0,.42,0,.71,0,.64-.07,1-.06.81-.09,1.25-.08.9-.12,1.38-.09,1-.14,1.44h.08a29.28,29.28,0,0,1,.88-2.94,12.91,12.91,0,0,1,1.09-2.38,6,6,0,0,1,1.34-1.58,2.5,2.5,0,0,1,1.6-.58,1.48,1.48,0,0,1,.57.1,1.24,1.24,0,0,1,.46.27,1.2,1.2,0,0,1,.42.93,1.53,1.53,0,0,1-.65,1.29h-.07a2.45,2.45,0,0,0-.64-.41,1.69,1.69,0,0,0-.64-.12,1.89,1.89,0,0,0-.7.13,2.43,2.43,0,0,0-.62.4,4.62,4.62,0,0,0-.85,1.11,10.18,10.18,0,0,0-.72,1.52,17.48,17.48,0,0,0-.59,1.77c-.18.61-.33,1.21-.45,1.79s-.23,1.13-.31,1.65-.13.94-.17,1.29Z"/><path class="cls-8" d="M67.74,419.74a2.68,2.68,0,0,0-.21-1.11,2.17,2.17,0,0,0-.54-.76,2.3,2.3,0,0,0-.77-.45,2.8,2.8,0,0,0-.85-.14,3.33,3.33,0,0,0-1,.12,1.75,1.75,0,0,0-.64.33,1.23,1.23,0,0,0-.36.49,1.83,1.83,0,0,0-.1.62,2.14,2.14,0,0,0,.14.78,3,3,0,0,0,.41.76l0,.09a2.11,2.11,0,0,1-.93.22,1.44,1.44,0,0,1-.51-.08,1.13,1.13,0,0,1-.41-.25.91.91,0,0,1-.27-.39,1.27,1.27,0,0,1-.11-.52,1.88,1.88,0,0,1,.23-.9,3.14,3.14,0,0,1,.61-.76,4.81,4.81,0,0,1,.88-.63,7.89,7.89,0,0,1,1-.46,7.08,7.08,0,0,1,1.07-.29,5.21,5.21,0,0,1,1-.1,4.1,4.1,0,0,1,1.44.23,2.44,2.44,0,0,1,1,.65,2.77,2.77,0,0,1,.55,1.05,5.26,5.26,0,0,1,.17,1.38c0,.36,0,.75,0,1.17s-.07.87-.11,1.34-.07.94-.1,1.43,0,1,0,1.48a2.9,2.9,0,0,0,.43,1.74,1.36,1.36,0,0,0,1.13.59,2.81,2.81,0,0,0,1.39-.46l.23.35a4,4,0,0,1-1.17.82,3.25,3.25,0,0,1-1.34.28,2.58,2.58,0,0,1-1-.18,2,2,0,0,1-.76-.53,2.16,2.16,0,0,1-.5-.88,3.8,3.8,0,0,1-.18-1.23c0-.14,0-.28,0-.42s0-.29,0-.44h0a11.22,11.22,0,0,1-.8,1.36,6.93,6.93,0,0,1-1,1.2,5.2,5.2,0,0,1-1.16.86,2.8,2.8,0,0,1-1.29.32,2.61,2.61,0,0,1-1-.19,2.5,2.5,0,0,1-.78-.53,2.38,2.38,0,0,1-.51-.8,2.8,2.8,0,0,1-.18-1,3.11,3.11,0,0,1,.26-1.28,3.43,3.43,0,0,1,.73-1,4.16,4.16,0,0,1,1.1-.8,7.39,7.39,0,0,1,1.41-.55,9.85,9.85,0,0,1,1.6-.33,12.22,12.22,0,0,1,1.72-.11c0-.34.07-.67.1-1S67.74,420.12,67.74,419.74Zm-4.94,5.53a2.91,2.91,0,0,0,.06.6,1.68,1.68,0,0,0,.22.51,1.12,1.12,0,0,0,.38.34,1.18,1.18,0,0,0,.55.12,1.77,1.77,0,0,0,.75-.17,3.21,3.21,0,0,0,.76-.46,4.9,4.9,0,0,0,.72-.72,6,6,0,0,0,.62-.9,6.4,6.4,0,0,0,.45-1,5.23,5.23,0,0,0,.24-1.11c-.4,0-.79,0-1.18.07a9,9,0,0,0-1.12.19,5.65,5.65,0,0,0-1,.34,2.87,2.87,0,0,0-.78.52,2.34,2.34,0,0,0-.51.73A2.52,2.52,0,0,0,62.8,425.27Z"/><path class="cls-9" d="M76.8,406.39c-.1.86-.2,1.75-.3,2.66s-.2,1.84-.3,2.77l-.27,2.82c-.09.95-.17,1.88-.24,2.8s-.14,1.83-.19,2.71-.1,1.73-.13,2.54h.09A18.06,18.06,0,0,1,76.83,420a11.68,11.68,0,0,1,1.49-2,6,6,0,0,1,1.5-1.22,3,3,0,0,1,1.41-.41,2.32,2.32,0,0,1,1,.2,2.38,2.38,0,0,1,.74.55,3.12,3.12,0,0,1,.53.79,5,5,0,0,1,.33.94,6.52,6.52,0,0,1,.19,1c0,.34,0,.65,0,.94a9.93,9.93,0,0,1-.24,2.24,8.94,8.94,0,0,1-.66,1.91,7.11,7.11,0,0,1-1,1.52,6.25,6.25,0,0,1-1.24,1.13,5.16,5.16,0,0,1-1.41.7,4.79,4.79,0,0,1-1.49.24,4.27,4.27,0,0,1-1-.12,4.46,4.46,0,0,1-1-.34,4.41,4.41,0,0,1-.9-.6,4.61,4.61,0,0,1-.77-.87,7.38,7.38,0,0,1-.57,1.16,6.61,6.61,0,0,1-.54.73l-.42-.11a14.06,14.06,0,0,0,.65-3c.14-1.15.25-2.46.32-3.91,0-.63.07-1.34.11-2.13s.08-1.63.12-2.52.09-1.78.14-2.7.09-1.82.14-2.69.1-1.69.14-2.47.08-1.47.12-2.07a.66.66,0,0,1,.12-.34.85.85,0,0,1,.28-.22,1.49,1.49,0,0,1,.39-.13,2,2,0,0,1,.42,0A2.34,2.34,0,0,1,76.8,406.39Zm5.28,15.11a9,9,0,0,0-.08-1.13,5.19,5.19,0,0,0-.27-1.05,2.33,2.33,0,0,0-.47-.77,1,1,0,0,0-.72-.31,2.15,2.15,0,0,0-1,.25,4,4,0,0,0-.93.66,8.07,8.07,0,0,0-.85,1,11.37,11.37,0,0,0-.77,1.14,12.9,12.9,0,0,0-.65,1.21c-.19.4-.35.79-.49,1.15a10.23,10.23,0,0,0-.32,1,3.34,3.34,0,0,0-.11.71,3.05,3.05,0,0,0,.37.91,2.74,2.74,0,0,0,.62.69,2.67,2.67,0,0,0,.79.44,2.92,2.92,0,0,0,.93.15,3,3,0,0,0,1.52-.4,4,4,0,0,0,1.25-1.18,6.59,6.59,0,0,0,.84-1.89A9.4,9.4,0,0,0,82.08,421.5Z"/><path class="cls-10" d="M89.94,406.39c-.11.91-.21,1.85-.32,2.81l-.3,2.91c-.09,1-.18,2-.26,2.95s-.15,2-.21,2.92-.1,1.9-.14,2.83,0,1.81,0,2.66c0,.53,0,1,0,1.37s0,.7.06,1a3.5,3.5,0,0,0,.12.64,1.06,1.06,0,0,0,.19.37.59.59,0,0,0,.27.18,1.79,1.79,0,0,0,.36,0,3.14,3.14,0,0,0,.83-.12,5.83,5.83,0,0,0,.91-.32l.15.42a4.89,4.89,0,0,1-.73.47,8.67,8.67,0,0,1-.92.44,6.62,6.62,0,0,1-.94.33,3.37,3.37,0,0,1-.81.13,1,1,0,0,1-.69-.23,1.36,1.36,0,0,1-.38-.72,5.87,5.87,0,0,1-.17-1.3c0-.53,0-1.19,0-1.95q0-.42,0-1.2c0-.52,0-1.12.06-1.81s.07-1.44.1-2.26.08-1.66.13-2.53.08-1.76.13-2.64.1-1.75.15-2.58.09-1.62.13-2.35.09-1.39.13-1.95a.58.58,0,0,1,.11-.34.73.73,0,0,1,.27-.22,1.35,1.35,0,0,1,.37-.13,1.9,1.9,0,0,1,.41,0A2.34,2.34,0,0,1,89.94,406.39Z"/><path class="cls-11" d="M100.56,425.52l.13.07.14.1.11.11a.21.21,0,0,1,0,.12.14.14,0,0,1,0,.06,7,7,0,0,1-1,1.09,5.68,5.68,0,0,1-1.08.78,5,5,0,0,1-1.14.46,4.46,4.46,0,0,1-1.14.15,4,4,0,0,1-1.77-.4A4.18,4.18,0,0,1,93.47,427a5.07,5.07,0,0,1-.91-1.61,6,6,0,0,1-.32-2A8.32,8.32,0,0,1,93,420a7.65,7.65,0,0,1,.88-1.46A5.9,5.9,0,0,1,95,417.4a5.58,5.58,0,0,1,1.44-.78,5.21,5.21,0,0,1,1.69-.28,4.24,4.24,0,0,1,1.14.16,3.24,3.24,0,0,1,.95.47,2.27,2.27,0,0,1,.64.74,2,2,0,0,1,.25,1,2.07,2.07,0,0,1-.54,1.43,4.2,4.2,0,0,1-1.48,1,10,10,0,0,1-2.22.69,21.83,21.83,0,0,1-2.76.39v.14a6.59,6.59,0,0,0,.26,1.89,5,5,0,0,0,.72,1.46,3.46,3.46,0,0,0,1.08.95,2.84,2.84,0,0,0,1.34.34,3.46,3.46,0,0,0,1.49-.36A5.37,5.37,0,0,0,100.56,425.52Zm-1.51-6.47a1.73,1.73,0,0,0-.13-.69,1.75,1.75,0,0,0-.34-.56,1.56,1.56,0,0,0-1.19-.51,2.4,2.4,0,0,0-1,.18,2.62,2.62,0,0,0-.77.5,3.73,3.73,0,0,0-.6.75,6.69,6.69,0,0,0-.44.89,8.46,8.46,0,0,0-.29,1,6.89,6.89,0,0,0-.16,1,15.65,15.65,0,0,0,2-.28,6.22,6.22,0,0,0,1.53-.51,2.66,2.66,0,0,0,1-.74A1.6,1.6,0,0,0,99.05,419.05Z"/><path class="cls-12" d="M112.17,417l.78,0h1.73l.7,0,.57-.05a1.77,1.77,0,0,1,.09.48.45.45,0,0,1-.3.47,2.36,2.36,0,0,1-.85.11c-.37,0-.78,0-1.24-.06s-1-.08-1.51-.11c0,.63,0,1.33-.08,2.08s-.07,1.53-.12,2.34-.12,1.62-.19,2.45-.17,1.64-.28,2.43-.24,1.55-.39,2.26a19,19,0,0,1-.52,2,10.75,10.75,0,0,1-1.08,2.3,6.31,6.31,0,0,1-1.26,1.48,4.24,4.24,0,0,1-1.4.8,4.53,4.53,0,0,1-1.44.24,4.71,4.71,0,0,1-1.15-.14,3.27,3.27,0,0,1-.91-.37,2,2,0,0,1-.61-.54,1.11,1.11,0,0,1-.22-.66.85.85,0,0,1,.09-.38,1.16,1.16,0,0,1,.24-.34,1.54,1.54,0,0,1,.37-.23,1.07,1.07,0,0,1,.47-.1,3.68,3.68,0,0,0,.51.72,3.07,3.07,0,0,0,.61.48,2.44,2.44,0,0,0,.67.28,2.74,2.74,0,0,0,.7.09,2.22,2.22,0,0,0,1.57-.6,4.5,4.5,0,0,0,1.09-1.7,13.12,13.12,0,0,0,.69-2.66c.17-1,.29-2.19.38-3.46s.15-2.65.18-4.12,0-3,.06-4.64c-.5,0-1,0-1.4.06a3.83,3.83,0,0,0-1.08.21.41.41,0,0,1,0-.16.48.48,0,0,1,.18-.35,1.93,1.93,0,0,1,.52-.3,5.22,5.22,0,0,1,.81-.21,7.81,7.81,0,0,1,1-.1c0-.51,0-1,.08-1.45s.08-.91.13-1.36.11-.9.19-1.35.17-.92.28-1.4a8.47,8.47,0,0,1,.56-1.7,7.51,7.51,0,0,1,.79-1.34,5.68,5.68,0,0,1,1-1,5.58,5.58,0,0,1,1-.69,5.2,5.2,0,0,1,1.1-.4,5.1,5.1,0,0,1,1.08-.12,4.59,4.59,0,0,1,1.4.2,3.58,3.58,0,0,1,1,.54,2.52,2.52,0,0,1,.64.76,1.77,1.77,0,0,1,.22.85,1.48,1.48,0,0,1-.11.61,1.35,1.35,0,0,1-.29.44,1.22,1.22,0,0,1-.44.28,1.39,1.39,0,0,1-.53.1,1.86,1.86,0,0,1-.79-.19l0-.08a5.65,5.65,0,0,0,.23-.63,2,2,0,0,0,.08-.54,1.3,1.3,0,0,0-.16-.67,1.27,1.27,0,0,0-.41-.45,1.68,1.68,0,0,0-.56-.26A2.25,2.25,0,0,0,116,407a2.77,2.77,0,0,0-1.53.4,3.27,3.27,0,0,0-1,1.11,6.46,6.46,0,0,0-.66,1.66,15.19,15.19,0,0,0-.36,2.06c-.09.73-.14,1.5-.18,2.31Z"/><path class="cls-13" d="M115.73,423.39a8.58,8.58,0,0,1,.17-1.66,8.43,8.43,0,0,1,.5-1.62,7.28,7.28,0,0,1,.82-1.47,5.88,5.88,0,0,1,1.12-1.21,5.39,5.39,0,0,1,1.42-.81,4.71,4.71,0,0,1,1.7-.3,3.75,3.75,0,0,1,1.83.43,4.21,4.21,0,0,1,1.33,1.15,5.32,5.32,0,0,1,.82,1.63,6.45,6.45,0,0,1,.28,1.86,8.56,8.56,0,0,1-.17,1.65,8.24,8.24,0,0,1-.51,1.62,7.36,7.36,0,0,1-.82,1.48,5.82,5.82,0,0,1-1.12,1.2,5.16,5.16,0,0,1-1.42.82,4.71,4.71,0,0,1-1.7.3,3.75,3.75,0,0,1-1.83-.44,4.09,4.09,0,0,1-1.33-1.15,5.13,5.13,0,0,1-.81-1.62A6.21,6.21,0,0,1,115.73,423.39Zm1.93-.77a8.29,8.29,0,0,0,.08,1.11,7.54,7.54,0,0,0,.26,1.09,5.83,5.83,0,0,0,.44,1,3.5,3.5,0,0,0,.62.79,2.73,2.73,0,0,0,.81.54,2.46,2.46,0,0,0,1,.19,2.15,2.15,0,0,0,1-.25,2.66,2.66,0,0,0,.78-.68,4.43,4.43,0,0,0,.54-1,8.38,8.38,0,0,0,.34-1.11q.12-.58.18-1.14c0-.38,0-.73,0-1a8.44,8.44,0,0,0-.08-1.12,7.73,7.73,0,0,0-.26-1.08,5.72,5.72,0,0,0-.44-1,3.56,3.56,0,0,0-.62-.79,2.7,2.7,0,0,0-.81-.53,2.47,2.47,0,0,0-1-.2,2.12,2.12,0,0,0-1,.25,2.62,2.62,0,0,0-.78.67,4.43,4.43,0,0,0-.54,1,8.38,8.38,0,0,0-.34,1.11,7.83,7.83,0,0,0-.18,1.15A9.56,9.56,0,0,0,117.66,422.62Z"/><path class="cls-14" d="M128.75,428.23h-.13c0-.51.08-1.06.12-1.67s.07-1.21.1-1.83.06-1.24.09-1.85,0-1.17.06-1.7,0-1,0-1.43,0-.75,0-1a3.86,3.86,0,0,0,0-.51,1,1,0,0,0-.11-.37.55.55,0,0,0-.24-.21,1.1,1.1,0,0,0-.44-.07l-.28,0a1.92,1.92,0,0,0-.32.05l-.4.08-.51.13-.13-.58a22.67,22.67,0,0,1,2.17-.69,6.08,6.08,0,0,1,1.12-.19.86.86,0,0,1,.76.31,1.47,1.47,0,0,1,.23.92s0,.15,0,.33,0,.42-.05.71,0,.64-.06,1-.06.81-.1,1.25-.07.9-.11,1.38-.09,1-.14,1.44h.08q.39-1.57.87-2.94a12.9,12.9,0,0,1,1.1-2.38,5.78,5.78,0,0,1,1.34-1.58,2.48,2.48,0,0,1,1.6-.58,1.56,1.56,0,0,1,.57.1,1.24,1.24,0,0,1,.46.27,1.2,1.2,0,0,1,.42.93,1.6,1.6,0,0,1-.65,1.29h-.07a2.62,2.62,0,0,0-.64-.41,1.73,1.73,0,0,0-.64-.12,1.85,1.85,0,0,0-.7.13,2.27,2.27,0,0,0-.62.4,4.64,4.64,0,0,0-.86,1.11,12.63,12.63,0,0,0-.72,1.52c-.22.56-.41,1.15-.59,1.77s-.32,1.21-.45,1.79-.23,1.13-.3,1.65-.14.94-.17,1.29Z"/><path class="cls-15" d="M143.69,423.28a2.4,2.4,0,0,0,0,.37c0,.12,0,.24,0,.36a4.49,4.49,0,0,0,.24,1.56,2.61,2.61,0,0,0,1.8,1.62,5,5,0,0,0,1.44.19,5.08,5.08,0,0,0,1.52-.23,3.62,3.62,0,0,0,1.26-.66,3.22,3.22,0,0,0,.86-1.1,3.34,3.34,0,0,0,.33-1.52,3.13,3.13,0,0,0-.15-1,3.28,3.28,0,0,0-.41-.84,4.22,4.22,0,0,0-.63-.71,7.29,7.29,0,0,0-.78-.61c-.28-.19-.58-.37-.89-.54l-1-.53c-.34-.18-.67-.37-1-.57a9.29,9.29,0,0,1-1-.62,7.37,7.37,0,0,1-.86-.71,4.3,4.3,0,0,1-.68-.85,4.17,4.17,0,0,1-.45-1,4.44,4.44,0,0,1-.17-1.25,5.76,5.76,0,0,1,.22-1.59,5.59,5.59,0,0,1,.61-1.36,5.17,5.17,0,0,1,.94-1.1,5.68,5.68,0,0,1,1.19-.81,5.37,5.37,0,0,1,1.39-.51,6.3,6.3,0,0,1,1.51-.18,6.9,6.9,0,0,1,.75.05,7.58,7.58,0,0,1,.81.13,6.23,6.23,0,0,1,.77.22,3.53,3.53,0,0,1,.65.28,1.69,1.69,0,0,1,.45.36.62.62,0,0,1,.17.41c0,.15,0,.35,0,.58s0,.5,0,.8,0,.62,0,1,0,.73-.05,1.12l-.82,0a5.4,5.4,0,0,0,0-.56,3.77,3.77,0,0,0-.24-1.4,2.71,2.71,0,0,0-.67-1,2.83,2.83,0,0,0-1-.61,4.07,4.07,0,0,0-1.35-.21,3.93,3.93,0,0,0-1.38.25,3.16,3.16,0,0,0-1.11.69,3.21,3.21,0,0,0-1,2.37,3.59,3.59,0,0,0,.15,1.07,3.78,3.78,0,0,0,.43.88,3.69,3.69,0,0,0,.64.73,8.55,8.55,0,0,0,.8.63c.29.19.6.38.92.56l1,.53,1,.55a11.2,11.2,0,0,1,1,.6,6.4,6.4,0,0,1,.85.69,4.49,4.49,0,0,1,.68.83,4.11,4.11,0,0,1,.62,2.22,5.89,5.89,0,0,1-.3,2,5.21,5.21,0,0,1-.82,1.49,5.13,5.13,0,0,1-1.16,1.07,6.81,6.81,0,0,1-1.37.7,8.2,8.2,0,0,1-1.41.38,8.08,8.08,0,0,1-1.32.12,10.17,10.17,0,0,1-1.5-.11,8.59,8.59,0,0,1-1.23-.29,2.92,2.92,0,0,1-.83-.41.62.62,0,0,1-.3-.47c0-.36,0-.87,0-1.54s.06-1.47.11-2.4Z"/><path class="cls-16" d="M162.89,425.52l.12.07a.71.71,0,0,1,.14.1.63.63,0,0,1,.12.11.19.19,0,0,1,0,.12.07.07,0,0,1,0,.06,6.41,6.41,0,0,1-2,1.87,5.45,5.45,0,0,1-1.14.46,4.6,4.6,0,0,1-1.15.15,4,4,0,0,1-1.77-.4,4.18,4.18,0,0,1-1.39-1.08,5.25,5.25,0,0,1-.9-1.61,5.79,5.79,0,0,1-.33-2,7.75,7.75,0,0,1,.19-1.72,8.32,8.32,0,0,1,.55-1.64,7.61,7.61,0,0,1,.87-1.46,6.22,6.22,0,0,1,1.18-1.17,5.27,5.27,0,0,1,1.44-.78,5.16,5.16,0,0,1,1.69-.28,4.23,4.23,0,0,1,1.13.16,3.13,3.13,0,0,1,.95.47,2.3,2.3,0,0,1,.65.74,2.09,2.09,0,0,1,.24,1,2.07,2.07,0,0,1-.54,1.43,4.16,4.16,0,0,1-1.47,1,10,10,0,0,1-2.22.69,22.27,22.27,0,0,1-2.77.39v.14a6.25,6.25,0,0,0,.27,1.89,4.53,4.53,0,0,0,.72,1.46,3.26,3.26,0,0,0,1.08.95,2.81,2.81,0,0,0,1.34.34,3.42,3.42,0,0,0,1.48-.36A5.4,5.4,0,0,0,162.89,425.52Zm-1.52-6.47a1.92,1.92,0,0,0-.12-.69,1.77,1.77,0,0,0-.35-.56,1.56,1.56,0,0,0-.53-.38,1.59,1.59,0,0,0-.66-.13,2.4,2.4,0,0,0-1,.18,2.62,2.62,0,0,0-.77.5,3.69,3.69,0,0,0-.59.75,5.66,5.66,0,0,0-.44.89,8.51,8.51,0,0,0-.3,1c-.07.33-.12.66-.16,1a15.42,15.42,0,0,0,2.05-.28,6.46,6.46,0,0,0,1.54-.51A2.71,2.71,0,0,0,161,420,1.6,1.6,0,0,0,161.37,419.05Z"/><path class="cls-17" d="M166.1,428.23H166c.05-.51.09-1.06.12-1.67s.08-1.21.11-1.83.06-1.24.08-1.85.05-1.17.07-1.7,0-1,0-1.43,0-.75,0-1,0-.37,0-.51a1.16,1.16,0,0,0-.11-.37.58.58,0,0,0-.25-.21,1,1,0,0,0-.43-.07l-.29,0a2.3,2.3,0,0,0-.32.05l-.4.08-.51.13-.12-.58a21.81,21.81,0,0,1,2.17-.69,6,6,0,0,1,1.12-.19.88.88,0,0,1,.76.31,1.54,1.54,0,0,1,.23.92s0,.15,0,.33,0,.42,0,.71,0,.64-.07,1-.06.81-.09,1.25-.08.9-.12,1.38-.09,1-.14,1.44h.08a29.28,29.28,0,0,1,.88-2.94,12.28,12.28,0,0,1,1.1-2.38,5.76,5.76,0,0,1,1.33-1.58,2.5,2.5,0,0,1,1.6-.58,1.57,1.57,0,0,1,.58.1,1.2,1.2,0,0,1,.45.27,1.14,1.14,0,0,1,.31.41,1.13,1.13,0,0,1,.11.52,1.73,1.73,0,0,1-.15.7,1.63,1.63,0,0,1-.5.59h-.06a2.83,2.83,0,0,0-.64-.41,1.77,1.77,0,0,0-.64-.12,1.9,1.9,0,0,0-.71.13,2.43,2.43,0,0,0-.62.4A4.62,4.62,0,0,0,170,420a12.63,12.63,0,0,0-.72,1.52,17.48,17.48,0,0,0-.59,1.77c-.18.61-.33,1.21-.45,1.79s-.23,1.13-.31,1.65-.13.94-.16,1.29Z"/><path class="cls-18" d="M182.47,425.52l.13.07.14.1.11.11a.21.21,0,0,1,.05.12.09.09,0,0,1,0,.06,6.44,6.44,0,0,1-1,1.09,5.68,5.68,0,0,1-1.08.78,5,5,0,0,1-1.14.46,4.52,4.52,0,0,1-1.14.15,4,4,0,0,1-1.78-.4,4.24,4.24,0,0,1-1.38-1.08,5.07,5.07,0,0,1-.91-1.61,5.79,5.79,0,0,1-.32-2,8.32,8.32,0,0,1,.73-3.36,7.17,7.17,0,0,1,.88-1.46,5.9,5.9,0,0,1,1.17-1.17,5.58,5.58,0,0,1,1.44-.78,5.21,5.21,0,0,1,1.69-.28,4.24,4.24,0,0,1,1.14.16,3.07,3.07,0,0,1,.94.47,2.19,2.19,0,0,1,.65.74,2.1,2.1,0,0,1,.25,1,2.07,2.07,0,0,1-.54,1.43,4.2,4.2,0,0,1-1.48,1,10,10,0,0,1-2.22.69,21.83,21.83,0,0,1-2.76.39v.14a6.59,6.59,0,0,0,.26,1.89,5,5,0,0,0,.72,1.46,3.46,3.46,0,0,0,1.08.95,2.84,2.84,0,0,0,1.34.34,3.5,3.5,0,0,0,1.49-.36A5.37,5.37,0,0,0,182.47,425.52ZM181,419.05a1.93,1.93,0,0,0-.13-.69,1.61,1.61,0,0,0-.35-.56,1.52,1.52,0,0,0-.52-.38,1.65,1.65,0,0,0-.66-.13,2.49,2.49,0,0,0-1,.18,2.57,2.57,0,0,0-.76.5,3.41,3.41,0,0,0-.6.75,5.66,5.66,0,0,0-.44.89,8,8,0,0,0-.45,2,15.89,15.89,0,0,0,2-.28,6.52,6.52,0,0,0,1.53-.51,2.75,2.75,0,0,0,1-.74A1.6,1.6,0,0,0,181,419.05Z"/><path class="cls-19" d="M186,418.75a2.88,2.88,0,0,0,0-.55,1.22,1.22,0,0,0-.15-.36.55.55,0,0,0-.26-.19,1,1,0,0,0-.36-.06,4,4,0,0,0-.69.08l-.92.22-.12-.58,1.1-.37,1-.28c.29-.08.56-.15.78-.19a3.26,3.26,0,0,1,.53-.06,1,1,0,0,1,.73.27,1.38,1.38,0,0,1,.26,1c0,.05,0,.18,0,.37s0,.45-.05.75,0,.65-.06,1-.06.8-.1,1.24-.07.9-.11,1.37-.09.94-.14,1.4h0a23,23,0,0,1,1.31-3.51,12,12,0,0,1,1.43-2.32,5,5,0,0,1,1.44-1.28,2.8,2.8,0,0,1,1.37-.4,2.36,2.36,0,0,1,.87.17,1.94,1.94,0,0,1,.75.54,3,3,0,0,1,.52,1,4.56,4.56,0,0,1,.19,1.42c0,.16,0,.38,0,.65s0,.57-.07.9-.06.69-.09,1.06-.07.74-.09,1.1-.05.71-.07,1,0,.61,0,.85a9.42,9.42,0,0,0,.05,1,2,2,0,0,0,.18.62.6.6,0,0,0,.32.31,1.19,1.19,0,0,0,.49.09,3.37,3.37,0,0,0,.87-.12,5.49,5.49,0,0,0,.91-.32l.15.42a4.89,4.89,0,0,1-.73.47,8,8,0,0,1-.93.44,6.17,6.17,0,0,1-1,.33,3.67,3.67,0,0,1-.86.13.94.94,0,0,1-.68-.24,1.34,1.34,0,0,1-.37-.64,4,4,0,0,1-.17-.94c0-.36,0-.74,0-1.16s0-1,0-1.56.07-1,.12-1.53.08-.92.11-1.31.06-.71.06-.95a2.2,2.2,0,0,0-.36-1.39,1.14,1.14,0,0,0-.94-.45,1.6,1.6,0,0,0-1,.4,5.11,5.11,0,0,0-1,1.08,11.5,11.5,0,0,0-1,1.63,19.06,19.06,0,0,0-.85,2,17.86,17.86,0,0,0-.62,2.29,14.94,14.94,0,0,0-.32,2.38l-1.68.21h-.13c0-.51.08-1.06.12-1.67s.07-1.21.1-1.83.06-1.24.09-1.85,0-1.17.06-1.7,0-1,0-1.43S186,419,186,418.75Z"/><path class="cls-20" d="M201.81,416.68c-.1.61-.17,1.23-.24,1.84s-.11,1.21-.15,1.79-.08,1.12-.09,1.63,0,1,0,1.39c0,.56,0,1,0,1.44s.05.74.08,1a4.92,4.92,0,0,0,.14.66,1.22,1.22,0,0,0,.21.38.72.72,0,0,0,.29.17,1.48,1.48,0,0,0,.38,0,3.2,3.2,0,0,0,.83-.12,5.83,5.83,0,0,0,.91-.32l.15.42a4.89,4.89,0,0,1-.73.47,8.67,8.67,0,0,1-.92.44,6.32,6.32,0,0,1-.95.33,3.3,3.3,0,0,1-.8.13,2.48,2.48,0,0,1-.41,0,.72.72,0,0,1-.33-.18,1.33,1.33,0,0,1-.27-.43,3.31,3.31,0,0,1-.19-.77q-.08-.48-.12-1.2c0-.49,0-1.07,0-1.76,0-.4,0-.86,0-1.37s0-1.05,0-1.63,0-1.2.06-1.85.06-1.31.11-2a.71.71,0,0,1,.12-.37.8.8,0,0,1,.26-.22,1.19,1.19,0,0,1,.32-.1l.32,0A2.14,2.14,0,0,1,201.81,416.68ZM201.1,413a1.06,1.06,0,0,1-.5-.12,1.36,1.36,0,0,1-.37-.31,1.27,1.27,0,0,1-.23-.43,1.69,1.69,0,0,1-.08-.5A1.56,1.56,0,0,1,200,411a1.35,1.35,0,0,1,.32-.47,1.15,1.15,0,0,1,.42-.28,1.13,1.13,0,0,1,.46-.1,1.26,1.26,0,0,1,.49.1,1.17,1.17,0,0,1,.38.28,1.52,1.52,0,0,1,.24.41,1.33,1.33,0,0,1,.08.49,1.77,1.77,0,0,1-.09.56,2.06,2.06,0,0,1-.27.51,1.44,1.44,0,0,1-.42.36A1.15,1.15,0,0,1,201.1,413Z"/><path class="cls-21" d="M209.13,410.6c-.22,1-.41,2.07-.57,3.16s-.28,2.16-.39,3.22l.74,0,.67,0h1a6.52,6.52,0,0,0,1.2-.09c0,.09,0,.17.06.25a.76.76,0,0,1,0,.21.44.44,0,0,1-.3.46,2.65,2.65,0,0,1-.85.1c-.35,0-.75,0-1.19-.06s-.91-.09-1.44-.12c-.06.57-.1,1.13-.14,1.68s-.08,1.06-.1,1.54,0,.93-.05,1.35,0,.77,0,1.08a11.94,11.94,0,0,0,.09,1.54,3.77,3.77,0,0,0,.31,1.14,1.72,1.72,0,0,0,.62.73,1.92,1.92,0,0,0,1,.25,3.63,3.63,0,0,0,1-.16,6.59,6.59,0,0,0,1.22-.49.83.83,0,0,1,.25.53,11.5,11.5,0,0,1-1,.6,9.93,9.93,0,0,1-1,.47,6.87,6.87,0,0,1-.95.3,4.65,4.65,0,0,1-.87.1,2.47,2.47,0,0,1-1-.2,1.71,1.71,0,0,1-.77-.7,4,4,0,0,1-.51-1.36A10.76,10.76,0,0,1,206,424c0-.49,0-1,0-1.51s0-1,.07-1.57.06-1.07.1-1.6.09-1.06.14-1.57c-.42,0-.81,0-1.18.05a6.59,6.59,0,0,0-.93.14.36.36,0,0,1,0-.11.43.43,0,0,1,.16-.32,1.64,1.64,0,0,1,.46-.27,3.58,3.58,0,0,1,.71-.2,7.39,7.39,0,0,1,.9-.11c.13-1.13.26-2.19.4-3.19s.28-1.89.42-2.67a.66.66,0,0,1,.15-.35.88.88,0,0,1,.25-.22,1.15,1.15,0,0,1,.31-.11l.33,0a2.28,2.28,0,0,1,.48.05A1.61,1.61,0,0,1,209.13,410.6Z"/><path class="cls-22" d="M214.84,416.75l.29.74.36,1c.12.35.25.72.38,1.11s.25.77.37,1.15l.34,1.12q.19.63.39,1.32c.13.46.26.91.38,1.37s.23.87.32,1.26c.27-.7.54-1.43.83-2.18s.58-1.5.88-2.26.59-1.51.88-2.25.59-1.47.86-2.16a.88.88,0,0,1,.2-.29,1.34,1.34,0,0,1,.28-.18,1.19,1.19,0,0,1,.32-.1l.32,0a1.82,1.82,0,0,1,.52.08,3.43,3.43,0,0,1,.48.19c-.25.39-.5.83-.76,1.31s-.53,1-.8,1.54-.55,1.11-.83,1.7-.55,1.2-.82,1.81-.55,1.24-.81,1.86-.52,1.23-.77,1.83-.49,1.21-.72,1.8-.44,1.17-.66,1.73-.43,1.09-.63,1.6-.42,1-.63,1.44-.43.8-.66,1.16a5,5,0,0,1-.76.92,3.36,3.36,0,0,1-.93.62,2.65,2.65,0,0,1-1.11.22,2.13,2.13,0,0,1-.69-.1,1.38,1.38,0,0,1-.51-.27,1.23,1.23,0,0,1-.33-.39,1,1,0,0,1-.11-.46,1.08,1.08,0,0,1,.16-.55,1,1,0,0,1,.41-.43,2.26,2.26,0,0,0,.69.29,2.5,2.5,0,0,0,.62.09,2,2,0,0,0,1.17-.35,3.77,3.77,0,0,0,1-1.07,12.52,12.52,0,0,0,.9-1.8c.31-.71.64-1.56,1-2.52l.16-.43-.32,0q-.4-1.62-.87-3.12c-.3-1-.62-2-1-3-.26-.81-.53-1.59-.81-2.36s-.55-1.49-.83-2.18a1.76,1.76,0,0,1-.07-.22.36.36,0,0,1,0-.14.53.53,0,0,1,.19-.41,1,1,0,0,1,.65-.16,2.79,2.79,0,0,1,.47,0A3.64,3.64,0,0,1,214.84,416.75Z"/><polygon class="cls-23" points="139.8 35.84 202.77 73 202.77 198.51 112.37 247.31 106.18 243.77 193.78 194.22 193.78 77.86 139.8 45.13 139.8 35.84"/><polygon class="cls-24" points="69.48 174.32 69.48 98.17 111.28 71.96 111.09 0 7.15 64.59 8.12 208.48 115.17 268.91 115.17 245.42 28.57 195.79 28.57 75.38 90.83 36.95 90.77 60.88 48.74 86.81 49.3 174.32 69.48 174.32"/><polygon class="cls-25" points="101.76 0 0 64.59 2.65 213.69 102.64 268.91 115.03 268.91 8.41 208.82 7.52 64.59 111.05 0 101.76 0"/><polygon class="cls-26" points="86.71 39.6 86.71 57.96 44.24 86.27 44.24 165.91 49.55 174.75 49.55 86.71 90.69 61.05 90.69 37.16 86.71 39.6"/><polygon class="cls-27" points="119.45 0 119.45 72.11 161.26 98 160.6 174.32 155.29 170.33 155.29 99.1 114.14 73.44 114.14 0 119.45 0"/><polygon class="cls-28" points="160.72 174.32 160.72 98.17 118.92 71.96 119.1 0 223.04 64.36 222.08 208.48 115.03 268.91 115.03 245.42 201.63 195.79 201.63 75.38 139.37 36.95 139.43 60.88 181.45 86.81 180.89 174.32 160.72 174.32"/></svg>