<svg id="Layer_1" data-name="Layer 1" xmlns="http://www.w3.org/2000/svg" xmlns:xlink="http://www.w3.org/1999/xlink" viewBox="0 0 275.41 130.83"><defs><style>.cls-1{fill:#fff;}.cls-2{fill:none;stroke:#fff;stroke-linecap:round;stroke-width:2px;}.cls-3{fill:url(#linear-gradient);}.cls-4{fill:url(#linear-gradient-2);}.cls-5{fill:url(#linear-gradient-3);}.cls-6{fill:url(#linear-gradient-4);}.cls-7{fill:url(#linear-gradient-5);}.cls-8{fill:url(#linear-gradient-6);}</style><linearGradient id="linear-gradient" x1="13190.45" y1="20.06" x2="13190.49" y2="120.01" gradientTransform="matrix(-1, 0, 0, 1, 13265.64, 0)" gradientUnits="userSpaceOnUse"><stop offset="0" stop-color="#e6e6e6"/><stop offset="1" stop-color="#fff"/></linearGradient><linearGradient id="linear-gradient-2" x1="29.45" y1="133.17" x2="30.22" y2="2.36" gradientTransform="matrix(1, 0, 0, 1, 0, 0)" xlink:href="#linear-gradient"/><linearGradient id="linear-gradient-3" x1="27.95" y1="3.34" x2="28" y2="130.43" gradientTransform="matrix(1, 0, 0, 1, 0, 0)" xlink:href="#linear-gradient"/><linearGradient id="linear-gradient-4" x1="32.75" y1="20.53" x2="32.91" y2="84.32" gradientTransform="matrix(1, 0, 0, 1, 0, 0)" xlink:href="#linear-gradient"/><linearGradient id="linear-gradient-5" x1="13378.93" y1="3.09" x2="13379.13" y2="83.93" gradientTransform="matrix(-1, 0, 0, 1, 13445.98, 0)" xlink:href="#linear-gradient"/><linearGradient id="linear-gradient-6" x1="13183.09" y1="133.17" x2="13183.86" y2="2.36" xlink:href="#linear-gradient"/></defs><title>Weser_Logo</title><circle class="cls-1" cx="54.26" cy="66.88" r="3.87"/><path id="progress" class="cls-2" d="M46.18,78.27a8.68,8.68,0,0,1,16.19-.09"/><path id="progress-2" data-name="progress" class="cls-2" d="M48.4,79.78a6.3,6.3,0,0,1,11.77-.06"/><path id="progress-3" data-name="progress" class="cls-2" d="M51.62,80.77a2.83,2.83,0,0,1,3.65-1.63,2.79,2.79,0,0,1,1.62,1.61"/><path class="cls-2" d="M49.47,71.22a7.15,7.15,0,0,1-1.69-4.34,6.48,6.48,0,0,1,13,0A5.59,5.59,0,0,1,59,71.31"/><path class="cls-2" d="M46.31,73.7a10,10,0,0,1-2.51-6.82,10.46,10.46,0,0,1,20.92,0,9.07,9.07,0,0,1-2.41,6.73"/><path class="cls-2" d="M44,76.71a14.19,14.19,0,1,1,20.26.17"/><path class="cls-1" d="M131.92,90.64l-.16-.09-.26.09-13.35,7.72V33h9.58V82.41l3.94-2.27.09-.08v.08l3.94,2.27V33h9.57V98.36Z"/><path class="cls-1" d="M178.18,33V53.28h-9.57V42.61h-8V55.88l9.74,5.62V71.91l-9.74-5.62v22.5h8V75.86l9.57,5.46v17H151.07V62.26h2.51l-2.51-1.43-2.44-1.43V49l2.44,1.35V33h27.11Z"/><path class="cls-1" d="M210.34,33v20.4h-9.57V42.61h-8V55.79L210.34,66V98.36H183.22V72.75h9.57v16h8V72.59h2.94l-.17-.09-2.77-1.59L183.22,60.75V33h27.12Z"/><path class="cls-1" d="M243.25,33V53.28h-9.57V42.61h-8V55.88l9.74,5.62V71.91l-9.74-5.62v22.5h8V75.86l9.57,5.46v17H216.13V62.26h2.52l-2.52-1.43L213.7,59.4V49l2.43,1.35V33h27.12Z"/><path class="cls-1" d="M265.84,33h9.57v27.2l-4.62,2.61,4.62,2.68V98.36h-9.57V72.59h2.93l-.16-.09-2.77-1.59-8-4.62V98.36h-9.57V33h17.55Zm0,27.37V42.61h-8V55.79Z"/><polygon class="cls-3" points="68.02 17.43 98.65 35.52 98.65 96.58 54.67 120.32 51.66 118.6 94.28 94.49 94.28 37.88 68.02 21.95 68.02 17.43"/><polygon class="cls-4" points="33.8 84.81 33.8 47.76 54.14 35.01 54.05 0 3.48 31.43 3.95 101.43 56.03 130.83 56.03 119.4 13.9 95.26 13.9 36.67 44.19 17.98 44.16 29.62 23.72 42.23 23.99 84.81 33.8 84.81"/><polygon class="cls-5" points="49.51 0 0 31.43 1.29 103.96 49.94 130.83 55.96 130.83 4.09 101.6 3.66 31.43 54.03 0 49.51 0"/><polygon class="cls-6" points="42.19 19.27 42.19 28.2 21.52 41.97 21.52 80.72 24.11 85.02 24.11 42.19 44.13 29.7 44.13 18.08 42.19 19.27"/><polygon class="cls-7" points="58.12 0 58.12 35.09 78.46 47.68 78.13 84.81 75.55 82.87 75.55 48.22 55.53 35.73 55.53 0 58.12 0"/><polygon class="cls-8" points="78.19 84.81 78.19 47.76 57.85 35.01 57.95 0 108.52 31.31 108.05 101.43 55.96 130.83 55.96 119.4 98.1 95.26 98.1 36.67 67.81 17.98 67.84 29.62 88.28 42.23 88.01 84.81 78.19 84.81"/></svg>