<svg id="Layer_1" data-name="Layer 1" xmlns="http://www.w3.org/2000/svg" xmlns:xlink="http://www.w3.org/1999/xlink" viewBox="0 0 291.53 351.47"><defs><style>.cls-1{fill:#f7931e;}.cls-2{fill:none;stroke:#f7931e;stroke-linecap:round;stroke-width:2px;}.cls-3{fill:url(#linear-gradient);}.cls-4{fill:url(#linear-gradient-2);}.cls-5{fill:url(#linear-gradient-3);}.cls-6{fill:url(#linear-gradient-4);}.cls-7{fill:url(#linear-gradient-5);}.cls-8{fill:url(#linear-gradient-6);}</style><linearGradient id="linear-gradient" x1="13480.85" y1="53.9" x2="13480.95" y2="322.39" gradientTransform="matrix(-1, 0, 0, 1, 13682.85, 0)" gradientUnits="userSpaceOnUse"><stop offset="0" stop-color="#4d4199"/><stop offset="1" stop-color="#66c"/></linearGradient><linearGradient id="linear-gradient-2" x1="79.11" y1="357.77" x2="81.19" y2="6.34" gradientTransform="matrix(1, 0, 0, 1, 0, 0)" xlink:href="#linear-gradient"/><linearGradient id="linear-gradient-3" x1="75.09" y1="8.98" x2="75.22" y2="350.39" gradientTransform="matrix(1, 0, 0, 1, 0, 0)" xlink:href="#linear-gradient"/><linearGradient id="linear-gradient-4" x1="88" y1="55.15" x2="88.41" y2="226.54" gradientTransform="matrix(1, 0, 0, 1, 0, 0)" xlink:href="#linear-gradient"/><linearGradient id="linear-gradient-5" x1="13683.07" y1="8.29" x2="13683.6" y2="225.47" gradientTransform="matrix(-1, 0, 0, 1, 13863.19, 0)" xlink:href="#linear-gradient"/><linearGradient id="linear-gradient-6" x1="13461.08" y1="357.77" x2="13463.16" y2="6.34" xlink:href="#linear-gradient"/></defs><title>Weser_logoIcon</title><circle class="cls-1" cx="145.76" cy="179.67" r="10.4"/><path id="progress" class="cls-2" d="M124.06,210.26a23.31,23.31,0,0,1,43.5-.22"/><path id="progress-2" data-name="progress" class="cls-2" d="M130,214.32a16.95,16.95,0,0,1,31.62-.16"/><path id="progress-3" data-name="progress" class="cls-2" d="M138.69,217a7.58,7.58,0,0,1,14.15-.08"/><path class="cls-2" d="M132.91,191.32a19.2,19.2,0,0,1-4.55-11.65,17.41,17.41,0,0,1,34.81,0c0,5-1.35,8.73-4.71,11.9"/><path class="cls-2" d="M124.42,198a26.81,26.81,0,0,1-6.76-18.32,28.11,28.11,0,0,1,56.21,0c0,7.43-1.76,13.05-6.46,18.08"/><path class="cls-2" d="M118.32,206.08a38.09,38.09,0,1,1,54.43.46"/><polygon class="cls-3" points="182.73 46.84 265.03 95.41 265.03 259.46 146.88 323.25 138.78 318.62 253.28 253.85 253.28 101.77 182.73 58.98 182.73 46.84"/><polygon class="cls-4" points="90.81 227.84 90.81 128.31 145.45 94.06 145.21 0 9.35 84.43 10.61 272.5 150.53 351.47 150.53 320.77 37.34 255.91 37.34 98.52 118.72 48.3 118.64 79.58 63.71 113.46 64.44 227.84 90.81 227.84"/><polygon class="cls-5" points="133 0 0 84.43 3.47 279.3 134.16 351.47 150.35 351.47 10.99 272.94 9.83 84.43 145.14 0 133 0"/><polygon class="cls-6" points="113.34 51.77 113.34 75.75 57.83 112.76 57.83 216.85 64.77 228.41 64.77 113.34 118.54 79.8 118.54 48.57 113.34 51.77"/><polygon class="cls-7" points="156.13 0 156.13 94.26 210.78 128.08 209.91 227.84 202.97 222.63 202.97 129.53 149.19 95.99 149.19 0 156.13 0"/><polygon class="cls-8" points="210.07 227.84 210.07 128.31 155.43 94.06 155.67 0 291.53 84.12 290.27 272.5 150.35 351.47 150.35 320.77 263.54 255.91 263.54 98.52 182.16 48.3 182.24 79.58 237.17 113.46 236.44 227.84 210.07 227.84"/></svg>